<svg width="198" height="189" viewBox="0 0 198 189" fill="none" xmlns="http://www.w3.org/2000/svg">
<rect width="95" height="90" fill="white"/>
<rect x="105" width="93" height="90" fill="white"/>
<rect x="105" y="101" width="93" height="88" fill="white"/>
<rect y="101" width="95" height="88" fill="white"/>
<path d="M22.28 70.324V79H20.66V75.208H16.586V79H14.966V70.324H16.586V74.056H20.66V70.324H22.28ZM26.5146 72.748C26.9706 72.748 27.3846 72.822 27.7566 72.97C28.1326 73.118 28.4526 73.328 28.7166 73.6C28.9846 73.872 29.1906 74.204 29.3346 74.596C29.4786 74.988 29.5506 75.426 29.5506 75.91C29.5506 76.398 29.4786 76.838 29.3346 77.23C29.1906 77.622 28.9846 77.956 28.7166 78.232C28.4526 78.508 28.1326 78.72 27.7566 78.868C27.3846 79.016 26.9706 79.09 26.5146 79.09C26.0546 79.09 25.6366 79.016 25.2606 78.868C24.8846 78.72 24.5626 78.508 24.2946 78.232C24.0306 77.956 23.8246 77.622 23.6766 77.23C23.5326 76.838 23.4606 76.398 23.4606 75.91C23.4606 75.426 23.5326 74.988 23.6766 74.596C23.8246 74.204 24.0306 73.872 24.2946 73.6C24.5626 73.328 24.8846 73.118 25.2606 72.97C25.6366 72.822 26.0546 72.748 26.5146 72.748ZM26.5146 77.95C27.0266 77.95 27.4046 77.778 27.6486 77.434C27.8966 77.09 28.0206 76.586 28.0206 75.922C28.0206 75.258 27.8966 74.752 27.6486 74.404C27.4046 74.056 27.0266 73.882 26.5146 73.882C25.9946 73.882 25.6086 74.058 25.3566 74.41C25.1086 74.758 24.9846 75.262 24.9846 75.922C24.9846 76.582 25.1086 77.086 25.3566 77.434C25.6086 77.778 25.9946 77.95 26.5146 77.95ZM32.0672 73.6C32.1912 73.476 32.3212 73.362 32.4572 73.258C32.5972 73.15 32.7432 73.06 32.8952 72.988C33.0512 72.912 33.2172 72.854 33.3932 72.814C33.5692 72.77 33.7612 72.748 33.9692 72.748C34.3052 72.748 34.6032 72.806 34.8632 72.922C35.1232 73.034 35.3392 73.194 35.5112 73.402C35.6872 73.606 35.8192 73.852 35.9072 74.14C35.9992 74.424 36.0452 74.738 36.0452 75.082V79H34.5632V75.082C34.5632 74.706 34.4772 74.416 34.3052 74.212C34.1332 74.004 33.8712 73.9 33.5192 73.9C33.2632 73.9 33.0232 73.958 32.7992 74.074C32.5752 74.19 32.3632 74.348 32.1632 74.548V79H30.6812V72.844H31.5872C31.7792 72.844 31.9052 72.934 31.9652 73.114L32.0672 73.6ZM41.4207 75.214C41.4207 75.022 41.3927 74.842 41.3367 74.674C41.2847 74.502 41.2047 74.352 41.0967 74.224C40.9887 74.096 40.8507 73.996 40.6827 73.924C40.5187 73.848 40.3267 73.81 40.1067 73.81C39.6787 73.81 39.3407 73.932 39.0927 74.176C38.8487 74.42 38.6927 74.766 38.6247 75.214H41.4207ZM38.5947 76.108C38.6187 76.424 38.6747 76.698 38.7627 76.93C38.8507 77.158 38.9667 77.348 39.1107 77.5C39.2547 77.648 39.4247 77.76 39.6207 77.836C39.8207 77.908 40.0407 77.944 40.2807 77.944C40.5207 77.944 40.7267 77.916 40.8987 77.86C41.0747 77.804 41.2267 77.742 41.3547 77.674C41.4867 77.606 41.6007 77.544 41.6967 77.488C41.7967 77.432 41.8927 77.404 41.9847 77.404C42.1087 77.404 42.2007 77.45 42.2607 77.542L42.6867 78.082C42.5227 78.274 42.3387 78.436 42.1347 78.568C41.9307 78.696 41.7167 78.8 41.4927 78.88C41.2727 78.956 41.0467 79.01 40.8147 79.042C40.5867 79.074 40.3647 79.09 40.1487 79.09C39.7207 79.09 39.3227 79.02 38.9547 78.88C38.5867 78.736 38.2667 78.526 37.9947 78.25C37.7227 77.97 37.5087 77.626 37.3527 77.218C37.1967 76.806 37.1187 76.33 37.1187 75.79C37.1187 75.37 37.1867 74.976 37.3227 74.608C37.4587 74.236 37.6527 73.914 37.9047 73.642C38.1607 73.366 38.4707 73.148 38.8347 72.988C39.2027 72.828 39.6167 72.748 40.0767 72.748C40.4647 72.748 40.8227 72.81 41.1507 72.934C41.4787 73.058 41.7607 73.24 41.9967 73.48C42.2327 73.716 42.4167 74.008 42.5487 74.356C42.6847 74.7 42.7527 75.094 42.7527 75.538C42.7527 75.762 42.7287 75.914 42.6807 75.994C42.6327 76.07 42.5407 76.108 42.4047 76.108H38.5947ZM47.6208 74.044C47.5808 74.108 47.5388 74.154 47.4948 74.182C47.4508 74.206 47.3948 74.218 47.3268 74.218C47.2548 74.218 47.1768 74.198 47.0928 74.158C47.0128 74.118 46.9188 74.074 46.8108 74.026C46.7028 73.974 46.5788 73.928 46.4388 73.888C46.3028 73.848 46.1408 73.828 45.9528 73.828C45.6608 73.828 45.4308 73.89 45.2628 74.014C45.0988 74.138 45.0168 74.3 45.0168 74.5C45.0168 74.632 45.0588 74.744 45.1428 74.836C45.2308 74.924 45.3448 75.002 45.4848 75.07C45.6288 75.138 45.7908 75.2 45.9708 75.256C46.1508 75.308 46.3328 75.366 46.5168 75.43C46.7048 75.494 46.8888 75.568 47.0688 75.652C47.2488 75.732 47.4088 75.836 47.5488 75.964C47.6928 76.088 47.8068 76.238 47.8908 76.414C47.9788 76.59 48.0228 76.802 48.0228 77.05C48.0228 77.346 47.9688 77.62 47.8608 77.872C47.7568 78.12 47.6008 78.336 47.3928 78.52C47.1848 78.7 46.9268 78.842 46.6188 78.946C46.3148 79.046 45.9628 79.096 45.5628 79.096C45.3508 79.096 45.1428 79.076 44.9388 79.036C44.7388 79 44.5448 78.948 44.3568 78.88C44.1728 78.812 44.0008 78.732 43.8408 78.64C43.6848 78.548 43.5468 78.448 43.4268 78.34L43.7688 77.776C43.8128 77.708 43.8648 77.656 43.9248 77.62C43.9848 77.584 44.0608 77.566 44.1528 77.566C44.2448 77.566 44.3308 77.592 44.4108 77.644C44.4948 77.696 44.5908 77.752 44.6988 77.812C44.8068 77.872 44.9328 77.928 45.0768 77.98C45.2248 78.032 45.4108 78.058 45.6348 78.058C45.8108 78.058 45.9608 78.038 46.0848 77.998C46.2128 77.954 46.3168 77.898 46.3968 77.83C46.4808 77.762 46.5408 77.684 46.5768 77.596C46.6168 77.504 46.6368 77.41 46.6368 77.314C46.6368 77.17 46.5928 77.052 46.5048 76.96C46.4208 76.868 46.3068 76.788 46.1628 76.72C46.0228 76.652 45.8608 76.592 45.6768 76.54C45.4968 76.484 45.3108 76.424 45.1188 76.36C44.9308 76.296 44.7448 76.222 44.5608 76.138C44.3808 76.05 44.2188 75.94 44.0748 75.808C43.9348 75.676 43.8208 75.514 43.7328 75.322C43.6488 75.13 43.6068 74.898 43.6068 74.626C43.6068 74.374 43.6568 74.134 43.7568 73.906C43.8568 73.678 44.0028 73.48 44.1948 73.312C44.3908 73.14 44.6328 73.004 44.9208 72.904C45.2128 72.8 45.5488 72.748 45.9288 72.748C46.3528 72.748 46.7388 72.818 47.0868 72.958C47.4348 73.098 47.7248 73.282 47.9568 73.51L47.6208 74.044ZM55.3483 79H53.8663V73.954H51.0103V77.29C51.0103 77.482 51.0563 77.632 51.1483 77.74C51.2443 77.848 51.3743 77.902 51.5383 77.902C51.6303 77.902 51.7063 77.892 51.7663 77.872C51.8303 77.848 51.8843 77.824 51.9283 77.8C51.9763 77.776 52.0183 77.754 52.0543 77.734C52.0903 77.71 52.1263 77.698 52.1623 77.698C52.2063 77.698 52.2423 77.71 52.2703 77.734C52.2983 77.754 52.3283 77.786 52.3603 77.83L52.8043 78.55C52.5883 78.73 52.3403 78.866 52.0603 78.958C51.7803 79.05 51.4903 79.096 51.1903 79.096C50.6543 79.096 50.2423 78.946 49.9543 78.646C49.6703 78.342 49.5283 77.924 49.5283 77.392V73.954H48.8983C48.8183 73.954 48.7503 73.928 48.6943 73.876C48.6383 73.824 48.6103 73.746 48.6103 73.642V73.054L49.6003 72.886L49.9123 71.212C49.9323 71.132 49.9703 71.07 50.0263 71.026C50.0823 70.982 50.1543 70.96 50.2423 70.96H51.0103V72.898H55.3483V79ZM55.6063 71.026C55.6063 71.154 55.5803 71.276 55.5283 71.392C55.4763 71.504 55.4063 71.602 55.3183 71.686C55.2343 71.77 55.1323 71.838 55.0123 71.89C54.8963 71.938 54.7723 71.962 54.6403 71.962C54.5123 71.962 54.3923 71.938 54.2803 71.89C54.1683 71.838 54.0703 71.77 53.9863 71.686C53.9023 71.602 53.8343 71.504 53.7823 71.392C53.7343 71.276 53.7103 71.154 53.7103 71.026C53.7103 70.894 53.7343 70.772 53.7823 70.66C53.8343 70.544 53.9023 70.444 53.9863 70.36C54.0703 70.272 54.1683 70.204 54.2803 70.156C54.3923 70.104 54.5123 70.078 54.6403 70.078C54.7723 70.078 54.8963 70.104 55.0123 70.156C55.1323 70.204 55.2343 70.272 55.3183 70.36C55.4063 70.444 55.4763 70.544 55.5283 70.66C55.5803 70.772 55.6063 70.894 55.6063 71.026ZM60.7249 74.416C60.5569 74.212 60.3729 74.068 60.1729 73.984C59.9769 73.9 59.7649 73.858 59.5369 73.858C59.3129 73.858 59.1109 73.9 58.9309 73.984C58.7509 74.068 58.5969 74.196 58.4689 74.368C58.3409 74.536 58.2429 74.752 58.1749 75.016C58.1069 75.276 58.0729 75.584 58.0729 75.94C58.0729 76.3 58.1009 76.606 58.1569 76.858C58.2169 77.106 58.3009 77.31 58.4089 77.47C58.5169 77.626 58.6489 77.74 58.8049 77.812C58.9609 77.88 59.1349 77.914 59.3269 77.914C59.6349 77.914 59.8969 77.85 60.1129 77.722C60.3289 77.594 60.5329 77.412 60.7249 77.176V74.416ZM62.2069 70.084V79H61.3009C61.1049 79 60.9809 78.91 60.9289 78.73L60.8029 78.136C60.5549 78.42 60.2689 78.65 59.9449 78.826C59.6249 79.002 59.2509 79.09 58.8229 79.09C58.4869 79.09 58.1789 79.02 57.8989 78.88C57.6189 78.74 57.3769 78.538 57.1729 78.274C56.9729 78.006 56.8169 77.676 56.7049 77.284C56.5969 76.892 56.5429 76.444 56.5429 75.94C56.5429 75.484 56.6049 75.06 56.7289 74.668C56.8529 74.276 57.0309 73.936 57.2629 73.648C57.4949 73.36 57.7729 73.136 58.0969 72.976C58.4209 72.812 58.7849 72.73 59.1889 72.73C59.5329 72.73 59.8269 72.784 60.0709 72.892C60.3149 73 60.5329 73.146 60.7249 73.33V70.084H62.2069ZM66.9215 76.372C66.4935 76.392 66.1335 76.43 65.8415 76.486C65.5495 76.538 65.3155 76.606 65.1395 76.69C64.9635 76.774 64.8375 76.872 64.7615 76.984C64.6855 77.096 64.6475 77.218 64.6475 77.35C64.6475 77.61 64.7235 77.796 64.8755 77.908C65.0315 78.02 65.2335 78.076 65.4815 78.076C65.7855 78.076 66.0475 78.022 66.2675 77.914C66.4915 77.802 66.7095 77.634 66.9215 77.41V76.372ZM63.5255 73.702C64.2335 73.054 65.0855 72.73 66.0815 72.73C66.4415 72.73 66.7635 72.79 67.0475 72.91C67.3315 73.026 67.5715 73.19 67.7675 73.402C67.9635 73.61 68.1115 73.86 68.2115 74.152C68.3155 74.444 68.3675 74.764 68.3675 75.112V79H67.6955C67.5555 79 67.4475 78.98 67.3715 78.94C67.2955 78.896 67.2355 78.81 67.1915 78.682L67.0595 78.238C66.9035 78.378 66.7515 78.502 66.6035 78.61C66.4555 78.714 66.3015 78.802 66.1415 78.874C65.9815 78.946 65.8095 79 65.6255 79.036C65.4455 79.076 65.2455 79.096 65.0255 79.096C64.7655 79.096 64.5255 79.062 64.3055 78.994C64.0855 78.922 63.8955 78.816 63.7355 78.676C63.5755 78.536 63.4515 78.362 63.3635 78.154C63.2755 77.946 63.2315 77.704 63.2315 77.428C63.2315 77.272 63.2575 77.118 63.3095 76.966C63.3615 76.81 63.4455 76.662 63.5615 76.522C63.6815 76.382 63.8355 76.25 64.0235 76.126C64.2115 76.002 64.4415 75.894 64.7135 75.802C64.9895 75.71 65.3095 75.636 65.6735 75.58C66.0375 75.52 66.4535 75.484 66.9215 75.472V75.112C66.9215 74.7 66.8335 74.396 66.6575 74.2C66.4815 74 66.2275 73.9 65.8955 73.9C65.6555 73.9 65.4555 73.928 65.2955 73.984C65.1395 74.04 65.0015 74.104 64.8815 74.176C64.7615 74.244 64.6515 74.306 64.5515 74.362C64.4555 74.418 64.3475 74.446 64.2275 74.446C64.1235 74.446 64.0355 74.42 63.9635 74.368C63.8915 74.312 63.8335 74.248 63.7895 74.176L63.5255 73.702ZM73.6273 74.416C73.4593 74.212 73.2753 74.068 73.0753 73.984C72.8793 73.9 72.6673 73.858 72.4393 73.858C72.2153 73.858 72.0133 73.9 71.8333 73.984C71.6533 74.068 71.4993 74.196 71.3713 74.368C71.2433 74.536 71.1453 74.752 71.0773 75.016C71.0093 75.276 70.9753 75.584 70.9753 75.94C70.9753 76.3 71.0033 76.606 71.0593 76.858C71.1193 77.106 71.2033 77.31 71.3113 77.47C71.4193 77.626 71.5513 77.74 71.7073 77.812C71.8633 77.88 72.0373 77.914 72.2293 77.914C72.5373 77.914 72.7993 77.85 73.0153 77.722C73.2313 77.594 73.4353 77.412 73.6273 77.176V74.416ZM75.1093 70.084V79H74.2033C74.0073 79 73.8833 78.91 73.8313 78.73L73.7053 78.136C73.4573 78.42 73.1713 78.65 72.8473 78.826C72.5273 79.002 72.1533 79.09 71.7253 79.09C71.3893 79.09 71.0813 79.02 70.8013 78.88C70.5213 78.74 70.2793 78.538 70.0753 78.274C69.8753 78.006 69.7193 77.676 69.6073 77.284C69.4993 76.892 69.4453 76.444 69.4453 75.94C69.4453 75.484 69.5073 75.06 69.6313 74.668C69.7553 74.276 69.9333 73.936 70.1653 73.648C70.3973 73.36 70.6753 73.136 70.9993 72.976C71.3233 72.812 71.6873 72.73 72.0913 72.73C72.4353 72.73 72.7293 72.784 72.9733 72.892C73.2173 73 73.4353 73.146 73.6273 73.33V70.084H75.1093ZM80.5378 75.214C80.5378 75.022 80.5098 74.842 80.4538 74.674C80.4018 74.502 80.3218 74.352 80.2138 74.224C80.1058 74.096 79.9678 73.996 79.7998 73.924C79.6358 73.848 79.4438 73.81 79.2238 73.81C78.7958 73.81 78.4578 73.932 78.2098 74.176C77.9658 74.42 77.8098 74.766 77.7418 75.214H80.5378ZM77.7118 76.108C77.7358 76.424 77.7918 76.698 77.8798 76.93C77.9678 77.158 78.0838 77.348 78.2278 77.5C78.3718 77.648 78.5418 77.76 78.7378 77.836C78.9378 77.908 79.1578 77.944 79.3978 77.944C79.6378 77.944 79.8438 77.916 80.0158 77.86C80.1918 77.804 80.3438 77.742 80.4718 77.674C80.6038 77.606 80.7178 77.544 80.8138 77.488C80.9138 77.432 81.0098 77.404 81.1018 77.404C81.2258 77.404 81.3178 77.45 81.3778 77.542L81.8038 78.082C81.6398 78.274 81.4558 78.436 81.2518 78.568C81.0478 78.696 80.8338 78.8 80.6098 78.88C80.3898 78.956 80.1638 79.01 79.9318 79.042C79.7038 79.074 79.4818 79.09 79.2658 79.09C78.8378 79.09 78.4398 79.02 78.0718 78.88C77.7038 78.736 77.3838 78.526 77.1118 78.25C76.8398 77.97 76.6258 77.626 76.4698 77.218C76.3138 76.806 76.2358 76.33 76.2358 75.79C76.2358 75.37 76.3038 74.976 76.4398 74.608C76.5758 74.236 76.7698 73.914 77.0218 73.642C77.2778 73.366 77.5878 73.148 77.9518 72.988C78.3198 72.828 78.7338 72.748 79.1938 72.748C79.5818 72.748 79.9398 72.81 80.2678 72.934C80.5958 73.058 80.8778 73.24 81.1138 73.48C81.3498 73.716 81.5338 74.008 81.6658 74.356C81.8018 74.7 81.8698 75.094 81.8698 75.538C81.8698 75.762 81.8458 75.914 81.7978 75.994C81.7498 76.07 81.6578 76.108 81.5218 76.108H77.7118Z" fill="black"/>
<path d="M122.586 71.608V74.014H125.622V75.256H122.586V77.71H126.438V79H120.966V70.324H126.438V71.608H122.586ZM133.13 79H131.702C131.594 79 131.506 78.972 131.438 78.916C131.374 78.86 131.32 78.796 131.276 78.724L129.974 76.582C129.954 76.65 129.93 76.714 129.902 76.774C129.878 76.834 129.85 76.89 129.818 76.942L128.666 78.724C128.622 78.792 128.568 78.856 128.504 78.916C128.44 78.972 128.36 79 128.264 79H126.938L129.05 75.826L127.022 72.844H128.45C128.558 72.844 128.638 72.86 128.69 72.892C128.742 72.92 128.788 72.968 128.828 73.036L130.118 75.088C130.162 74.952 130.224 74.818 130.304 74.686L131.342 73.066C131.43 72.918 131.544 72.844 131.684 72.844H133.046L131.024 75.76L133.13 79ZM135.386 77.404C135.554 77.608 135.736 77.752 135.932 77.836C136.132 77.92 136.348 77.962 136.58 77.962C136.804 77.962 137.006 77.92 137.186 77.836C137.366 77.752 137.518 77.624 137.642 77.452C137.77 77.28 137.868 77.064 137.936 76.804C138.004 76.54 138.038 76.23 138.038 75.874C138.038 75.514 138.008 75.21 137.948 74.962C137.892 74.71 137.81 74.506 137.702 74.35C137.594 74.194 137.462 74.08 137.306 74.008C137.154 73.936 136.98 73.9 136.784 73.9C136.476 73.9 136.214 73.966 135.998 74.098C135.782 74.226 135.578 74.408 135.386 74.644V77.404ZM135.308 73.684C135.56 73.4 135.846 73.17 136.166 72.994C136.486 72.818 136.862 72.73 137.294 72.73C137.63 72.73 137.936 72.8 138.212 72.94C138.492 73.08 138.732 73.284 138.932 73.552C139.136 73.816 139.292 74.144 139.4 74.536C139.512 74.924 139.568 75.37 139.568 75.874C139.568 76.334 139.506 76.76 139.382 77.152C139.258 77.544 139.08 77.884 138.848 78.172C138.62 78.46 138.342 78.686 138.014 78.85C137.69 79.01 137.326 79.09 136.922 79.09C136.578 79.09 136.284 79.038 136.04 78.934C135.796 78.826 135.578 78.678 135.386 78.49V81.01H133.904V72.844H134.81C135.002 72.844 135.128 72.934 135.188 73.114L135.308 73.684ZM144.69 75.214C144.69 75.022 144.662 74.842 144.606 74.674C144.554 74.502 144.474 74.352 144.366 74.224C144.258 74.096 144.12 73.996 143.952 73.924C143.788 73.848 143.596 73.81 143.376 73.81C142.948 73.81 142.61 73.932 142.362 74.176C142.118 74.42 141.962 74.766 141.894 75.214H144.69ZM141.864 76.108C141.888 76.424 141.944 76.698 142.032 76.93C142.12 77.158 142.236 77.348 142.38 77.5C142.524 77.648 142.694 77.76 142.89 77.836C143.09 77.908 143.31 77.944 143.55 77.944C143.79 77.944 143.996 77.916 144.168 77.86C144.344 77.804 144.496 77.742 144.624 77.674C144.756 77.606 144.87 77.544 144.966 77.488C145.066 77.432 145.162 77.404 145.254 77.404C145.378 77.404 145.47 77.45 145.53 77.542L145.956 78.082C145.792 78.274 145.608 78.436 145.404 78.568C145.2 78.696 144.986 78.8 144.762 78.88C144.542 78.956 144.316 79.01 144.084 79.042C143.856 79.074 143.634 79.09 143.418 79.09C142.99 79.09 142.592 79.02 142.224 78.88C141.856 78.736 141.536 78.526 141.264 78.25C140.992 77.97 140.778 77.626 140.622 77.218C140.466 76.806 140.388 76.33 140.388 75.79C140.388 75.37 140.456 74.976 140.592 74.608C140.728 74.236 140.922 73.914 141.174 73.642C141.43 73.366 141.74 73.148 142.104 72.988C142.472 72.828 142.886 72.748 143.346 72.748C143.734 72.748 144.092 72.81 144.42 72.934C144.748 73.058 145.03 73.24 145.266 73.48C145.502 73.716 145.686 74.008 145.818 74.356C145.954 74.7 146.022 75.094 146.022 75.538C146.022 75.762 145.998 75.914 145.95 75.994C145.902 76.07 145.81 76.108 145.674 76.108H141.864ZM148.532 73.912C148.724 73.544 148.952 73.256 149.216 73.048C149.48 72.836 149.792 72.73 150.152 72.73C150.436 72.73 150.664 72.792 150.836 72.916L150.74 74.026C150.72 74.098 150.69 74.15 150.65 74.182C150.614 74.21 150.564 74.224 150.5 74.224C150.44 74.224 150.35 74.214 150.23 74.194C150.114 74.174 150 74.164 149.888 74.164C149.724 74.164 149.578 74.188 149.45 74.236C149.322 74.284 149.206 74.354 149.102 74.446C149.002 74.534 148.912 74.642 148.832 74.77C148.756 74.898 148.684 75.044 148.616 75.208V79H147.134V72.844H148.004C148.156 72.844 148.262 72.872 148.322 72.928C148.382 72.98 148.422 73.076 148.442 73.216L148.532 73.912ZM153.147 72.844V79H151.659V72.844H153.147ZM153.351 71.05C153.351 71.178 153.325 71.298 153.273 71.41C153.221 71.522 153.151 71.62 153.063 71.704C152.979 71.788 152.879 71.856 152.763 71.908C152.647 71.956 152.523 71.98 152.391 71.98C152.263 71.98 152.141 71.956 152.025 71.908C151.913 71.856 151.815 71.788 151.731 71.704C151.647 71.62 151.579 71.522 151.527 71.41C151.479 71.298 151.455 71.178 151.455 71.05C151.455 70.918 151.479 70.794 151.527 70.678C151.579 70.562 151.647 70.462 151.731 70.378C151.815 70.294 151.913 70.228 152.025 70.18C152.141 70.128 152.263 70.102 152.391 70.102C152.523 70.102 152.647 70.128 152.763 70.18C152.879 70.228 152.979 70.294 153.063 70.378C153.151 70.462 153.221 70.562 153.273 70.678C153.325 70.794 153.351 70.918 153.351 71.05ZM158.624 75.214C158.624 75.022 158.596 74.842 158.54 74.674C158.488 74.502 158.408 74.352 158.3 74.224C158.192 74.096 158.054 73.996 157.886 73.924C157.722 73.848 157.53 73.81 157.31 73.81C156.882 73.81 156.544 73.932 156.296 74.176C156.052 74.42 155.896 74.766 155.828 75.214H158.624ZM155.798 76.108C155.822 76.424 155.878 76.698 155.966 76.93C156.054 77.158 156.17 77.348 156.314 77.5C156.458 77.648 156.628 77.76 156.824 77.836C157.024 77.908 157.244 77.944 157.484 77.944C157.724 77.944 157.93 77.916 158.102 77.86C158.278 77.804 158.43 77.742 158.558 77.674C158.69 77.606 158.804 77.544 158.9 77.488C159 77.432 159.096 77.404 159.188 77.404C159.312 77.404 159.404 77.45 159.464 77.542L159.89 78.082C159.726 78.274 159.542 78.436 159.338 78.568C159.134 78.696 158.92 78.8 158.696 78.88C158.476 78.956 158.25 79.01 158.018 79.042C157.79 79.074 157.568 79.09 157.352 79.09C156.924 79.09 156.526 79.02 156.158 78.88C155.79 78.736 155.47 78.526 155.198 78.25C154.926 77.97 154.712 77.626 154.556 77.218C154.4 76.806 154.322 76.33 154.322 75.79C154.322 75.37 154.39 74.976 154.526 74.608C154.662 74.236 154.856 73.914 155.108 73.642C155.364 73.366 155.674 73.148 156.038 72.988C156.406 72.828 156.82 72.748 157.28 72.748C157.668 72.748 158.026 72.81 158.354 72.934C158.682 73.058 158.964 73.24 159.2 73.48C159.436 73.716 159.62 74.008 159.752 74.356C159.888 74.7 159.956 75.094 159.956 75.538C159.956 75.762 159.932 75.914 159.884 75.994C159.836 76.07 159.744 76.108 159.608 76.108H155.798ZM159.386 71.992H158.396C158.34 71.992 158.282 71.982 158.222 71.962C158.166 71.938 158.11 71.898 158.054 71.842L157.466 71.218C157.422 71.178 157.38 71.13 157.34 71.074C157.296 71.13 157.254 71.178 157.214 71.218L156.614 71.842C156.566 71.894 156.512 71.932 156.452 71.956C156.392 71.98 156.332 71.992 156.272 71.992H155.246L156.62 70.324H158.012L159.386 71.992ZM162.454 73.6C162.578 73.476 162.708 73.362 162.844 73.258C162.984 73.15 163.13 73.06 163.282 72.988C163.438 72.912 163.604 72.854 163.78 72.814C163.956 72.77 164.148 72.748 164.356 72.748C164.692 72.748 164.99 72.806 165.25 72.922C165.51 73.034 165.726 73.194 165.898 73.402C166.074 73.606 166.206 73.852 166.294 74.14C166.386 74.424 166.432 74.738 166.432 75.082V79H164.95V75.082C164.95 74.706 164.864 74.416 164.692 74.212C164.52 74.004 164.258 73.9 163.906 73.9C163.65 73.9 163.41 73.958 163.186 74.074C162.962 74.19 162.75 74.348 162.55 74.548V79H161.068V72.844H161.974C162.166 72.844 162.292 72.934 162.352 73.114L162.454 73.6ZM172.251 74.146C172.207 74.202 172.163 74.246 172.119 74.278C172.079 74.31 172.019 74.326 171.939 74.326C171.863 74.326 171.789 74.304 171.717 74.26C171.645 74.212 171.559 74.16 171.459 74.104C171.359 74.044 171.239 73.992 171.099 73.948C170.963 73.9 170.793 73.876 170.589 73.876C170.329 73.876 170.101 73.924 169.905 74.02C169.709 74.112 169.545 74.246 169.413 74.422C169.285 74.598 169.189 74.812 169.125 75.064C169.061 75.312 169.029 75.594 169.029 75.91C169.029 76.238 169.063 76.53 169.131 76.786C169.203 77.042 169.305 77.258 169.437 77.434C169.569 77.606 169.729 77.738 169.917 77.83C170.105 77.918 170.317 77.962 170.553 77.962C170.789 77.962 170.979 77.934 171.123 77.878C171.271 77.818 171.395 77.754 171.495 77.686C171.595 77.614 171.681 77.55 171.753 77.494C171.829 77.434 171.913 77.404 172.005 77.404C172.125 77.404 172.215 77.45 172.275 77.542L172.701 78.082C172.537 78.274 172.359 78.436 172.167 78.568C171.975 78.696 171.775 78.8 171.567 78.88C171.363 78.956 171.151 79.01 170.931 79.042C170.715 79.074 170.499 79.09 170.283 79.09C169.903 79.09 169.545 79.02 169.209 78.88C168.873 78.736 168.579 78.528 168.327 78.256C168.075 77.984 167.875 77.652 167.727 77.26C167.583 76.864 167.511 76.414 167.511 75.91C167.511 75.458 167.575 75.04 167.703 74.656C167.835 74.268 168.027 73.934 168.279 73.654C168.531 73.37 168.843 73.148 169.215 72.988C169.587 72.828 170.015 72.748 170.499 72.748C170.959 72.748 171.361 72.822 171.705 72.97C172.053 73.118 172.365 73.33 172.641 73.606L172.251 74.146ZM175.166 72.844V79H173.678V72.844H175.166ZM175.37 71.05C175.37 71.178 175.344 71.298 175.292 71.41C175.24 71.522 175.17 71.62 175.082 71.704C174.998 71.788 174.898 71.856 174.782 71.908C174.666 71.956 174.542 71.98 174.41 71.98C174.282 71.98 174.16 71.956 174.044 71.908C173.932 71.856 173.834 71.788 173.75 71.704C173.666 71.62 173.598 71.522 173.546 71.41C173.498 71.298 173.474 71.178 173.474 71.05C173.474 70.918 173.498 70.794 173.546 70.678C173.598 70.562 173.666 70.462 173.75 70.378C173.834 70.294 173.932 70.228 174.044 70.18C174.16 70.128 174.282 70.102 174.41 70.102C174.542 70.102 174.666 70.128 174.782 70.18C174.898 70.228 174.998 70.294 175.082 70.378C175.17 70.462 175.24 70.562 175.292 70.678C175.344 70.794 175.37 70.918 175.37 71.05ZM179.929 76.372C179.501 76.392 179.141 76.43 178.849 76.486C178.557 76.538 178.323 76.606 178.147 76.69C177.971 76.774 177.845 76.872 177.769 76.984C177.693 77.096 177.655 77.218 177.655 77.35C177.655 77.61 177.731 77.796 177.883 77.908C178.039 78.02 178.241 78.076 178.489 78.076C178.793 78.076 179.055 78.022 179.275 77.914C179.499 77.802 179.717 77.634 179.929 77.41V76.372ZM176.533 73.702C177.241 73.054 178.093 72.73 179.089 72.73C179.449 72.73 179.771 72.79 180.055 72.91C180.339 73.026 180.579 73.19 180.775 73.402C180.971 73.61 181.119 73.86 181.219 74.152C181.323 74.444 181.375 74.764 181.375 75.112V79H180.703C180.563 79 180.455 78.98 180.379 78.94C180.303 78.896 180.243 78.81 180.199 78.682L180.067 78.238C179.911 78.378 179.759 78.502 179.611 78.61C179.463 78.714 179.309 78.802 179.149 78.874C178.989 78.946 178.817 79 178.633 79.036C178.453 79.076 178.253 79.096 178.033 79.096C177.773 79.096 177.533 79.062 177.313 78.994C177.093 78.922 176.903 78.816 176.743 78.676C176.583 78.536 176.459 78.362 176.371 78.154C176.283 77.946 176.239 77.704 176.239 77.428C176.239 77.272 176.265 77.118 176.317 76.966C176.369 76.81 176.453 76.662 176.569 76.522C176.689 76.382 176.843 76.25 177.031 76.126C177.219 76.002 177.449 75.894 177.721 75.802C177.997 75.71 178.317 75.636 178.681 75.58C179.045 75.52 179.461 75.484 179.929 75.472V75.112C179.929 74.7 179.841 74.396 179.665 74.2C179.489 74 179.235 73.9 178.903 73.9C178.663 73.9 178.463 73.928 178.303 73.984C178.147 74.04 178.009 74.104 177.889 74.176C177.769 74.244 177.659 74.306 177.559 74.362C177.463 74.418 177.355 74.446 177.235 74.446C177.131 74.446 177.043 74.42 176.971 74.368C176.899 74.312 176.841 74.248 176.797 74.176L176.533 73.702Z" fill="black"/>
<path d="M119.924 175.954C120.012 175.954 120.09 175.988 120.158 176.056L120.794 176.746C120.442 177.182 120.008 177.516 119.492 177.748C118.98 177.98 118.364 178.096 117.644 178.096C117 178.096 116.42 177.986 115.904 177.766C115.392 177.546 114.954 177.24 114.59 176.848C114.226 176.456 113.946 175.988 113.75 175.444C113.558 174.9 113.462 174.306 113.462 173.662C113.462 173.01 113.566 172.414 113.774 171.874C113.982 171.33 114.274 170.862 114.65 170.47C115.03 170.078 115.482 169.774 116.006 169.558C116.53 169.338 117.11 169.228 117.746 169.228C118.378 169.228 118.938 169.332 119.426 169.54C119.918 169.748 120.336 170.02 120.68 170.356L120.14 171.106C120.108 171.154 120.066 171.196 120.014 171.232C119.966 171.268 119.898 171.286 119.81 171.286C119.75 171.286 119.688 171.27 119.624 171.238C119.56 171.202 119.49 171.16 119.414 171.112C119.338 171.06 119.25 171.004 119.15 170.944C119.05 170.884 118.934 170.83 118.802 170.782C118.67 170.73 118.516 170.688 118.34 170.656C118.168 170.62 117.968 170.602 117.74 170.602C117.352 170.602 116.996 170.672 116.672 170.812C116.352 170.948 116.076 171.148 115.844 171.412C115.612 171.672 115.432 171.992 115.304 172.372C115.176 172.748 115.112 173.178 115.112 173.662C115.112 174.15 115.18 174.584 115.316 174.964C115.456 175.344 115.644 175.664 115.88 175.924C116.116 176.184 116.394 176.384 116.714 176.524C117.034 176.66 117.378 176.728 117.746 176.728C117.966 176.728 118.164 176.716 118.34 176.692C118.52 176.668 118.684 176.63 118.832 176.578C118.984 176.526 119.126 176.46 119.258 176.38C119.394 176.296 119.528 176.194 119.66 176.074C119.7 176.038 119.742 176.01 119.786 175.99C119.83 175.966 119.876 175.954 119.924 175.954ZM124.261 171.748C124.717 171.748 125.131 171.822 125.503 171.97C125.879 172.118 126.199 172.328 126.463 172.6C126.731 172.872 126.937 173.204 127.081 173.596C127.225 173.988 127.297 174.426 127.297 174.91C127.297 175.398 127.225 175.838 127.081 176.23C126.937 176.622 126.731 176.956 126.463 177.232C126.199 177.508 125.879 177.72 125.503 177.868C125.131 178.016 124.717 178.09 124.261 178.09C123.801 178.09 123.383 178.016 123.007 177.868C122.631 177.72 122.309 177.508 122.041 177.232C121.777 176.956 121.571 176.622 121.423 176.23C121.279 175.838 121.207 175.398 121.207 174.91C121.207 174.426 121.279 173.988 121.423 173.596C121.571 173.204 121.777 172.872 122.041 172.6C122.309 172.328 122.631 172.118 123.007 171.97C123.383 171.822 123.801 171.748 124.261 171.748ZM124.261 176.95C124.773 176.95 125.151 176.778 125.395 176.434C125.643 176.09 125.767 175.586 125.767 174.922C125.767 174.258 125.643 173.752 125.395 173.404C125.151 173.056 124.773 172.882 124.261 172.882C123.741 172.882 123.355 173.058 123.103 173.41C122.855 173.758 122.731 174.262 122.731 174.922C122.731 175.582 122.855 176.086 123.103 176.434C123.355 176.778 123.741 176.95 124.261 176.95ZM129.813 172.6C129.937 172.476 130.067 172.362 130.203 172.258C130.343 172.15 130.489 172.06 130.641 171.988C130.797 171.912 130.963 171.854 131.139 171.814C131.315 171.77 131.507 171.748 131.715 171.748C132.051 171.748 132.349 171.806 132.609 171.922C132.869 172.034 133.085 172.194 133.257 172.402C133.433 172.606 133.565 172.852 133.653 173.14C133.745 173.424 133.791 173.738 133.791 174.082V178H132.309V174.082C132.309 173.706 132.223 173.416 132.051 173.212C131.879 173.004 131.617 172.9 131.265 172.9C131.009 172.9 130.769 172.958 130.545 173.074C130.321 173.19 130.109 173.348 129.909 173.548V178H128.427V171.844H129.333C129.525 171.844 129.651 171.934 129.711 172.114L129.813 172.6ZM136.683 172.504C136.923 172.28 137.187 172.098 137.475 171.958C137.763 171.818 138.101 171.748 138.489 171.748C138.825 171.748 139.123 171.806 139.383 171.922C139.643 172.034 139.859 172.194 140.031 172.402C140.207 172.606 140.339 172.852 140.427 173.14C140.519 173.424 140.565 173.738 140.565 174.082V178H139.083V174.082C139.083 173.706 138.997 173.416 138.825 173.212C138.653 173.004 138.391 172.9 138.039 172.9C137.783 172.9 137.543 172.958 137.319 173.074C137.095 173.19 136.883 173.348 136.683 173.548V178H135.201V169.084H136.683V172.504ZM145.94 174.214C145.94 174.022 145.912 173.842 145.856 173.674C145.804 173.502 145.724 173.352 145.616 173.224C145.508 173.096 145.37 172.996 145.202 172.924C145.038 172.848 144.846 172.81 144.626 172.81C144.198 172.81 143.86 172.932 143.612 173.176C143.368 173.42 143.212 173.766 143.144 174.214H145.94ZM143.114 175.108C143.138 175.424 143.194 175.698 143.282 175.93C143.37 176.158 143.486 176.348 143.63 176.5C143.774 176.648 143.944 176.76 144.14 176.836C144.34 176.908 144.56 176.944 144.8 176.944C145.04 176.944 145.246 176.916 145.418 176.86C145.594 176.804 145.746 176.742 145.874 176.674C146.006 176.606 146.12 176.544 146.216 176.488C146.316 176.432 146.412 176.404 146.504 176.404C146.628 176.404 146.72 176.45 146.78 176.542L147.206 177.082C147.042 177.274 146.858 177.436 146.654 177.568C146.45 177.696 146.236 177.8 146.012 177.88C145.792 177.956 145.566 178.01 145.334 178.042C145.106 178.074 144.884 178.09 144.668 178.09C144.24 178.09 143.842 178.02 143.474 177.88C143.106 177.736 142.786 177.526 142.514 177.25C142.242 176.97 142.028 176.626 141.872 176.218C141.716 175.806 141.638 175.33 141.638 174.79C141.638 174.37 141.706 173.976 141.842 173.608C141.978 173.236 142.172 172.914 142.424 172.642C142.68 172.366 142.99 172.148 143.354 171.988C143.722 171.828 144.136 171.748 144.596 171.748C144.984 171.748 145.342 171.81 145.67 171.934C145.998 172.058 146.28 172.24 146.516 172.48C146.752 172.716 146.936 173.008 147.068 173.356C147.204 173.7 147.272 174.094 147.272 174.538C147.272 174.762 147.248 174.914 147.2 174.994C147.152 175.07 147.06 175.108 146.924 175.108H143.114ZM152.794 173.146C152.75 173.202 152.706 173.246 152.662 173.278C152.622 173.31 152.562 173.326 152.482 173.326C152.406 173.326 152.332 173.304 152.26 173.26C152.188 173.212 152.102 173.16 152.002 173.104C151.902 173.044 151.782 172.992 151.642 172.948C151.506 172.9 151.336 172.876 151.132 172.876C150.872 172.876 150.644 172.924 150.448 173.02C150.252 173.112 150.088 173.246 149.956 173.422C149.828 173.598 149.732 173.812 149.668 174.064C149.604 174.312 149.572 174.594 149.572 174.91C149.572 175.238 149.606 175.53 149.674 175.786C149.746 176.042 149.848 176.258 149.98 176.434C150.112 176.606 150.272 176.738 150.46 176.83C150.648 176.918 150.86 176.962 151.096 176.962C151.332 176.962 151.522 176.934 151.666 176.878C151.814 176.818 151.938 176.754 152.038 176.686C152.138 176.614 152.224 176.55 152.296 176.494C152.372 176.434 152.456 176.404 152.548 176.404C152.668 176.404 152.758 176.45 152.818 176.542L153.244 177.082C153.08 177.274 152.902 177.436 152.71 177.568C152.518 177.696 152.318 177.8 152.11 177.88C151.906 177.956 151.694 178.01 151.474 178.042C151.258 178.074 151.042 178.09 150.826 178.09C150.446 178.09 150.088 178.02 149.752 177.88C149.416 177.736 149.122 177.528 148.87 177.256C148.618 176.984 148.418 176.652 148.27 176.26C148.126 175.864 148.054 175.414 148.054 174.91C148.054 174.458 148.118 174.04 148.246 173.656C148.378 173.268 148.57 172.934 148.822 172.654C149.074 172.37 149.386 172.148 149.758 171.988C150.13 171.828 150.558 171.748 151.042 171.748C151.502 171.748 151.904 171.822 152.248 171.97C152.596 172.118 152.908 172.33 153.184 172.606L152.794 173.146ZM155.709 171.844V178H154.221V171.844H155.709ZM155.913 170.05C155.913 170.178 155.887 170.298 155.835 170.41C155.783 170.522 155.713 170.62 155.625 170.704C155.541 170.788 155.441 170.856 155.325 170.908C155.209 170.956 155.085 170.98 154.953 170.98C154.825 170.98 154.703 170.956 154.587 170.908C154.475 170.856 154.377 170.788 154.293 170.704C154.209 170.62 154.141 170.522 154.089 170.41C154.041 170.298 154.017 170.178 154.017 170.05C154.017 169.918 154.041 169.794 154.089 169.678C154.141 169.562 154.209 169.462 154.293 169.378C154.377 169.294 154.475 169.228 154.587 169.18C154.703 169.128 154.825 169.102 154.953 169.102C155.085 169.102 155.209 169.128 155.325 169.18C155.441 169.228 155.541 169.294 155.625 169.378C155.713 169.462 155.783 169.562 155.835 169.678C155.887 169.794 155.913 169.918 155.913 170.05ZM157.22 178V171.844H158.126C158.318 171.844 158.444 171.934 158.504 172.114L158.6 172.57C158.708 172.45 158.82 172.34 158.936 172.24C159.056 172.14 159.182 172.054 159.314 171.982C159.45 171.91 159.594 171.854 159.746 171.814C159.902 171.77 160.072 171.748 160.256 171.748C160.644 171.748 160.962 171.854 161.21 172.066C161.462 172.274 161.65 172.552 161.774 172.9C161.87 172.696 161.99 172.522 162.134 172.378C162.278 172.23 162.436 172.11 162.608 172.018C162.78 171.926 162.962 171.858 163.154 171.814C163.35 171.77 163.546 171.748 163.742 171.748C164.082 171.748 164.384 171.8 164.648 171.904C164.912 172.008 165.134 172.16 165.314 172.36C165.494 172.56 165.63 172.804 165.722 173.092C165.818 173.38 165.866 173.71 165.866 174.082V178H164.384V174.082C164.384 173.69 164.298 173.396 164.126 173.2C163.954 173 163.702 172.9 163.37 172.9C163.218 172.9 163.076 172.926 162.944 172.978C162.816 173.03 162.702 173.106 162.602 173.206C162.506 173.302 162.43 173.424 162.374 173.572C162.318 173.72 162.29 173.89 162.29 174.082V178H160.802V174.082C160.802 173.67 160.718 173.37 160.55 173.182C160.386 172.994 160.144 172.9 159.824 172.9C159.608 172.9 159.406 172.954 159.218 173.062C159.034 173.166 158.862 173.31 158.702 173.494V178H157.22ZM171.241 174.214C171.241 174.022 171.213 173.842 171.157 173.674C171.105 173.502 171.025 173.352 170.917 173.224C170.809 173.096 170.671 172.996 170.503 172.924C170.339 172.848 170.147 172.81 169.927 172.81C169.499 172.81 169.161 172.932 168.913 173.176C168.669 173.42 168.513 173.766 168.445 174.214H171.241ZM168.415 175.108C168.439 175.424 168.495 175.698 168.583 175.93C168.671 176.158 168.787 176.348 168.931 176.5C169.075 176.648 169.245 176.76 169.441 176.836C169.641 176.908 169.861 176.944 170.101 176.944C170.341 176.944 170.547 176.916 170.719 176.86C170.895 176.804 171.047 176.742 171.175 176.674C171.307 176.606 171.421 176.544 171.517 176.488C171.617 176.432 171.713 176.404 171.805 176.404C171.929 176.404 172.021 176.45 172.081 176.542L172.507 177.082C172.343 177.274 172.159 177.436 171.955 177.568C171.751 177.696 171.537 177.8 171.313 177.88C171.093 177.956 170.867 178.01 170.635 178.042C170.407 178.074 170.185 178.09 169.969 178.09C169.541 178.09 169.143 178.02 168.775 177.88C168.407 177.736 168.087 177.526 167.815 177.25C167.543 176.97 167.329 176.626 167.173 176.218C167.017 175.806 166.939 175.33 166.939 174.79C166.939 174.37 167.007 173.976 167.143 173.608C167.279 173.236 167.473 172.914 167.725 172.642C167.981 172.366 168.291 172.148 168.655 171.988C169.023 171.828 169.437 171.748 169.897 171.748C170.285 171.748 170.643 171.81 170.971 171.934C171.299 172.058 171.581 172.24 171.817 172.48C172.053 172.716 172.237 173.008 172.369 173.356C172.505 173.7 172.573 174.094 172.573 174.538C172.573 174.762 172.549 174.914 172.501 174.994C172.453 175.07 172.361 175.108 172.225 175.108H168.415ZM175.071 172.6C175.195 172.476 175.325 172.362 175.461 172.258C175.601 172.15 175.747 172.06 175.899 171.988C176.055 171.912 176.221 171.854 176.397 171.814C176.573 171.77 176.765 171.748 176.973 171.748C177.309 171.748 177.607 171.806 177.867 171.922C178.127 172.034 178.343 172.194 178.515 172.402C178.691 172.606 178.823 172.852 178.911 173.14C179.003 173.424 179.049 173.738 179.049 174.082V178H177.567V174.082C177.567 173.706 177.481 173.416 177.309 173.212C177.137 173.004 176.875 172.9 176.523 172.9C176.267 172.9 176.027 172.958 175.803 173.074C175.579 173.19 175.367 173.348 175.167 173.548V178H173.685V171.844H174.591C174.783 171.844 174.909 171.934 174.969 172.114L175.071 172.6ZM182.429 178.096C181.893 178.096 181.481 177.946 181.193 177.646C180.909 177.342 180.767 176.924 180.767 176.392V172.954H180.137C180.057 172.954 179.989 172.928 179.933 172.876C179.877 172.824 179.849 172.746 179.849 172.642V172.054L180.839 171.892L181.151 170.212C181.171 170.132 181.209 170.07 181.265 170.026C181.321 169.982 181.393 169.96 181.481 169.96H182.249V171.898H183.893V172.954H182.249V176.29C182.249 176.482 182.295 176.632 182.387 176.74C182.483 176.848 182.613 176.902 182.777 176.902C182.869 176.902 182.945 176.892 183.005 176.872C183.069 176.848 183.123 176.824 183.167 176.8C183.215 176.776 183.257 176.754 183.293 176.734C183.329 176.71 183.365 176.698 183.401 176.698C183.445 176.698 183.481 176.71 183.509 176.734C183.537 176.754 183.567 176.786 183.599 176.83L184.043 177.55C183.827 177.73 183.579 177.866 183.299 177.958C183.019 178.05 182.729 178.096 182.429 178.096ZM187.519 171.748C187.975 171.748 188.389 171.822 188.761 171.97C189.137 172.118 189.457 172.328 189.721 172.6C189.988 172.872 190.194 173.204 190.339 173.596C190.483 173.988 190.555 174.426 190.555 174.91C190.555 175.398 190.483 175.838 190.339 176.23C190.194 176.622 189.988 176.956 189.721 177.232C189.457 177.508 189.137 177.72 188.761 177.868C188.389 178.016 187.975 178.09 187.519 178.09C187.059 178.09 186.641 178.016 186.265 177.868C185.889 177.72 185.567 177.508 185.299 177.232C185.035 176.956 184.829 176.622 184.681 176.23C184.537 175.838 184.465 175.398 184.465 174.91C184.465 174.426 184.537 173.988 184.681 173.596C184.829 173.204 185.035 172.872 185.299 172.6C185.567 172.328 185.889 172.118 186.265 171.97C186.641 171.822 187.059 171.748 187.519 171.748ZM187.519 176.95C188.031 176.95 188.409 176.778 188.653 176.434C188.901 176.09 189.025 175.586 189.025 174.922C189.025 174.258 188.901 173.752 188.653 173.404C188.409 173.056 188.031 172.882 187.519 172.882C186.999 172.882 186.613 173.058 186.361 173.41C186.113 173.758 185.989 174.262 185.989 174.922C185.989 175.582 186.113 176.086 186.361 176.434C186.613 176.778 186.999 176.95 187.519 176.95Z" fill="black"/>
<path d="M25.586 170.608V173.014H28.622V174.256H25.586V176.71H29.438V178H23.966V169.324H29.438V170.608H25.586ZM30.8497 178V172.96L30.3157 172.876C30.1997 172.852 30.1057 172.812 30.0337 172.756C29.9657 172.696 29.9317 172.612 29.9317 172.504V171.898H30.8497V171.7C30.8497 171.324 30.9117 170.976 31.0357 170.656C31.1597 170.332 31.3477 170.052 31.5997 169.816C31.8517 169.58 32.1697 169.396 32.5537 169.264C32.9417 169.128 33.3977 169.06 33.9217 169.06C34.0897 169.06 34.2597 169.07 34.4317 169.09C34.6077 169.106 34.7597 169.134 34.8877 169.174L34.8397 169.942C34.8317 170.034 34.7817 170.09 34.6897 170.11C34.5977 170.126 34.4837 170.134 34.3477 170.134C33.9597 170.134 33.6337 170.168 33.3697 170.236C33.1097 170.304 32.8977 170.406 32.7337 170.542C32.5737 170.674 32.4577 170.842 32.3857 171.046C32.3177 171.246 32.2837 171.48 32.2837 171.748V171.898H36.0997V178H34.6177V172.954H32.3317V178H30.8497ZM42.0287 173.146C41.9847 173.202 41.9407 173.246 41.8967 173.278C41.8567 173.31 41.7967 173.326 41.7167 173.326C41.6407 173.326 41.5667 173.304 41.4947 173.26C41.4227 173.212 41.3367 173.16 41.2367 173.104C41.1367 173.044 41.0167 172.992 40.8767 172.948C40.7407 172.9 40.5707 172.876 40.3667 172.876C40.1067 172.876 39.8787 172.924 39.6827 173.02C39.4867 173.112 39.3227 173.246 39.1907 173.422C39.0627 173.598 38.9667 173.812 38.9027 174.064C38.8387 174.312 38.8067 174.594 38.8067 174.91C38.8067 175.238 38.8407 175.53 38.9087 175.786C38.9807 176.042 39.0827 176.258 39.2147 176.434C39.3467 176.606 39.5067 176.738 39.6947 176.83C39.8827 176.918 40.0947 176.962 40.3307 176.962C40.5667 176.962 40.7567 176.934 40.9007 176.878C41.0487 176.818 41.1727 176.754 41.2727 176.686C41.3727 176.614 41.4587 176.55 41.5307 176.494C41.6067 176.434 41.6907 176.404 41.7827 176.404C41.9027 176.404 41.9927 176.45 42.0527 176.542L42.4787 177.082C42.3147 177.274 42.1367 177.436 41.9447 177.568C41.7527 177.696 41.5527 177.8 41.3447 177.88C41.1407 177.956 40.9287 178.01 40.7087 178.042C40.4927 178.074 40.2767 178.09 40.0607 178.09C39.6807 178.09 39.3227 178.02 38.9867 177.88C38.6507 177.736 38.3567 177.528 38.1047 177.256C37.8527 176.984 37.6527 176.652 37.5047 176.26C37.3607 175.864 37.2887 175.414 37.2887 174.91C37.2887 174.458 37.3527 174.04 37.4807 173.656C37.6127 173.268 37.8047 172.934 38.0567 172.654C38.3087 172.37 38.6207 172.148 38.9927 171.988C39.3647 171.828 39.7927 171.748 40.2767 171.748C40.7367 171.748 41.1387 171.822 41.4827 171.97C41.8307 172.118 42.1427 172.33 42.4187 172.606L42.0287 173.146ZM44.9438 171.844V178H43.4558V171.844H44.9438ZM45.1478 170.05C45.1478 170.178 45.1218 170.298 45.0698 170.41C45.0178 170.522 44.9478 170.62 44.8598 170.704C44.7758 170.788 44.6758 170.856 44.5598 170.908C44.4438 170.956 44.3198 170.98 44.1878 170.98C44.0598 170.98 43.9378 170.956 43.8218 170.908C43.7098 170.856 43.6118 170.788 43.5278 170.704C43.4438 170.62 43.3758 170.522 43.3238 170.41C43.2758 170.298 43.2518 170.178 43.2518 170.05C43.2518 169.918 43.2758 169.794 43.3238 169.678C43.3758 169.562 43.4438 169.462 43.5278 169.378C43.6118 169.294 43.7098 169.228 43.8218 169.18C43.9378 169.128 44.0598 169.102 44.1878 169.102C44.3198 169.102 44.4438 169.128 44.5598 169.18C44.6758 169.228 44.7758 169.294 44.8598 169.378C44.9478 169.462 45.0178 169.562 45.0698 169.678C45.1218 169.794 45.1478 169.918 45.1478 170.05ZM50.4207 174.214C50.4207 174.022 50.3927 173.842 50.3367 173.674C50.2847 173.502 50.2047 173.352 50.0967 173.224C49.9887 173.096 49.8507 172.996 49.6827 172.924C49.5187 172.848 49.3267 172.81 49.1067 172.81C48.6787 172.81 48.3407 172.932 48.0927 173.176C47.8487 173.42 47.6927 173.766 47.6247 174.214H50.4207ZM47.5947 175.108C47.6187 175.424 47.6747 175.698 47.7627 175.93C47.8507 176.158 47.9667 176.348 48.1107 176.5C48.2547 176.648 48.4247 176.76 48.6207 176.836C48.8207 176.908 49.0407 176.944 49.2807 176.944C49.5207 176.944 49.7267 176.916 49.8987 176.86C50.0747 176.804 50.2267 176.742 50.3547 176.674C50.4867 176.606 50.6007 176.544 50.6967 176.488C50.7967 176.432 50.8927 176.404 50.9847 176.404C51.1087 176.404 51.2007 176.45 51.2607 176.542L51.6867 177.082C51.5227 177.274 51.3387 177.436 51.1347 177.568C50.9307 177.696 50.7167 177.8 50.4927 177.88C50.2727 177.956 50.0467 178.01 49.8147 178.042C49.5867 178.074 49.3647 178.09 49.1487 178.09C48.7207 178.09 48.3227 178.02 47.9547 177.88C47.5867 177.736 47.2667 177.526 46.9947 177.25C46.7227 176.97 46.5087 176.626 46.3527 176.218C46.1967 175.806 46.1187 175.33 46.1187 174.79C46.1187 174.37 46.1867 173.976 46.3227 173.608C46.4587 173.236 46.6527 172.914 46.9047 172.642C47.1607 172.366 47.4707 172.148 47.8347 171.988C48.2027 171.828 48.6167 171.748 49.0767 171.748C49.4647 171.748 49.8227 171.81 50.1507 171.934C50.4787 172.058 50.7607 172.24 50.9967 172.48C51.2327 172.716 51.4167 173.008 51.5487 173.356C51.6847 173.7 51.7527 174.094 51.7527 174.538C51.7527 174.762 51.7287 174.914 51.6807 174.994C51.6327 175.07 51.5407 175.108 51.4047 175.108H47.5947ZM51.1827 170.992H50.1927C50.1367 170.992 50.0787 170.982 50.0187 170.962C49.9627 170.938 49.9067 170.898 49.8507 170.842L49.2627 170.218C49.2187 170.178 49.1767 170.13 49.1367 170.074C49.0927 170.13 49.0507 170.178 49.0107 170.218L48.4107 170.842C48.3627 170.894 48.3087 170.932 48.2487 170.956C48.1887 170.98 48.1287 170.992 48.0687 170.992H47.0427L48.4167 169.324H49.8087L51.1827 170.992ZM54.2508 172.6C54.3748 172.476 54.5048 172.362 54.6408 172.258C54.7808 172.15 54.9268 172.06 55.0788 171.988C55.2348 171.912 55.4008 171.854 55.5768 171.814C55.7528 171.77 55.9448 171.748 56.1528 171.748C56.4888 171.748 56.7868 171.806 57.0468 171.922C57.3068 172.034 57.5228 172.194 57.6948 172.402C57.8708 172.606 58.0028 172.852 58.0908 173.14C58.1828 173.424 58.2288 173.738 58.2288 174.082V178H56.7468V174.082C56.7468 173.706 56.6608 173.416 56.4888 173.212C56.3168 173.004 56.0548 172.9 55.7028 172.9C55.4468 172.9 55.2068 172.958 54.9828 173.074C54.7588 173.19 54.5468 173.348 54.3468 173.548V178H52.8648V171.844H53.7708C53.9628 171.844 54.0888 171.934 54.1488 172.114L54.2508 172.6ZM64.0483 173.146C64.0043 173.202 63.9603 173.246 63.9163 173.278C63.8763 173.31 63.8163 173.326 63.7363 173.326C63.6603 173.326 63.5863 173.304 63.5143 173.26C63.4423 173.212 63.3563 173.16 63.2563 173.104C63.1563 173.044 63.0363 172.992 62.8963 172.948C62.7603 172.9 62.5903 172.876 62.3863 172.876C62.1263 172.876 61.8983 172.924 61.7023 173.02C61.5063 173.112 61.3423 173.246 61.2103 173.422C61.0823 173.598 60.9863 173.812 60.9223 174.064C60.8583 174.312 60.8263 174.594 60.8263 174.91C60.8263 175.238 60.8603 175.53 60.9283 175.786C61.0003 176.042 61.1023 176.258 61.2343 176.434C61.3663 176.606 61.5263 176.738 61.7143 176.83C61.9023 176.918 62.1143 176.962 62.3503 176.962C62.5863 176.962 62.7763 176.934 62.9203 176.878C63.0683 176.818 63.1923 176.754 63.2923 176.686C63.3923 176.614 63.4783 176.55 63.5503 176.494C63.6263 176.434 63.7103 176.404 63.8023 176.404C63.9223 176.404 64.0123 176.45 64.0723 176.542L64.4983 177.082C64.3343 177.274 64.1563 177.436 63.9643 177.568C63.7723 177.696 63.5723 177.8 63.3643 177.88C63.1603 177.956 62.9483 178.01 62.7283 178.042C62.5123 178.074 62.2963 178.09 62.0803 178.09C61.7003 178.09 61.3423 178.02 61.0063 177.88C60.6703 177.736 60.3763 177.528 60.1243 177.256C59.8723 176.984 59.6723 176.652 59.5243 176.26C59.3803 175.864 59.3083 175.414 59.3083 174.91C59.3083 174.458 59.3723 174.04 59.5003 173.656C59.6323 173.268 59.8243 172.934 60.0763 172.654C60.3283 172.37 60.6403 172.148 61.0123 171.988C61.3843 171.828 61.8123 171.748 62.2962 171.748C62.7563 171.748 63.1583 171.822 63.5023 171.97C63.8503 172.118 64.1623 172.33 64.4383 172.606L64.0483 173.146ZM66.9633 171.844V178H65.4753V171.844H66.9633ZM67.1673 170.05C67.1673 170.178 67.1413 170.298 67.0893 170.41C67.0373 170.522 66.9673 170.62 66.8793 170.704C66.7953 170.788 66.6953 170.856 66.5793 170.908C66.4633 170.956 66.3393 170.98 66.2073 170.98C66.0793 170.98 65.9573 170.956 65.8413 170.908C65.7293 170.856 65.6313 170.788 65.5473 170.704C65.4633 170.62 65.3953 170.522 65.3433 170.41C65.2953 170.298 65.2713 170.178 65.2713 170.05C65.2713 169.918 65.2953 169.794 65.3433 169.678C65.3953 169.562 65.4633 169.462 65.5473 169.378C65.6313 169.294 65.7293 169.228 65.8413 169.18C65.9573 169.128 66.0793 169.102 66.2073 169.102C66.3393 169.102 66.4633 169.128 66.5793 169.18C66.6953 169.228 66.7953 169.294 66.8793 169.378C66.9673 169.462 67.0373 169.562 67.0893 169.678C67.1413 169.794 67.1673 169.918 67.1673 170.05ZM71.7262 175.372C71.2982 175.392 70.9382 175.43 70.6462 175.486C70.3542 175.538 70.1202 175.606 69.9442 175.69C69.7682 175.774 69.6422 175.872 69.5662 175.984C69.4902 176.096 69.4522 176.218 69.4522 176.35C69.4522 176.61 69.5282 176.796 69.6802 176.908C69.8362 177.02 70.0382 177.076 70.2862 177.076C70.5902 177.076 70.8522 177.022 71.0722 176.914C71.2962 176.802 71.5142 176.634 71.7262 176.41V175.372ZM68.3302 172.702C69.0382 172.054 69.8902 171.73 70.8862 171.73C71.2462 171.73 71.5682 171.79 71.8522 171.91C72.1362 172.026 72.3762 172.19 72.5722 172.402C72.7682 172.61 72.9162 172.86 73.0162 173.152C73.1202 173.444 73.1722 173.764 73.1722 174.112V178H72.5002C72.3602 178 72.2522 177.98 72.1762 177.94C72.1002 177.896 72.0402 177.81 71.9962 177.682L71.8642 177.238C71.7082 177.378 71.5562 177.502 71.4082 177.61C71.2602 177.714 71.1062 177.802 70.9462 177.874C70.7862 177.946 70.6142 178 70.4302 178.036C70.2502 178.076 70.0502 178.096 69.8302 178.096C69.5702 178.096 69.3302 178.062 69.1102 177.994C68.8902 177.922 68.7002 177.816 68.5402 177.676C68.3802 177.536 68.2562 177.362 68.1682 177.154C68.0802 176.946 68.0362 176.704 68.0362 176.428C68.0362 176.272 68.0622 176.118 68.1142 175.966C68.1662 175.81 68.2502 175.662 68.3662 175.522C68.4862 175.382 68.6402 175.25 68.8282 175.126C69.0162 175.002 69.2462 174.894 69.5182 174.802C69.7942 174.71 70.1142 174.636 70.4782 174.58C70.8422 174.52 71.2582 174.484 71.7262 174.472V174.112C71.7262 173.7 71.6382 173.396 71.4622 173.2C71.2862 173 71.0322 172.9 70.7002 172.9C70.4602 172.9 70.2602 172.928 70.1002 172.984C69.9442 173.04 69.8062 173.104 69.6862 173.176C69.5662 173.244 69.4562 173.306 69.3562 173.362C69.2602 173.418 69.1522 173.446 69.0322 173.446C68.9282 173.446 68.8402 173.42 68.7682 173.368C68.6962 173.312 68.6382 173.248 68.5942 173.176L68.3302 172.702Z" fill="black"/>
<path fill-rule="evenodd" clip-rule="evenodd" d="M149.245 7.14657C144.207 7.81894 139.167 11.4618 136.358 16.4619C134.136 20.4163 133.364 23.8395 133.546 28.9237C133.648 31.7738 133.783 32.6326 134.453 34.7042C134.886 36.0424 135.682 37.8967 136.221 38.8248C136.761 39.7529 137.205 40.6083 137.209 40.7254C137.213 40.8425 136.042 40.9385 134.606 40.9385C130.804 40.9385 131.002 40.5287 131.002 48.4059C131.002 53.676 131.067 54.8425 131.389 55.3683L131.776 56H152.007H172.238L172.625 55.3683C172.947 54.8425 173.012 53.676 173.012 48.4059C173.012 40.4313 173.291 40.9385 168.911 40.9385C167.202 40.9385 165.803 40.8661 165.803 40.7774C165.803 40.689 166.074 40.2093 166.405 39.7117C167.383 38.2405 168.707 34.9736 169.19 32.8394C169.784 30.2156 169.789 25.3005 169.202 22.7511C166.837 12.4951 158.43 5.92062 149.245 7.14657ZM157.26 10.2069C167.225 14.6841 171.028 28.0436 165.194 38.0757C164.551 39.1815 163.911 40.086 163.772 40.086C163.632 40.086 163.181 39.8115 162.769 39.4759C162.357 39.1402 160.942 38.4366 159.624 37.912C157.151 36.9276 156.509 36.3604 156.224 34.908C156.112 34.3385 156.237 33.8886 156.696 33.2003C157.82 31.5149 159.105 28.0323 159.357 25.9851C159.489 24.9097 159.71 23.1342 159.848 22.0392C160.267 18.6996 159.727 17.0675 158.203 17.0675C157.757 17.0675 156.124 16.6089 154.575 16.0485C150.205 14.4676 148.451 14.7634 145.358 17.6029C143.333 19.4615 143.058 20.2299 143.058 24.0299C143.058 26.7586 143.147 27.4341 143.763 29.3457C144.151 30.5504 144.914 32.2634 145.459 33.1529C146.985 35.644 146.505 36.7284 143.404 37.7986C142.393 38.147 141.021 38.7697 140.354 39.182L139.142 39.9317L138.414 38.943C137.428 37.6045 136.049 34.2291 135.602 32.0602C135.126 29.755 135.127 25.5986 135.603 23.4502C136.747 18.2852 140.1 13.438 144.125 11.1276C147.068 9.43847 148.443 9.10968 152.131 9.21227C154.94 9.29042 155.433 9.3859 157.26 10.2069ZM154.193 18.0622C155.638 18.6092 157.105 19.0568 157.454 19.0568C158.241 19.0568 158.525 20.0511 158.118 21.3836C157.411 23.704 156.282 24.5633 153.996 24.5215C152.315 24.4908 151.076 23.9861 149.898 22.8531C148.866 21.8602 148.529 22.0989 147.726 24.3919C147.285 25.6528 146.972 26.1703 146.636 26.1928C145.027 26.3008 145.074 26.3281 144.851 25.1587C144.733 24.5377 144.695 23.3317 144.767 22.4783C144.887 21.0472 144.999 20.8175 146.215 19.5197C147.775 17.8541 149.141 17.0823 150.543 17.0738C151.105 17.0704 152.747 17.5151 154.193 18.0622ZM152.634 26.4471C154.156 26.7773 155.87 26.5821 156.949 25.9561L157.664 25.5406L157.488 26.6324C157.072 29.221 154.725 33.3149 153.109 34.27C152.089 34.8733 150.063 34.7969 148.887 34.1106C147.803 33.4786 146.617 31.8147 145.889 29.903C145.631 29.2258 145.42 28.6183 145.42 28.5532C145.42 28.4881 145.874 28.4347 146.43 28.4347C147.839 28.4347 148.253 28.1002 148.869 26.4639L149.405 25.0387L150.339 25.5952C150.853 25.9012 151.886 26.2846 152.634 26.4471ZM150.08 36.7364C151.323 37.024 153.135 36.8174 154.431 36.2405C154.717 36.1132 154.866 36.1811 154.866 36.4386C154.866 36.6543 155.208 37.3062 155.628 37.8873C156.206 38.6898 156.73 39.0519 157.803 39.3917C159.594 39.959 160.643 40.396 160.944 40.6998C161.073 40.8311 156.788 40.9385 151.421 40.9385C146.053 40.9385 141.718 40.8337 141.787 40.7055C141.857 40.5773 142.562 40.2429 143.356 39.9621C146.03 39.0152 146.849 38.4747 147.457 37.255C147.845 36.4781 148.15 36.1604 148.403 36.2709C148.608 36.3607 149.363 36.5701 150.08 36.7364ZM171.272 48.4693V54.0108H152.007H132.742V48.4693V42.9278H152.007H171.272V48.4693ZM136.347 46.6198C136.048 47.2814 135.74 47.5104 134.96 47.6531L133.957 47.8367L134.592 48.5946C135.067 49.1607 135.228 49.654 135.228 50.5406V51.7282L136.105 51.25C136.928 50.8012 137.026 50.8015 137.697 51.2545C138.688 51.9243 138.735 51.8879 138.553 50.5855C138.413 49.5869 138.481 49.3275 139.061 48.6352L139.73 47.8367L138.698 47.6477C137.85 47.4928 137.615 47.3081 137.386 46.6144C137.035 45.5513 136.83 45.5522 136.347 46.6198ZM143.805 46.6198C143.505 47.2814 143.198 47.5104 142.417 47.6531L141.414 47.8367L142.05 48.5946C142.524 49.1607 142.685 49.654 142.685 50.5406V51.7282L143.562 51.25C144.385 50.8012 144.484 50.8015 145.154 51.2545C146.146 51.9243 146.192 51.8879 146.01 50.5855C145.87 49.5869 145.938 49.3275 146.518 48.6352L147.187 47.8367L146.155 47.6477C145.307 47.4928 145.073 47.3081 144.844 46.6144C144.493 45.5513 144.288 45.5522 143.805 46.6198ZM151.262 46.6198C150.963 47.2814 150.655 47.5104 149.875 47.6531L148.872 47.8367L149.507 48.5946C149.982 49.1607 150.143 49.654 150.143 50.5406V51.7282L151.02 51.25C151.843 50.8012 151.941 50.8015 152.612 51.2545C153.603 51.9243 153.65 51.8879 153.468 50.5855C153.328 49.5869 153.396 49.3275 153.976 48.6352L154.645 47.8367L153.613 47.6477C152.765 47.4928 152.53 47.3081 152.301 46.6144C151.95 45.5513 151.745 45.5522 151.262 46.6198ZM159.17 46.6144C158.941 47.3081 158.707 47.4928 157.859 47.6477L156.826 47.8367L157.496 48.6352C158.076 49.3275 158.143 49.5869 158.004 50.5855C157.822 51.8879 157.868 51.9243 158.86 51.2545C159.53 50.8015 159.629 50.8012 160.452 51.25L161.329 51.7282V50.5406C161.329 49.654 161.49 49.1607 161.964 48.5946L162.6 47.8367L161.597 47.6531C160.816 47.5104 160.508 47.2814 160.209 46.6198C159.726 45.5522 159.521 45.5513 159.17 46.6144ZM166.628 46.6144C166.399 47.3081 166.164 47.4928 165.316 47.6477L164.284 47.8367L164.953 48.6352C165.533 49.3275 165.601 49.5869 165.461 50.5855C165.279 51.8879 165.326 51.9243 166.317 51.2545C166.988 50.8015 167.086 50.8012 167.909 51.25L168.786 51.7282V50.5406C168.786 49.654 168.947 49.1607 169.422 48.5946L170.057 47.8367L169.054 47.6531C168.273 47.5104 167.966 47.2814 167.667 46.6198C167.184 45.5522 166.979 45.5513 166.628 46.6144Z" fill="black"/>
<path fill-rule="evenodd" clip-rule="evenodd" d="M32.9042 108.4C32.6358 108.696 32.5275 109.153 32.4842 110.171C32.4067 111.998 32.6486 112.445 33.8421 112.676L34.7564 112.854L34.6995 113.692C34.6431 114.523 34.632 114.535 33.4988 114.994L32.3553 115.458L31.7759 114.911C30.4264 113.636 29.7039 113.683 28.275 115.139C26.8524 116.589 26.793 117.281 27.9811 118.556C28.4415 119.05 28.445 119.076 28.1282 119.688C25.4352 124.896 27.4558 131.231 32.6373 133.824C33.4749 134.243 34.5487 134.644 35.0236 134.716L35.8868 134.845V135.972C35.8868 137.555 36.2259 137.865 37.9619 137.865C39.1792 137.865 39.287 137.899 39.4934 138.352C39.8343 139.1 39.7804 139.253 38.8542 140.162C37.5715 141.421 37.6385 141.83 39.4172 143.597C41.2085 145.376 41.6021 145.434 42.941 144.115C43.81 143.259 43.8793 143.228 44.4638 143.432C45.0727 143.644 45.076 143.653 45.076 144.967C45.076 146.916 45.2651 147.054 47.9476 147.054C50.6301 147.054 50.8192 146.916 50.8192 144.967C50.8192 143.653 50.8224 143.644 51.4314 143.432C52.0159 143.228 52.0852 143.259 52.9541 144.115C54.2931 145.434 54.6867 145.376 56.478 143.597C58.2567 141.83 58.3237 141.421 57.041 140.162C56.1148 139.253 56.0608 139.1 56.4018 138.352C56.6082 137.899 56.7159 137.865 57.9333 137.865C59.8649 137.865 60.0083 137.668 60.0083 135.023C60.0083 132.45 59.8919 132.293 57.8627 132.133C56.5775 132.032 56.4866 131.994 56.3197 131.491C56.1604 131.012 56.2327 130.86 57.0224 130.016C58.3361 128.611 58.2724 128.19 56.4807 126.433C54.7215 124.708 54.4399 124.67 53.0564 125.979C52.0754 126.906 52.0534 126.916 51.4404 126.658C50.829 126.401 50.8192 126.377 50.8192 125.134C50.8192 124.049 50.7531 123.806 50.3492 123.402C49.948 123.001 49.7 122.932 48.6508 122.932H47.4223L47.3061 122.214C47.11 121.001 45.9091 118.769 44.8407 117.632C43.6616 116.377 42.3206 115.468 40.9122 114.967L39.9071 114.611V113.715V112.82L40.674 112.69C41.7428 112.51 42.0129 112.043 42.0129 110.376C42.0129 109.283 41.9335 108.908 41.6161 108.504L41.2194 108H37.2426C33.4531 108 33.249 108.019 32.9042 108.4ZM40.4814 110.393V111.254H37.2269H33.9724V110.393V109.532H37.2269H40.4814V110.393ZM38.3756 113.552V114.318H37.2269H36.0783V113.552V112.786H37.2269H38.3756V113.552ZM47.4981 113.568C47.2515 113.92 47.1818 114.475 47.1818 116.083C47.1818 118.588 47.3289 118.819 49.0327 118.997C55.0701 119.626 59.7784 122.819 62.3154 128.006C63.6153 130.663 63.9162 132.021 63.9057 135.185C63.8982 137.421 63.8281 137.996 63.3861 139.455C62.4969 142.39 61.1997 144.511 59.0146 146.603C53.4693 151.912 45.3174 152.578 38.8639 148.25C37.2371 147.159 36.7483 147.106 36.7483 148.024C36.7483 149.275 42.0794 151.955 45.2963 152.321C47.3099 152.55 47.1818 152.433 47.1818 154.045V155.477H46.4371C44.5227 155.477 41.0354 154.521 38.7585 153.373C34.9247 151.438 31.4973 148.022 29.5952 144.238C28.4592 141.979 27.4884 138.433 27.4702 136.477L27.4635 135.759H28.995H30.5265V136.512C30.5265 138.607 31.7339 142.197 33.1845 144.414C34.2146 145.988 34.5776 146.348 35.0436 146.256C35.8214 146.103 35.7812 145.616 34.8868 144.354C33.2312 142.017 32.3611 139.757 32.0209 136.907C31.738 134.539 31.5735 134.354 29.6593 134.258C27.5831 134.153 26.5641 134.344 26.195 134.907C25.5962 135.821 26.4511 140.653 27.7445 143.664C30.7203 150.59 37.0495 155.504 44.5645 156.722C56.2705 158.621 67.517 150.578 69.596 138.822C69.9588 136.77 69.9123 132.762 69.5032 130.82C68.5709 126.395 66.5747 122.668 63.5071 119.625C61.4319 117.566 60.0545 116.57 57.6153 115.362C55.0473 114.09 52.3995 113.371 49.7475 113.224C47.8758 113.12 47.8042 113.131 47.4981 113.568ZM53.1165 115.203C61.202 117.232 67.5295 124.569 68.3467 132.863L68.4811 134.227H66.9525H65.4236L65.2999 132.895C65.0323 130.017 63.5596 126.582 61.4895 124.01C58.7019 120.546 54.3149 118.127 49.9755 117.663L48.7134 117.527V116.003V114.479L50.0056 114.613C50.7164 114.686 52.1162 114.952 53.1165 115.203ZM30.6377 115.864L31.0608 116.261L30.2099 117.045L29.3589 117.83L28.9448 117.416L28.5308 117.002L29.2802 116.234C29.6926 115.812 30.0715 115.466 30.1222 115.466C30.1731 115.466 30.405 115.645 30.6377 115.864ZM38.9884 115.874C43.8404 116.909 46.9661 121.58 45.9687 126.307C45.6047 128.032 44.8989 129.429 43.7966 130.608C39.0408 135.692 30.6088 133.716 28.7017 127.07C28.4651 126.246 28.3983 125.443 28.453 124.081C28.5206 122.401 28.5964 122.081 29.2326 120.793C31.0438 117.129 35.154 115.056 38.9884 115.874ZM35.4082 117.059C32.367 117.838 30.0816 120.337 29.6013 123.411C29.0756 126.775 30.8857 130.175 33.9719 131.62C35.0014 132.102 35.5149 132.216 36.9398 132.276C38.8873 132.359 40.0775 132.025 41.7248 130.934C43.4813 129.77 45.344 126.492 44.6939 125.709C44.1843 125.095 43.6856 125.443 43.1838 126.761C42.8338 127.681 42.4278 128.289 41.6258 129.092C40.7039 130.015 40.3329 130.241 39.1513 130.6C36.0191 131.551 32.9105 130.166 31.4579 127.17C30.8355 125.887 30.8296 123.413 31.4456 122.071C31.9991 120.865 33.213 119.603 34.451 118.947C35.2911 118.501 35.6309 118.439 37.2269 118.436C38.7443 118.434 39.1946 118.507 39.944 118.876C41.2391 119.514 42.3468 120.679 43.0138 122.104C43.6304 123.422 43.9471 123.696 44.4084 123.313C44.8474 122.949 44.7498 122.231 44.0935 120.999C42.455 117.925 38.6932 116.219 35.4082 117.059ZM36.6909 119.333C36.5494 119.475 36.4612 120.168 36.4612 121.137C36.4612 122.631 36.4319 122.741 35.8868 123.286C34.5192 124.654 35.7593 126.852 37.694 126.489C39.153 126.215 39.6548 124.374 38.567 123.286C38.0266 122.745 37.9927 122.623 37.9927 121.21C37.9927 120.385 37.9404 119.573 37.8765 119.406C37.7396 119.05 37.019 119.005 36.6909 119.333ZM37.7055 124.56C37.7055 124.982 37.1084 125.188 36.7935 124.873C36.6528 124.732 36.6679 124.58 36.844 124.368C37.1773 123.967 37.7055 124.084 37.7055 124.56ZM49.2877 125.508C49.2877 126.977 49.5488 127.425 50.6768 127.894C52.1129 128.491 52.4912 128.424 53.5432 127.388L54.4615 126.484L55.4519 127.474L56.4422 128.464L55.5451 129.423C54.5276 130.511 54.46 130.885 55.0376 132.233C55.5665 133.467 55.8533 133.64 57.3845 133.647L58.6851 133.653L58.6288 135.041L58.5725 136.429L57.207 136.485C55.6762 136.547 55.4812 136.68 54.9648 138.012C54.4811 139.26 54.5559 139.609 55.5095 140.545C55.9833 141.01 56.371 141.477 56.371 141.583C56.371 141.689 55.9674 142.186 55.4743 142.687L54.5776 143.597L53.5713 142.645C53.0179 142.122 52.3902 141.694 52.1761 141.694C51.9623 141.694 51.3106 141.904 50.7281 142.162C49.5117 142.7 49.2877 143.091 49.2877 144.673V145.714H47.9476H46.6075V144.673C46.6075 143.091 46.3835 142.7 45.1671 142.162C44.5846 141.904 43.9344 141.694 43.7223 141.694C43.5102 141.694 42.9051 142.097 42.3776 142.591L41.4185 143.488L40.4284 142.497L39.4381 141.507L40.3426 140.589C41.3366 139.579 41.4111 139.253 40.9303 138.012C40.414 136.68 40.219 136.547 38.6882 136.485L37.3226 136.429L37.2646 135.734L37.2066 135.04L38.3176 134.904C39.2564 134.789 40.5936 134.425 41.8215 133.952C42.0589 133.86 42.11 134.065 42.1169 135.135C42.1311 137.363 43.2964 139.224 45.3631 140.319C46.1817 140.753 46.5558 140.827 47.9476 140.827C49.3367 140.827 49.7161 140.753 50.5397 140.32C52.241 139.427 53.8386 137.297 53.3675 136.55C52.9953 135.96 52.4794 136.203 51.7423 137.317C50.9344 138.538 50.1599 139.094 48.8573 139.386C46.928 139.818 44.9332 138.853 44.037 137.055C42.8765 134.726 43.7744 132.136 46.1211 131.043C48.3678 129.997 50.8163 130.919 52.0318 133.27C52.3649 133.914 52.5891 134.132 52.9197 134.132C53.6498 134.132 53.7838 133.655 53.3271 132.684C52.679 131.305 51.8583 130.463 50.5215 129.805C49.4849 129.294 49.0595 129.194 47.9438 129.194C47.2088 129.194 46.6075 129.182 46.6075 129.167C46.6075 129.153 46.79 128.627 47.0128 127.999C47.2356 127.371 47.4629 126.319 47.5176 125.66L47.6172 124.464H48.4524H49.2877V125.508ZM47.0582 132.133C45.6786 132.546 44.6925 134.197 44.963 135.639C45.1116 136.431 45.8431 137.374 46.6207 137.776C48.4051 138.699 50.7355 137.392 50.9484 135.35C51.1674 133.247 49.0855 131.526 47.0582 132.133ZM48.9747 133.858C49.3476 134.152 49.4791 134.429 49.4791 134.924C49.4791 135.813 49.2308 136.231 48.5292 136.522C47.8484 136.804 46.9123 136.52 46.6002 135.937C45.7529 134.353 47.5758 132.758 48.9747 133.858ZM68.3408 137.209C68.0442 140.373 66.7057 143.984 64.8148 146.719C63.7395 148.275 61.6111 150.463 60.0083 151.661C57.2838 153.697 52.4204 155.477 49.5829 155.477H48.7134V154.045C48.7134 152.433 48.5853 152.55 50.5988 152.321C51.8595 152.178 54.4171 151.385 55.7009 150.74C59.4666 148.847 62.7415 145.29 64.2057 141.502C64.8114 139.935 65.3687 137.508 65.3687 136.437V135.759H66.9226H68.4767L68.3408 137.209Z" fill="black"/>
<path fill-rule="evenodd" clip-rule="evenodd" d="M32.3158 15.2969C31.7606 15.8636 32.0347 16.3829 33.8595 18.2222C34.8684 19.2392 35.806 20.279 35.9429 20.5328C36.1569 20.9299 35.6298 21.5716 32.1697 25.1261C29.9576 27.3986 28.1476 29.423 28.1476 29.6249C28.1476 30.1011 28.6286 30.5855 29.1017 30.5855C29.3067 30.5855 31.0275 29.0029 32.9258 27.0686L36.3769 23.5515L37.1696 24.3092C37.6056 24.7261 38.6166 25.3272 39.4163 25.6451C40.2161 25.963 41.1234 26.3875 41.4324 26.5887L41.9946 26.9541L39.9446 29.0789C37.5814 31.5288 37.3562 31.9006 37.3574 33.3523C37.3599 36.1715 40.352 37.9416 42.6736 36.4968C43.1321 36.2113 44.0116 35.5439 44.6278 35.0135C45.6541 34.1301 45.8689 34.0489 47.1811 34.0489H48.6138L50.3795 35.8393C51.8631 37.3436 52.2123 37.5866 52.5661 37.3602C53.394 36.8305 53.2187 36.0357 51.9945 34.7666C51.3588 34.1078 50.8215 33.3325 50.8007 33.044C50.7416 32.2261 50.2595 32.0777 47.6479 32.0735L45.2167 32.0698L43.6117 33.4297C41.7423 35.0137 41.1154 35.3042 40.2386 34.9922C39.6112 34.7688 39.0528 33.8968 39.0528 33.1395C39.0528 32.9243 39.9994 31.7606 41.1566 30.5536L43.2603 28.359H48.1919H53.1233L54.7961 29.3265C57.4306 30.8504 57.1987 30.886 59.537 28.5999L61.6025 26.5807L62.6263 27.5181C63.1895 28.0337 65.4205 30.1842 67.5841 32.2974L71.5182 36.1393L70.6739 37.0218C69.707 38.0329 69.6101 38.6117 70.3414 39.0113C70.7832 39.2527 70.9732 39.1716 71.7349 38.4151C72.5382 37.6172 72.7084 37.5522 73.6455 37.6821C74.6711 37.8241 74.6805 37.8181 76.8565 35.6446C79.0072 33.4962 79.3213 32.952 78.7479 32.3667C78.2126 31.8202 77.7825 32.0589 75.8568 33.9717L73.9424 35.8736L73.0372 35.0085C72.5395 34.5328 69.8112 31.8758 66.9744 29.1046L61.8164 24.0655L65.5809 20.1957C67.6512 18.0671 69.3452 16.2023 69.3452 16.0516C69.3452 15.6877 68.6584 15 68.2951 15C67.8756 15 60.2119 22.9439 60.0328 23.5641C59.9497 23.8523 59.9849 24.3651 60.1109 24.7038C60.3169 25.2567 60.1865 25.4752 58.8383 26.8393C58.0122 27.6752 57.2089 28.359 57.053 28.359C56.897 28.359 56.0822 27.9416 55.242 27.4313L53.7143 26.5036L48.8986 26.4271L44.0831 26.3504L42.8401 25.4064C42.1567 24.8874 40.9431 24.2179 40.1434 23.9188C38.0224 23.126 37.6451 22.6866 37.7873 21.1741L37.9032 19.9431L35.5246 17.4714C34.2165 16.1123 33.0247 15 32.8763 15C32.728 15 32.4758 15.1336 32.3158 15.2969ZM17.4241 28.3788C17.191 28.5176 17 28.826 17 29.0648C17 29.3033 18.2914 30.8007 19.87 32.3921C22.4107 34.9539 22.8353 35.2858 23.5713 35.2858C24.2864 35.2858 24.6647 35.555 26.275 37.2086C28.0998 39.0823 28.1478 39.1627 28.1582 40.3628C28.1699 41.7209 28.6221 43.2495 29.2073 43.9098C29.5532 44.2997 29.5338 44.4429 28.988 45.5433C28.2656 47.0002 28.2569 47.2186 28.8695 48.5102C29.3714 49.5691 30.4122 50.3765 31.2747 50.3765C31.6288 50.3765 31.7827 50.5336 31.7827 50.8951C31.7827 52.0499 32.8945 53.197 34.4862 53.6839C34.7067 53.7514 34.9609 54.1485 35.0508 54.5663C35.2605 55.541 36.4172 56.7218 37.372 56.9358C37.7813 57.0276 38.1702 57.2871 38.2364 57.5122C38.794 59.4114 39.8395 60.2721 41.5887 60.2721C42.6145 60.2721 42.8367 60.1565 44.0363 58.9983L45.3556 57.7247L46.789 59.1207C48.8016 61.0803 49.7308 61.3824 51.3435 60.6011C52.2787 60.1481 53.1061 58.9785 53.1075 58.1074C53.1082 57.6881 53.2493 57.5508 53.6785 57.5508C54.6471 57.5508 55.861 56.5227 56.2548 55.3683C56.5175 54.5982 56.778 54.2749 57.2241 54.1653C58.2778 53.906 59.1149 53.13 59.5261 52.0306C59.8579 51.1437 60.0883 50.9107 60.9305 50.6111C62.0648 50.2078 63.0444 48.9625 63.0444 47.9239C63.0444 47.4259 63.7159 46.5927 65.9524 44.3155C67.5519 42.687 68.8605 41.1621 68.8605 40.9266C68.8605 40.691 68.6342 40.3746 68.3574 40.2235C67.9064 39.9771 67.5718 40.2329 65.1384 42.6838L62.4225 45.4191L59.0378 41.9525C56.3326 39.1817 55.5362 38.4997 55.0717 38.5556C54.7518 38.5942 54.3711 38.8198 54.2254 39.0573C53.9996 39.4256 54.4823 40.0273 57.5009 43.1392C59.4478 45.1467 61.1127 46.9999 61.1999 47.2572C61.4561 48.0105 60.732 48.8922 59.8571 48.8922C59.2394 48.8922 58.7276 48.5154 56.9995 46.7894C55.8418 45.6329 54.7145 44.6866 54.4947 44.6866C54.2749 44.6866 53.9761 44.9132 53.8309 45.19C53.5983 45.6339 53.8256 45.9666 55.7611 48.0125C58.0723 50.4557 58.3794 51.1452 57.512 51.9462C56.6592 52.7342 56.0485 52.4502 53.8287 50.2323C52.1874 48.5926 51.574 48.1278 51.1361 48.1914C50.0056 48.3556 50.3255 49.1087 52.4806 51.3569C54.1813 53.1312 54.5625 53.668 54.5625 54.289C54.5625 55.0603 53.8588 55.8191 53.1431 55.8191C52.9548 55.8191 51.8001 54.8172 50.5768 53.5926C49.3537 52.368 48.1725 51.3661 47.9522 51.3661C47.3929 51.3661 46.9713 52.2416 47.2669 52.7886C47.3958 53.0268 48.3812 54.1094 49.4567 55.1949C50.5322 56.2802 51.4121 57.3408 51.4121 57.5518C51.4121 58.2697 50.6817 59.0351 49.9966 59.0351C49.5202 59.0351 48.9841 58.6717 48.0763 57.7334C46.8225 56.4373 46.8176 56.4259 46.962 55.1801C47.0684 54.264 46.9989 53.7146 46.7035 53.1312C46.251 52.2381 45.0238 51.3683 44.2139 51.3671C43.8158 51.3663 43.5591 51.0875 43.2051 50.2704C42.9043 49.5762 42.4562 49.03 41.9822 48.7796C41.3265 48.4336 41.2334 48.2557 41.2302 47.3396C41.2256 45.9963 40.8282 45.2165 39.7762 44.4865C39.1023 44.0189 38.7034 43.9219 37.8024 44.0075C36.8013 44.1028 36.6435 44.0491 36.4138 43.5343C35.7275 41.997 33.2873 41.504 31.7257 42.5873L30.8293 43.2092L30.4578 42.4757C30.2329 42.0319 30.0863 41.0908 30.0863 40.0904V38.4381L28.0252 36.288L25.9639 34.1377L26.5821 33.5447C27.3772 32.7823 27.3229 31.7371 26.4815 31.6156C26.0683 31.556 25.6151 31.8239 24.8733 32.567C24.021 33.4213 23.762 33.5573 23.389 33.3473C23.1406 33.2073 21.8487 31.9721 20.5185 30.602C19.1881 29.2323 18.043 28.115 17.974 28.119C17.9047 28.1232 17.6572 28.24 17.4241 28.3788ZM34.4898 44.1065C35.3228 44.8759 35.0518 45.7326 33.497 47.2466C32.7072 48.0157 31.8893 48.6448 31.6794 48.6448C31.1274 48.6448 30.3286 47.7438 30.3286 47.1209C30.3286 46.4621 32.973 43.6971 33.6029 43.6971C33.8469 43.6971 34.246 43.8814 34.4898 44.1065ZM39.1653 46.4084C39.4413 46.7199 39.5441 47.0996 39.4529 47.471C39.252 48.2883 35.5964 51.8609 34.9609 51.8609C34.3544 51.8609 33.479 51.0393 33.479 50.4701C33.479 50.2494 34.3708 49.1361 35.4606 47.9962C37.5918 45.7675 38.3202 45.4552 39.1653 46.4084ZM41.2339 50.6239C42.0273 51.4339 41.8291 52.0746 40.3033 53.6322C39.2154 54.7427 38.722 55.0769 38.1707 55.0769C37.2588 55.0769 36.8718 54.6789 36.8718 53.7408C36.8718 53.1592 37.1849 52.6876 38.3168 51.5638C39.8627 50.0292 40.462 49.836 41.2339 50.6239ZM44.7587 53.7052C45.0859 54.0391 45.3536 54.5035 45.3536 54.7373C45.3536 55.3666 42.1528 58.5404 41.5179 58.5404C40.8408 58.5404 40.0222 57.7047 40.0222 57.0135C40.0222 56.3653 43.1312 53.0978 43.7477 53.0978C43.9767 53.0978 44.4315 53.3712 44.7587 53.7052Z" fill="black"/>
<path fill-rule="evenodd" clip-rule="evenodd" d="M161.405 108.135C161.294 108.246 161.203 108.941 161.203 109.68C161.203 110.659 161.329 111.072 161.666 111.201C162.482 111.514 162.944 110.815 162.852 109.404C162.783 108.341 162.659 108.084 162.187 108.016C161.868 107.971 161.516 108.024 161.405 108.135ZM155.62 109.522C155.39 110.122 155.699 111.179 156.334 111.963C156.797 112.535 156.939 112.576 157.333 112.249C157.914 111.766 157.91 111.352 157.313 110.099C156.811 109.048 155.918 108.744 155.62 109.522ZM166.9 109.644C166.155 111.035 166.053 111.628 166.482 112.058C166.715 112.291 167.078 112.416 167.289 112.335C167.817 112.132 168.706 110.076 168.498 109.536C168.261 108.917 167.252 108.985 166.9 109.644ZM150.874 112.696C150.43 113.14 150.749 113.948 151.635 114.624C152.739 115.466 153.039 115.511 153.537 114.911C154.206 114.105 151.617 111.952 150.874 112.696ZM171.161 113.255C170.581 113.743 170.302 114.212 170.358 114.605C170.497 115.586 171.481 115.484 172.554 114.377C173.365 113.54 173.46 113.313 173.154 112.944C172.64 112.325 172.181 112.396 171.161 113.255ZM159.464 113.467C155.451 114.901 153.049 118.469 153.315 122.599C153.473 125.044 154.291 126.871 155.983 128.564C157.384 129.965 157.498 130.514 156.59 131.481C155.663 132.468 155.727 134.134 156.732 135.183C157.159 135.628 157.507 136.222 157.507 136.503C157.507 137.471 158.401 138.894 159.222 139.234C159.72 139.441 161.006 139.535 162.496 139.474C164.772 139.38 164.998 139.316 165.635 138.575C166.035 138.11 166.321 137.417 166.321 136.912C166.321 136.318 166.588 135.798 167.174 135.251C168.231 134.263 168.37 132.522 167.458 131.697C166.555 130.879 166.74 129.825 168.004 128.592C168.617 127.993 169.478 126.72 169.918 125.762C172.083 121.049 169.784 115.473 164.912 113.622C163.265 112.996 160.965 112.931 159.464 113.467ZM165.161 115.622C166.42 116.264 167.937 117.908 168.489 119.229C169.001 120.455 168.989 123.635 168.467 124.886C168.239 125.43 167.423 126.545 166.652 127.364C165.852 128.216 165.166 129.249 165.053 129.778L164.854 130.702H161.892H158.929V129.84C158.929 129.183 158.601 128.659 157.549 127.637C155.774 125.912 155.192 124.747 155.017 122.574C154.898 121.094 154.991 120.579 155.606 119.292C156.008 118.453 156.504 117.569 156.709 117.328C157.414 116.498 159.073 115.397 160.066 115.099C161.4 114.699 163.843 114.95 165.161 115.622ZM163.099 117.245C162.657 117.686 162.982 118.377 163.916 118.982C164.466 119.339 165.125 120.069 165.381 120.605C165.932 121.76 166.546 122.069 167.131 121.485C167.508 121.108 167.496 120.927 167.027 119.887C166.178 118.005 163.882 116.461 163.099 117.245ZM147.947 118.041C147.668 118.768 147.979 119.123 149.214 119.488C150.218 119.784 150.481 119.776 150.822 119.436C151.384 118.873 151.086 118.289 150.05 117.928C148.848 117.509 148.137 117.547 147.947 118.041ZM173.784 118.048C172.124 118.769 172.858 120.154 174.595 119.576C175.839 119.162 176.394 118.635 176.177 118.072C175.966 117.522 175.014 117.513 173.784 118.048ZM148.552 123.299C147.569 123.431 147.415 123.549 147.415 124.163C147.415 124.805 147.54 124.882 148.719 124.958C150.117 125.049 150.83 124.589 150.525 123.794C150.301 123.212 149.916 123.115 148.552 123.299ZM173.712 123.425C173.556 123.58 173.429 123.936 173.429 124.214C173.429 124.803 174.337 125.099 175.735 124.966C176.548 124.888 176.698 124.763 176.698 124.163C176.698 123.526 176.557 123.436 175.347 123.297C174.602 123.211 173.868 123.269 173.712 123.425ZM166.179 133.26V133.971L162.019 134.05C158.366 134.119 157.836 134.071 157.678 133.658C157.262 132.573 157.96 132.389 162.169 132.471L166.179 132.55V133.26ZM126.265 134.502C126.034 134.78 125.963 137.763 126.017 144.951L126.092 155.01H129.503H132.915L133.005 154.228C133.085 153.531 133.21 153.446 134.154 153.446C134.736 153.446 139.173 154.246 144.014 155.223L152.816 157H164.994H177.171L178 156.071C178.685 155.306 178.83 154.892 178.83 153.712C178.83 151.997 178.212 150.678 177.235 150.307C176.841 150.157 173.841 150.035 170.567 150.035H164.615V149.215C164.615 147.637 163.382 146.877 158.36 145.361C153.996 144.044 153.708 143.91 151.603 142.227C148.5 139.746 146.159 138.213 143.631 137.006C141.464 135.97 141.407 135.961 137.251 135.864C133.523 135.778 133.057 135.713 133.057 135.281C133.057 134.313 132.447 134.113 129.481 134.113C127.38 134.113 126.499 134.22 126.265 134.502ZM131.284 144.704L131.36 153.446H129.507H127.655V144.822C127.655 140.079 127.746 136.108 127.857 135.996C127.968 135.885 128.768 135.832 129.634 135.878L131.209 135.961L131.284 144.704ZM164.527 136.284C164.876 137.192 164.216 137.663 162.465 137.754C160.351 137.865 159.581 137.668 159.356 136.958C159.05 135.995 159.45 135.819 161.94 135.819C163.908 135.819 164.381 135.904 164.527 136.284ZM142.652 138.37C144.412 139.169 147.616 141.294 150.547 143.606C153.055 145.584 153.203 145.655 157.37 146.885C162.692 148.455 162.909 148.586 162.909 150.218C162.909 151.042 162.77 151.527 162.504 151.629C162.282 151.715 160.173 151.395 157.817 150.92C153.777 150.105 153.366 149.959 150.56 148.339C148.925 147.395 147.338 146.623 147.034 146.623C146.475 146.623 146.01 147.327 146.28 147.764C146.36 147.894 147.908 148.852 149.719 149.892C152.919 151.729 153.134 151.806 157.321 152.613C162.712 153.653 162.944 153.652 164.003 152.593L164.856 151.74H170.649C174.776 151.74 176.54 151.838 176.783 152.082C176.971 152.269 177.125 152.9 177.125 153.483C177.125 155.497 177.491 155.436 165.35 155.436H154.469L145.824 153.716C141.07 152.77 136.252 151.92 135.118 151.827L133.057 151.658V144.734V137.809L137.251 137.816C140.776 137.821 141.637 137.909 142.652 138.37Z" fill="black"/>
</svg>
