<svg width="64" height="60" viewBox="0 0 64 60" fill="none" xmlns="http://www.w3.org/2000/svg">
<path fill-rule="evenodd" clip-rule="evenodd" d="M10.9316 1.39153C7.37193 3.15958 4.11893 6.30751 2.35885 9.68851C1.04741 12.2072 0.849976 14.8528 0.849976 29.866C0.849976 45.162 1.03144 47.4934 2.42943 50.1849C4.49027 54.1534 10.0007 58.6137 13.7989 59.3884C15.4565 59.7268 24.3737 60.0016 33.6152 60C49.198 59.9968 50.6615 59.8706 53.7784 58.2697C57.6774 56.2662 60.0953 53.9026 62.2814 49.9575C63.6483 47.4902 63.8415 45.1685 63.8499 31.0715C63.8558 22.2312 63.571 13.7012 63.2173 12.1156C62.4225 8.54812 57.7379 3.1869 53.8893 1.44055C49.7214 -0.452065 14.7239 -0.491445 10.9316 1.39153ZM53.5036 9.72467L56.8121 12.8895L56.5558 30.2043L56.2988 47.5192L53.5541 50.1447L50.8093 52.7703L32.7087 53.0162L14.608 53.2613L11.2996 50.0965L7.99111 46.9317V29.866V12.8003L11.2525 9.67967L14.5147 6.55986H32.355H50.1952L53.5036 9.72467ZM47.5496 10.8972C46.9766 11.557 46.6322 12.9305 46.7826 13.9495C46.9968 15.3961 47.5899 15.8019 49.4861 15.8019C52.4812 15.8019 54.1993 13.6449 52.8483 11.5827C51.6419 9.74235 48.8636 9.38231 47.5496 10.8972ZM26.4824 14.0468C22.1465 15.3672 16.9251 20.7557 15.6027 25.2731C12.0321 37.4734 23.7764 49.247 36.3456 46.0662C49.7793 42.6675 54.2757 27.4775 44.5865 18.2234C39.5793 13.44 33.259 11.9822 26.4824 14.0468ZM39.5801 22.9545C42.0963 25.3615 42.4366 26.1852 42.4366 29.866C42.4366 33.5467 42.0963 34.3705 39.5801 36.7775C37.0639 39.1844 36.2028 39.5099 32.355 39.5099C28.5072 39.5099 27.646 39.1844 25.1298 36.7775C22.6136 34.3705 22.2734 33.5467 22.2734 29.866C22.2734 26.1852 22.6136 25.3615 25.1298 22.9545C27.646 20.5476 28.5072 20.2221 32.355 20.2221C36.2028 20.2221 37.0639 20.5476 39.5801 22.9545Z" fill="#03608D"/>
</svg>
