<svg width="268" height="70" viewBox="0 0 268 70" fill="none" xmlns="http://www.w3.org/2000/svg">
<path fill-rule="evenodd" clip-rule="evenodd" d="M32.0381 0.151123C31.9132 0.274235 31.8111 10.3778 31.8111 22.6038V44.8324H30.6724H29.5337V25.2754V5.71845H25.7924H22.0511V25.2754V44.8324H21.2254H20.4L20.4934 47.798L20.587 50.7636H35.5524H50.5177L50.6114 47.798L50.7048 44.8324H49.8794H49.0537V25.2649V5.69729L45.3937 5.78802L41.7337 5.87875L41.6498 25.3556L41.5662 44.8324H40.4321H39.2983L39.2147 22.4701L39.1311 0.107841L35.6981 0.0174298C33.8102 -0.0322642 32.1634 0.0280099 32.0381 0.151123ZM241.977 16.6191V18.8633H244.417H246.857V16.6191V14.3748H244.417H241.977V16.6191ZM94.2592 17.6771C90.0012 18.8659 87.3761 22.2515 86.823 27.268C86.0848 33.9642 88.3075 38.9954 92.9341 41.1002C94.2048 41.6786 95.0426 41.7844 98.3418 41.7844C102.786 41.7844 104.213 41.3423 106.586 39.2295C111.301 35.0321 111.301 24.1751 106.586 19.9777C104.456 18.0813 102.734 17.4895 98.9925 17.369C96.9949 17.3045 95.1678 17.4235 94.2592 17.6771ZM172.398 17.9265C168.952 18.5937 166.76 20.4086 165.457 23.6724C164.817 25.2754 164.74 26.1731 164.617 33.5451L164.482 41.6546L167.036 41.5603L169.59 41.466L169.68 36.5768L169.769 31.6876H176.918H184.067V29.6036V27.5197H176.91C168.803 27.5197 169.097 27.637 170.485 24.9612C171.809 22.4063 172.272 22.2441 178.559 22.1284L184.067 22.027V19.804V17.5809L178.943 17.6161C176.125 17.6354 173.18 17.7748 172.398 17.9265ZM18.1835 21.0405C16.9267 23.9763 14.6647 25.8666 7.89903 29.6354C3.83692 31.8979 0.920953 34.2681 0.257597 35.8461C0.0161997 36.4203 -0.0618805 37.5909 0.0503597 38.956C0.149261 40.1602 0.222136 41.3978 0.211725 41.7065C0.18765 42.4352 0.18765 47.5502 0.211725 48.2789C0.222136 48.5877 0.149261 49.8252 0.0503597 51.0294C-0.0618805 52.3945 0.0161997 53.5651 0.257597 54.1393C0.935918 55.7535 3.86425 58.0885 8.49635 60.7088C14.2726 63.9761 16.3294 65.6212 17.7091 68.0764L18.7899 70L18.7938 67.4836C18.7964 65.8174 18.6191 64.5962 18.2687 63.8687C17.4323 62.132 14.9894 59.9891 11.6404 58.0545C5.95386 54.7699 3.70256 53.3653 2.70638 52.4814C1.81334 51.6886 1.76617 51.5552 2.22001 51.1009C2.6758 50.6447 2.82676 50.6745 3.84668 51.4228C4.46514 51.8764 6.43503 53.0531 8.22437 54.0377C14.2395 57.347 16.6294 59.2969 18.0244 62.0339L18.8163 63.5879L18.7258 60.6742C18.6435 58.0353 18.543 57.6294 17.659 56.3685C16.4839 54.6917 13.5166 52.485 9.44144 50.2561C7.78452 49.3501 6.35891 48.4973 6.27334 48.3607C6.18778 48.2244 6.54988 47.9365 7.07789 47.7211C7.95076 47.3649 8.22795 47.4338 10.1214 48.4771C14.461 50.8688 16.6665 52.878 18.2625 55.8933C18.7652 56.8426 18.7717 56.8228 18.7847 54.3576C18.8036 50.7187 17.4167 48.529 13.511 46.0328C12.6613 45.4897 11.9657 45.011 11.9657 44.9693C11.9657 44.9273 12.5881 44.531 13.3484 44.088C15.1497 43.0389 17.4027 40.8133 18.1806 39.3148C18.6318 38.4447 18.7967 37.4543 18.7938 35.6278L18.7899 33.1303L17.7091 35.0539C16.4713 37.2568 14.27 39.1599 10.504 41.2836C8.10367 42.6369 7.9846 42.6686 7.01087 42.214L6.00299 41.7437L7.11368 41.0909C7.72466 40.7322 9.63794 39.6178 11.3658 38.6146C17.3936 35.1152 18.8049 33.2755 18.7876 28.9412L18.7772 26.3976L18.0049 27.9515C16.6336 30.71 14.7746 32.2396 8.4225 35.8356C6.22324 37.0805 4.04513 38.3927 3.58186 38.7518C2.80789 39.3516 2.69825 39.3625 2.22879 38.8874C1.76259 38.4158 1.82148 38.2811 2.90061 37.3533C3.55128 36.7942 5.27131 35.6509 6.72328 34.8135C8.17524 33.976 10.5333 32.6144 11.9634 31.7879C14.9002 30.0913 17.471 27.7736 18.2801 26.0933C18.6786 25.2655 18.7997 24.2928 18.73 22.4733C18.6367 20.0255 18.6279 20.0024 18.1835 21.0405ZM52.311 22.5019C52.3084 24.1681 52.4857 25.3892 52.8361 26.1167C53.6725 27.8534 56.1154 29.9964 59.4644 31.9309C65.1509 35.2155 67.4022 36.6201 68.3984 37.504C69.2915 38.2969 69.3386 38.4302 68.8848 38.8845C68.429 39.3407 68.278 39.3109 67.2581 38.5626C66.6397 38.109 64.6698 36.9324 62.8804 35.9478C56.8455 32.6276 54.4517 30.6703 53.0999 27.9515L52.3276 26.3976L52.3172 28.8925C52.3113 30.3663 52.4997 31.8418 52.7778 32.4974C53.7493 34.7894 56.5299 36.907 64.079 41.1041L65.1578 41.7036L64.1219 42.1941C63.1091 42.6734 63.0301 42.6532 60.6008 41.2836C56.8348 39.1599 54.6335 37.2568 53.3956 35.0539L52.3149 33.1303L52.311 35.6278C52.3055 39.2702 53.6953 41.4609 57.5938 43.9527C58.4439 44.4958 59.1391 44.9732 59.1391 45.0132C59.1391 45.0533 58.4325 45.5329 57.569 46.0789C53.6754 48.5412 52.3012 50.7091 52.3201 54.3576C52.3331 56.8228 52.3396 56.8426 52.8423 55.8933C54.4488 52.8581 56.5576 50.94 60.9505 48.5191C63.0307 47.3726 63.1706 47.3405 64.1294 47.7878L65.1321 48.2558L64.3314 48.7432C63.8912 49.0109 61.9327 50.1522 59.9791 51.2795C56.0943 53.5205 53.5196 55.7378 52.7821 57.4778C52.4942 58.1565 52.3162 59.5813 52.3302 61.0929L52.353 63.5879L52.9734 62.2118C53.897 60.1622 56.6226 57.6897 60.2778 55.5859C62.0671 54.5561 64.6574 53.0252 66.0342 52.1842C68.2312 50.8419 68.5881 50.7149 68.9512 51.1461C69.6392 51.963 68.2149 53.0002 59.4644 58.0545C56.1154 59.9891 53.6725 62.132 52.8361 63.8687C52.4857 64.5962 52.3084 65.8174 52.311 67.4836L52.3149 70L53.3956 68.0764C54.7731 65.625 56.8624 63.9511 62.4035 60.8595C66.8999 58.3511 70.1686 55.7542 70.8394 54.1576C71.0889 53.5641 71.168 52.4131 71.0544 51.0294C70.9555 49.8252 70.8827 48.5877 70.8931 48.2789C70.9171 47.5502 70.9171 42.4352 70.8931 41.7065C70.8827 41.3978 70.9555 40.1602 71.0544 38.956C71.1667 37.5909 71.0886 36.4203 70.8472 35.8461C70.1689 34.2319 67.2406 31.8969 62.6085 29.2766C56.8322 26.0093 54.7754 24.3643 53.3956 21.9091L52.3149 19.9854L52.311 22.5019ZM254.754 20.9072C251.313 21.7683 248.915 24.2194 248.13 27.6774C247.558 30.1948 247.886 34.6942 248.789 36.7297C250.422 40.4077 253.769 42.147 258.702 41.879C264.282 41.5754 267.383 38.4421 267.883 32.5997C268.347 27.1721 266.395 23.1723 262.441 21.4516C260.503 20.608 256.954 20.3567 254.754 20.9072ZM116.396 21.407C114.056 22.1085 112.221 23.6647 111.372 25.6659C110.965 26.6265 110.867 28.2917 110.867 34.2421V41.6263H113.144H115.422V35.0437C115.422 26.318 115.712 25.6739 119.88 25.1498L121.573 24.9366L121.67 27.1099L121.766 29.283L124.124 29.3773L126.483 29.4715V25.2895V21.1075L121.847 21.1351C119.298 21.1502 116.844 21.2727 116.396 21.407ZM132.596 21.4904C130.865 21.9437 128.663 23.9882 127.754 25.9846C127.088 27.4479 126.982 28.1849 126.977 31.3669C126.971 34.7663 127.043 35.1972 127.887 36.891C129.004 39.134 130.639 40.5244 132.936 41.1871C134.448 41.6231 134.65 41.7764 134.502 42.3785C134.408 42.7581 134.232 43.4737 134.109 43.9681L133.886 44.8667L135.797 44.7696L137.707 44.6721L138.059 43.2294L138.411 41.7867L140.906 41.693L143.401 41.5994V39.5289V37.4585H139.323C134.342 37.4585 133.332 37.1276 132.304 35.1584C131.33 33.2954 131.277 29.5183 132.198 27.689C133.321 25.4572 134.015 25.185 138.998 25.0183L143.401 24.8711V22.9895V21.1075L138.602 21.1406C135.962 21.1588 133.26 21.3163 132.596 21.4904ZM145.678 22.9882V24.8689L150.639 25.0199C156.303 25.1918 157.457 25.5492 158.229 27.3703C158.483 27.9701 158.691 28.5376 158.691 28.6315C158.691 28.7255 156.431 28.8021 153.67 28.8021C148.459 28.8021 147.34 29.0054 146.054 30.1862C144.729 31.4019 144.271 32.6558 144.27 35.0809C144.268 37.9458 145.2 39.8008 147.142 40.7979C148.328 41.4067 149.099 41.4753 155.845 41.5725L163.246 41.6789L163.244 34.5191C163.243 30.2641 163.096 26.8393 162.881 26.0779C162.669 25.3261 161.963 24.2479 161.173 23.4685C159.178 21.5025 157.473 21.1075 150.987 21.1075H145.678V22.9882ZM185.694 23.0062V24.9548H189.554C194.751 24.9548 196.674 25.329 197.813 26.5614C198.305 27.0939 198.707 27.8066 198.707 28.1449C198.707 28.7229 198.376 28.7659 193.199 28.8611C188.247 28.9521 187.599 29.0291 186.774 29.6225C183.661 31.8623 183.614 38.218 186.695 40.4266C188.068 41.4106 189.746 41.6106 196.69 41.6187L203.294 41.6263L203.197 33.6378L203.099 25.6496L202.12 24.2777C201.529 23.4489 200.502 22.5817 199.528 22.087C197.994 21.3086 197.612 21.2627 191.804 21.1627L185.694 21.0575V23.0062ZM207.486 21.8289C205.413 22.8645 204.726 24.2017 204.726 27.1991C204.726 30.0153 205.39 31.4439 207.177 32.4759C208.118 33.0187 209.064 33.1534 212.892 33.2887C218.003 33.4695 218.553 33.674 218.553 35.3957C218.553 37.2828 217.922 37.4585 211.16 37.4585H205.214V39.57V41.6815L212.127 41.5725C219.876 41.45 220.883 41.2124 222.139 39.2096C223.494 37.0484 223.263 32.7523 221.702 31.096C220.331 29.6427 219.302 29.3654 214.661 29.1987C212.239 29.1118 209.992 28.9053 209.67 28.7402C209.217 28.5094 209.105 28.1317 209.182 27.0984C209.271 25.8843 209.389 25.7198 210.419 25.3735C211.113 25.1405 213.687 24.984 217.007 24.9728L222.457 24.9548V23.0312V21.1075H215.694C209.325 21.1075 208.846 21.1495 207.486 21.8289ZM229.004 21.6539C225.604 22.8379 223.758 26.1831 223.758 31.1605C223.758 34.9282 224.356 36.9449 226.028 38.8175C228.015 41.0412 229.218 41.3997 235.226 41.5584L240.35 41.6937V39.5761V37.4585L236.039 37.4572C232.338 37.4562 231.582 37.3677 230.687 36.8301C228.988 35.8093 228.478 34.5118 228.477 31.2066C228.476 28.78 228.59 28.1388 229.199 27.1741C230.273 25.4723 231.182 25.1866 236.039 25.0244L240.35 24.8804V22.994V21.1075L235.389 21.1329C231.799 21.1512 230.034 21.2951 229.004 21.6539ZM241.977 31.3811V41.6546L244.335 41.5603L246.694 41.466L246.78 31.2868L246.866 21.1075H244.421H241.977V31.3811ZM100.547 21.768C103.52 22.5817 105.011 25.1988 105.011 29.6036C105.011 34.0084 103.52 36.6255 100.547 37.4392C98.1782 38.0875 95.3679 37.6005 93.8935 36.2867C92.3134 34.8782 91.8436 33.3473 91.8436 29.6036C91.8436 25.8599 92.3134 24.329 93.8935 22.9206C95.3679 21.6067 98.1782 21.1197 100.547 21.768ZM260.526 25.219C262.246 26.1061 263.123 28.0586 263.123 30.997C263.123 33.9292 262.65 35.5679 261.486 36.6666C259.953 38.1144 257.146 38.3632 254.912 37.2488C252.127 35.8596 251.574 28.3266 254.085 26.0013C255.651 24.5518 258.55 24.1998 260.526 25.219ZM158.691 35.0539V37.4585H154.462C150.666 37.4585 150.166 37.3927 149.582 36.8173C148.456 35.708 148.843 33.3611 150.233 32.8719C150.501 32.7773 152.514 32.6885 154.706 32.6747L158.691 32.6494V35.0539ZM198.707 35.0539V37.4585H194.677C189.919 37.4585 189.142 37.1209 189.142 35.0539C189.142 32.987 189.919 32.6494 194.677 32.6494H198.707V35.0539ZM233.518 48.6797V54.4506H234.331C235.14 54.4506 235.145 54.4355 235.145 51.469C235.145 48.1488 235.356 47.7179 236.988 47.7179C238.431 47.7179 238.723 48.3883 238.723 51.7043C238.723 54.2368 238.774 54.4506 239.374 54.4506C239.981 54.4506 240.025 54.2368 240.025 51.2301C240.025 48.1972 239.976 47.9612 239.187 47.1837C238.456 46.4633 238.145 46.3777 236.747 46.5101L235.145 46.6618V44.7853C235.145 42.9973 235.106 42.9088 234.331 42.9088H233.518V48.6797ZM257.918 44.0533C257.918 44.724 258.054 44.8581 258.65 44.7747C259.12 44.7087 259.419 44.4143 259.486 43.9507C259.571 43.3634 259.435 43.2294 258.754 43.2294C258.073 43.2294 257.918 43.3823 257.918 44.0533ZM104.352 44.3723C104.178 44.8247 104.035 45.4739 104.035 45.8151C104.035 46.1562 103.816 46.4354 103.547 46.4354C102.921 46.4354 102.912 47.2844 103.534 47.6275C103.891 47.8243 104.033 48.689 104.104 51.09C104.193 54.1322 104.234 54.2954 104.93 54.3929C105.649 54.4936 105.662 54.4365 105.662 51.1288C105.662 47.8865 105.689 47.7586 106.391 47.6602C107.472 47.5079 107.567 46.4354 106.499 46.4354C105.823 46.4354 105.662 46.2812 105.662 45.6339C105.662 44.9927 105.824 44.8324 106.475 44.8324C107.071 44.8324 107.288 44.6615 107.288 44.1912C107.288 43.6561 107.071 43.55 105.979 43.55C104.873 43.55 104.62 43.6776 104.352 44.3723ZM3.37397 45.5182C2.75258 46.0161 2.64425 46.0196 2.12176 45.556C1.59277 45.087 1.58951 45.0055 2.07849 44.473C2.57527 43.9321 2.65108 43.9299 3.3307 44.4352L4.05392 44.9728L3.37397 45.5182ZM69.0263 45.5124C68.5295 46.0533 68.4537 46.0555 67.7741 45.5502L67.0509 45.0126L67.7308 44.4672C68.3522 43.9693 68.4605 43.9658 68.983 44.4294C69.512 44.8985 69.5153 44.9799 69.0263 45.5124ZM109.24 45.4736C109.24 46.1148 109.078 46.4354 108.752 46.4354C108.484 46.4354 108.264 46.6563 108.264 46.9263C108.264 47.1966 108.484 47.5005 108.752 47.6018C109.132 47.7458 109.24 48.3812 109.24 50.4773C109.24 53.4631 109.766 54.4506 111.355 54.4506C112.436 54.4506 112.508 53.2605 111.436 53.1105C110.754 53.0149 110.698 52.829 110.61 50.3629C110.515 47.7195 110.516 47.7179 111.342 47.7179C111.951 47.7179 112.168 47.5495 112.168 47.0767C112.168 46.6063 111.951 46.4354 111.355 46.4354C110.668 46.4354 110.542 46.2857 110.542 45.4736C110.542 44.7256 110.397 44.5118 109.891 44.5118C109.385 44.5118 109.24 44.7256 109.24 45.4736ZM87.7684 47.0767C86.8569 47.975 86.8956 49.7723 87.841 50.4247C88.2386 50.6992 89.089 50.9239 89.7305 50.9239C92.4253 50.9239 92.7672 52.9107 90.1063 53.106C89.371 53.1598 88.4552 53.0383 88.0713 52.8357C87.5443 52.5577 87.2821 52.559 87.0016 52.8405C86.2989 53.5458 87.9467 54.4506 89.9339 54.4506C91.3774 54.4506 91.8488 54.306 92.5004 53.6635C93.4228 52.7549 93.5623 51.2176 92.7809 50.5786C92.4959 50.3456 91.4346 49.9926 90.4222 49.7941C88.9436 49.5043 88.5619 49.3007 88.4806 48.7576C88.3316 47.7605 89.4286 47.2876 90.9392 47.6986C91.8943 47.9586 92.2467 47.9307 92.6172 47.5653C93.0258 47.1626 92.9715 47.06 92.1956 46.7692C90.6867 46.204 88.5001 46.3556 87.7684 47.0767ZM96.4406 46.7987C95.0693 47.5842 94.5221 50.6331 95.3861 52.6719C95.9428 53.9844 96.7428 54.4506 98.4387 54.4506C100.049 54.4506 101.295 53.3179 101.592 51.5847C102.102 48.6069 100.74 46.4281 98.3789 46.4451C97.6427 46.4505 96.7704 46.6095 96.4406 46.7987ZM113.22 46.9683C113.312 47.2924 113.881 49.1083 114.486 51.0041C115.416 53.921 115.688 54.4506 116.255 54.4506C116.815 54.4506 117.084 53.9639 117.875 51.526L118.823 48.6015L119.794 51.526C120.606 53.9732 120.875 54.4506 121.444 54.4506C122.024 54.4506 122.282 53.9456 123.205 51.0041C123.8 49.1087 124.363 47.2924 124.455 46.9683C124.588 46.4983 124.467 46.4011 123.855 46.4874C123.202 46.5797 122.985 46.9548 122.405 49.0003C122.03 50.3228 121.647 51.6212 121.555 51.8857C121.462 52.1502 120.947 51.0682 120.41 49.4812C119.654 47.2466 119.3 46.5957 118.838 46.5957C118.376 46.5957 118.021 47.2466 117.265 49.4812C116.729 51.0682 116.241 52.2224 116.181 52.0461C116.122 51.8697 115.739 50.5713 115.33 49.1606C114.694 46.9692 114.474 46.58 113.82 46.4874C113.209 46.4011 113.088 46.4986 113.22 46.9683ZM126.402 46.8817C126.089 47.1161 125.832 47.4636 125.832 47.6541C125.832 48.2254 126.48 48.4405 126.977 48.034C127.475 47.6265 129.468 47.5165 130.04 47.865C130.231 47.9811 130.387 48.4085 130.387 48.814C130.387 49.4741 130.195 49.5713 128.564 49.737C126.366 49.9608 125.507 50.6232 125.507 52.0957C125.507 53.9392 126.359 54.4397 129.431 54.4006L132.071 54.3669L131.961 51.0134C131.86 47.9429 131.786 47.6085 131.083 47.0478C130.17 46.3197 127.29 46.2178 126.402 46.8817ZM134.617 50.443C134.617 54.2368 134.651 54.4506 135.267 54.4506C135.869 54.4506 135.918 54.2368 135.918 51.6264C135.918 48.085 136.234 47.5463 138.167 47.8015C139.213 47.94 139.583 47.8679 139.727 47.4976C139.832 47.2305 139.712 46.8843 139.463 46.7285C138.799 46.3143 136.761 46.3736 136.308 46.8202C136.005 47.1193 135.918 47.1193 135.918 46.8202C135.918 46.6086 135.625 46.4354 135.267 46.4354C134.651 46.4354 134.617 46.6493 134.617 50.443ZM141.599 47.1661C139.975 48.5421 139.969 52.3388 141.588 53.711C142.678 54.6349 144.794 54.7036 146.097 53.8568C146.905 53.3317 146.948 53.2214 146.49 52.8466C146.1 52.5279 145.884 52.5161 145.599 52.7969C144.552 53.8293 141.774 52.8585 141.774 51.4597C141.774 51.0031 142.164 50.9239 144.419 50.9239H147.064L146.891 49.4116C146.764 48.3036 146.487 47.7038 145.855 47.1674C144.689 46.1799 142.763 46.1793 141.599 47.1661ZM153.234 52.1666C153.322 57.7519 153.332 57.8182 154.055 57.9196C154.752 58.017 154.787 57.9189 154.787 55.8516C154.787 54.1633 154.874 53.7667 155.178 54.0659C155.772 54.6516 157.869 54.5298 158.708 53.8607C160.104 52.7466 160.108 48.1427 158.713 47.0298C158.164 46.5913 157.443 46.4672 155.573 46.4887L153.146 46.5166L153.234 52.1666ZM162.514 46.7817C161.881 47.1449 161.761 47.8891 162.284 48.2074C162.471 48.3212 162.833 48.243 163.089 48.034C163.587 47.6265 165.58 47.5165 166.152 47.865C166.343 47.9811 166.499 48.4085 166.499 48.814C166.499 49.4741 166.307 49.5713 164.676 49.737C162.4 49.9688 161.619 50.6104 161.619 52.2487C161.619 53.9941 162.438 54.4352 165.611 54.3987L168.126 54.3698V51.7328C168.126 48.8057 167.708 47.2222 166.812 46.7493C166.038 46.3412 163.245 46.362 162.514 46.7817ZM170.544 46.8567C170.454 47.0885 170.422 48.856 170.473 50.7841C170.562 54.1441 170.596 54.2945 171.298 54.3929C172.013 54.4929 172.03 54.424 172.03 51.4664C172.03 47.9987 172.304 47.5217 174.127 47.8134C175.42 48.0202 176.44 47.2681 175.588 46.7365C174.913 46.3159 172.878 46.3694 172.42 46.8202C172.117 47.1193 172.03 47.1193 172.03 46.8202C172.03 46.2979 170.749 46.3293 170.544 46.8567ZM177.617 46.9452C177.037 47.3456 176.959 47.5505 177.254 47.9003C177.545 48.2462 177.781 48.2651 178.313 47.9849C179.309 47.4598 180.892 47.5922 181.373 48.2405C182.114 49.2395 181.874 49.6415 180.537 49.6415C178.887 49.6415 177.299 50.2074 176.903 50.9364C175.923 52.7421 177.209 54.4506 179.55 54.4506C180.353 54.4506 181.185 54.2775 181.399 54.0659C181.703 53.7667 181.79 53.7667 181.79 54.0659C181.79 54.2775 182.083 54.4506 182.441 54.4506C183.048 54.4506 183.091 54.2368 183.091 51.2301C183.091 48.2379 183.035 47.9535 182.293 47.2225C181.666 46.6044 181.157 46.4354 179.925 46.4354C179.017 46.4354 178.045 46.6502 177.617 46.9452ZM190.787 46.7987C190.003 47.2479 189.273 49.0054 189.273 50.443C189.273 51.93 190.021 53.6667 190.85 54.1043C192.302 54.8699 195.779 54.221 195.779 53.1842C195.779 52.7408 194.719 52.4818 194.359 52.837C193.888 53.3009 191.697 53.2509 191.304 52.7674C191.125 52.5472 190.878 52.0422 190.754 51.6453C190.534 50.9361 190.577 50.9239 193.317 50.9239C195.856 50.9239 196.105 50.8688 196.105 50.3036C196.105 49.3629 195.491 47.9622 194.725 47.1568C193.97 46.363 191.88 46.1729 190.787 46.7987ZM198.382 50.443C198.382 54.2368 198.417 54.4506 199.033 54.4506C199.637 54.4506 199.683 54.2368 199.683 51.469C199.683 48.1702 199.899 47.7179 201.473 47.7179C203.046 47.7179 203.262 48.1702 203.262 51.469C203.262 54.2368 203.308 54.4506 203.913 54.4506C204.52 54.4506 204.563 54.2368 204.563 51.2301C204.563 48.2379 204.507 47.9535 203.765 47.2225C202.885 46.3556 200.778 46.1261 200.074 46.8202C199.77 47.1193 199.683 47.1193 199.683 46.8202C199.683 46.6086 199.39 46.4354 199.033 46.4354C198.417 46.4354 198.382 46.6493 198.382 50.443ZM207.864 47.1873C206.417 48.7053 206.647 52.8697 208.239 53.9687C209.048 54.5272 210.511 54.5961 211.417 54.1188C211.954 53.835 212.046 53.8947 212.046 54.5282C212.046 56.3002 210.172 57.2735 208.48 56.381C208.053 56.1559 207.779 56.1931 207.51 56.5124C206.95 57.1774 208.301 57.9773 209.986 57.9773C210.968 57.9773 211.619 57.757 212.272 57.2043L213.185 56.4313L213.289 51.4334C213.391 46.5595 213.376 46.4354 212.719 46.4354C212.349 46.4354 212.046 46.6086 212.046 46.8202C212.046 47.1193 211.959 47.1193 211.656 46.8202C210.953 46.1283 208.662 46.3502 207.864 47.1873ZM217.139 46.7987C215.768 47.5842 215.221 50.6331 216.085 52.6719C216.655 54.0162 217.442 54.4506 219.308 54.4506C221.059 54.4506 222.563 53.4833 221.879 52.7982C221.549 52.4673 221.334 52.4628 220.826 52.7754C219.997 53.2855 218.073 53.2807 217.656 52.7674C217.477 52.5472 217.23 52.0422 217.106 51.6453C216.886 50.9361 216.929 50.9239 219.669 50.9239C222.208 50.9239 222.457 50.8688 222.457 50.3036C222.457 49.3629 221.843 47.9622 221.077 47.1568C220.322 46.363 218.232 46.1729 217.139 46.7987ZM224.734 50.443C224.734 54.2368 224.769 54.4506 225.385 54.4506C225.989 54.4506 226.035 54.2368 226.035 51.469C226.035 48.1702 226.251 47.7179 227.825 47.7179C229.4 47.7179 229.614 48.169 229.614 51.4914C229.614 54.423 229.632 54.4926 230.346 54.3929C231.05 54.2941 231.077 54.1691 231.056 51.1676C231.037 48.3437 230.961 47.9679 230.268 47.2402C229.689 46.6333 229.171 46.4354 228.158 46.4354C227.42 46.4354 226.64 46.6086 226.426 46.8202C226.122 47.1193 226.035 47.1193 226.035 46.8202C226.035 46.6086 225.742 46.4354 225.385 46.4354C224.769 46.4354 224.734 46.6493 224.734 50.443ZM242.955 47.01C242.303 47.5303 242.284 47.6249 242.756 48.0112C243.169 48.3488 243.378 48.3559 243.757 48.0455C244.402 47.5188 246.547 47.5467 246.894 48.0866C247.587 49.1651 247.221 49.5479 245.311 49.7409C243.059 49.9682 241.788 51.0669 242.13 52.492C242.492 54.0078 243.404 54.4484 246.075 54.3983L248.483 54.3531V51.0589C248.483 47.8817 248.453 47.7406 247.626 47.1001C246.513 46.2376 243.984 46.1889 242.955 47.01ZM251.086 50.443V54.4506H251.899C252.709 54.4506 252.713 54.4375 252.713 51.444C252.713 48.0006 252.989 47.522 254.81 47.8134C256.103 48.0202 257.123 47.2681 256.27 46.7365C255.596 46.3159 253.56 46.3694 253.103 46.8202C252.799 47.1193 252.713 47.1193 252.713 46.8202C252.713 46.6086 252.347 46.4354 251.899 46.4354H251.086V50.443ZM257.918 50.443C257.918 54.4618 257.924 54.4942 258.65 54.3929C259.363 54.2929 259.382 54.1887 259.382 50.443C259.382 46.6974 259.363 46.5932 258.65 46.4931C257.924 46.3918 257.918 46.4242 257.918 50.443ZM262.365 47.017C261.712 47.7281 262.28 48.5947 263.009 47.9987C263.51 47.589 265.681 47.537 266.047 47.9263C266.188 48.0763 266.403 48.5232 266.525 48.9201C266.728 49.5825 266.642 49.6415 265.471 49.6415C263.801 49.6415 262.213 50.2042 261.815 50.9364C261.303 51.8793 261.446 53.1185 262.147 53.8094C262.868 54.5195 264.995 54.6872 266.073 54.1188C266.506 53.8899 266.702 53.8899 266.702 54.1188C266.702 54.3012 267.008 54.4506 267.382 54.4506C268.036 54.4506 268.058 54.3211 267.952 51.0554C267.85 47.9413 267.777 47.6095 267.073 47.0478C266.025 46.2123 263.121 46.1934 262.365 47.017ZM144.879 48.1843C146.093 49.3799 145.886 49.6415 143.726 49.6415C142.334 49.6415 141.774 49.521 141.774 49.2218C141.774 48.4286 142.806 47.522 143.822 47.4226C143.964 47.4088 144.44 47.7515 144.879 48.1843ZM194.071 48.3049C194.914 49.3353 194.56 49.6415 192.526 49.6415C190.436 49.6415 190.392 49.6139 190.92 48.6406C191.579 47.4274 193.212 47.2536 194.071 48.3049ZM220.423 48.1276C220.647 48.2982 220.83 48.7085 220.83 49.0394C220.83 49.561 220.571 49.6415 218.888 49.6415C217.012 49.6415 216.956 49.6171 217.215 48.9201C217.702 47.6063 219.241 47.2261 220.423 48.1276ZM99.7407 48.1026C100.219 48.5742 100.257 51.6963 99.7944 52.5481C99.3718 53.3262 97.4722 53.3932 96.8479 52.6517C96.6061 52.3647 96.4129 51.3843 96.4129 50.443C96.4129 49.5017 96.6061 48.5213 96.8479 48.2344C97.357 47.6297 99.1769 47.547 99.7407 48.1026ZM158.029 48.3379C158.214 48.679 158.366 49.6264 158.366 50.443C158.366 52.5183 157.939 53.1682 156.577 53.1682C155.214 53.1682 154.787 52.5183 154.787 50.443C154.787 48.3677 155.214 47.7179 156.577 47.7179C157.347 47.7179 157.797 47.9099 158.029 48.3379ZM211.437 48.2481C211.689 48.5473 211.883 49.5033 211.883 50.443C211.883 52.3753 211.363 53.1682 210.094 53.1682C208.826 53.1682 208.374 52.4529 208.374 50.443C208.374 49.4818 208.56 48.4755 208.786 48.2068C209.331 47.5588 210.877 47.5832 211.437 48.2481ZM130.326 51.9659C130.226 52.9893 130.195 53.0079 128.598 53.0079C127.131 53.0079 126.96 52.9328 126.862 52.2426C126.721 51.2673 127.269 50.9348 129.025 50.9287C130.413 50.9239 130.427 50.9352 130.326 51.9659ZM166.499 51.8797C166.499 52.6187 166.324 52.8787 165.725 53.0268C164.42 53.3496 163.099 53.0617 162.977 52.4282C162.751 51.2532 163.164 50.9239 164.862 50.9239C166.462 50.9239 166.499 50.9457 166.499 51.8797ZM181.79 51.5039C181.79 52.6921 181.041 53.2179 179.503 53.1098C178.416 53.0332 178.026 52.8639 177.943 52.4314C177.75 51.4298 178.509 50.9239 180.203 50.9239C181.517 50.9239 181.79 51.0236 181.79 51.5039ZM247.182 51.6863C247.182 52.7533 246.46 53.2265 245.011 53.1089C244.123 53.0364 243.74 52.8434 243.66 52.4282C243.434 51.2532 243.847 50.9239 245.545 50.9239C247.052 50.9239 247.182 50.9845 247.182 51.6863ZM266.702 51.2237C266.702 51.3885 266.556 51.9015 266.378 52.3635C266.083 53.1291 265.917 53.1948 264.51 53.1057C262.863 53.0015 262.335 52.341 263.136 51.3894C263.574 50.8701 266.702 50.7248 266.702 51.2237ZM20.4244 56.5345V59.5803H35.5524H50.6804V56.5345V53.4888H35.5524H20.4244V56.5345Z" fill="url(#paint0_linear_18_279)"/>
<defs>
<linearGradient id="paint0_linear_18_279" x1="0" y1="35" x2="278.887" y2="35" gradientUnits="userSpaceOnUse">
<stop stop-color="#FFC107"/>
<stop offset="0.556747" stop-color="#FFD145"/>
<stop offset="1" stop-color="#FFC107"/>
</linearGradient>
</defs>
</svg>
