<svg width="63" height="60" viewBox="0 0 63 60" fill="none" xmlns="http://www.w3.org/2000/svg">
<path fill-rule="evenodd" clip-rule="evenodd" d="M25.7687 0.640115C16.6892 2.082 6.7261 9.35991 2.88108 17.3588C-0.830852 25.0822 -0.966219 34.7882 2.5343 42.2889L3.99367 45.4178L2.0012 52.2264C0.906099 55.971 0.211775 59.2267 0.459694 59.4618C0.707612 59.6968 4.32144 59.1561 8.49043 58.26C15.6535 56.72 16.239 56.6941 19.1289 57.7906C38.2315 65.0361 59.37 53.7317 62.6325 34.5265C65.263 19.0393 53.474 3.55128 36.8109 0.602626C32.2222 -0.209154 31.0913 -0.204829 25.7687 0.640115ZM42.2826 8.5128C46.917 10.6129 51.9652 15.3762 54.2892 19.8417C55.8018 22.7485 56.0946 24.4153 56.1014 30.1576C56.1083 36.1833 55.8672 37.4399 54.0976 40.6113C49.6016 48.6671 42.2112 53.2595 32.8922 53.7901C27.9414 54.072 26.4546 53.8492 21.9967 52.1586C17.3889 50.4111 16.4786 50.2856 13.5142 50.9936C8.62884 52.1593 8.62123 52.1543 9.73687 48.1459C10.7004 44.6846 10.6502 44.3047 8.71706 40.3957C6.98086 36.884 6.68732 35.3412 6.69948 29.7972C6.71241 24.1998 6.98923 22.8134 8.71553 19.704C12.0206 13.749 17.8231 9.09532 24.5565 6.99882C28.2045 5.86334 38.3471 6.72919 42.2826 8.5128ZM16.9721 18.7581C14.0405 23.3159 15.5987 28.4569 21.9259 35.1004C26.2447 39.6359 29.5194 41.7194 35.058 43.4554C40.043 45.0177 43.6827 44.5015 45.8174 41.9292C48.4935 38.7037 47.8981 37.0383 43.4142 35.21L39.4582 33.5965L37.6825 35.5532C35.5151 37.9416 33.6739 37.6735 29.1004 34.3038C24.8234 31.1518 23.1123 28.405 24.38 26.7252C26.2067 24.305 26.2417 23.605 24.7048 20.2267C23.3967 17.3515 22.7929 16.7849 20.8316 16.5953C18.8962 16.4086 18.2498 16.7705 16.9721 18.7581Z" fill="#03608D"/>
</svg>
