<svg width="112" height="108" viewBox="0 0 112 108" fill="none" xmlns="http://www.w3.org/2000/svg">
<g filter="url(#filter0_d_21_313)">
<path fill-rule="evenodd" clip-rule="evenodd" d="M52.0381 20.8971C51.9132 21.0141 51.8111 30.6197 51.8111 42.243V63.3758H50.6724H49.5337V44.7829V26.19H45.7924H42.0511V44.7829V63.3758H41.2254H40.4L40.4934 66.1952L40.587 69.0146H55.5524H70.5177L70.6114 66.1952L70.7048 63.3758H69.8794H69.0537V44.7728V26.1699L65.3937 26.2561L61.7337 26.3424L61.6498 44.8591L61.5662 63.3758H60.4321H59.2983L59.2147 42.1159L59.1311 20.8559L55.6981 20.77C53.8102 20.7227 52.1634 20.78 52.0381 20.8971ZM38.1835 40.7568C36.9267 43.5478 34.6647 45.3449 27.899 48.9279C23.8369 51.0789 20.921 53.3323 20.2576 54.8325C20.0162 55.3784 19.9381 56.4912 20.0504 57.7891C20.1493 58.9339 20.2221 60.1104 20.2117 60.404C20.1877 61.0968 20.1877 65.9596 20.2117 66.6524C20.2221 66.9459 20.1493 68.1225 20.0504 69.2673C19.9381 70.5651 20.0162 71.678 20.2576 72.2239C20.9359 73.7585 23.8642 75.9784 28.4963 78.4696C34.2726 81.5758 36.3294 83.1397 37.7091 85.4739L38.7899 87.3027L38.7938 84.9103C38.7964 83.3263 38.6191 82.1653 38.2687 81.4737C37.4323 79.8226 34.9894 77.7853 31.6404 75.9461C25.9539 72.8234 23.7026 71.4881 22.7064 70.6477C21.8133 69.894 21.7662 69.7672 22.22 69.3353C22.6758 68.9015 22.8268 68.9299 23.8467 69.6413C24.4651 70.0726 26.435 71.1912 28.2244 72.1272C34.2395 75.2734 36.6294 77.1272 38.0244 79.7293L38.8163 81.2067L38.7258 78.4366C38.6435 75.9278 38.543 75.5419 37.659 74.3432C36.4839 72.749 33.5166 70.6511 29.4414 68.5321C27.7845 67.6707 26.3589 66.86 26.2733 66.7301C26.1878 66.6006 26.5499 66.3269 27.0779 66.122C27.9508 65.7834 28.2279 65.8489 30.1214 66.8408C34.461 69.1146 36.6665 71.0248 38.2625 73.8914C38.7652 74.794 38.7717 74.7751 38.7847 72.4314C38.8036 68.9719 37.4167 66.8901 33.511 64.517C32.6613 64.0006 31.9657 63.5456 31.9657 63.5059C31.9657 63.466 32.5881 63.0893 33.3484 62.668C35.1497 61.6707 37.4027 59.5548 38.1806 58.1301C38.6318 57.3029 38.7967 56.3614 38.7938 54.6249L38.7899 52.2505L37.7091 54.0793C36.4713 56.1736 34.27 57.9829 30.504 60.0019C28.1037 61.2885 27.9846 61.3187 27.0109 60.8865L26.003 60.4393L27.1137 59.8187C27.7247 59.4777 29.6379 58.4182 31.3658 57.4645C37.3936 54.1375 38.8049 52.3886 38.7876 48.268L38.7772 45.8497L38.0049 47.3271C36.6336 49.9496 34.7746 51.4038 28.4225 54.8224C26.2232 56.006 24.0451 57.2535 23.5819 57.5949C22.8079 58.1652 22.6983 58.1756 22.2288 57.7238C21.7626 57.2755 21.8215 57.1475 22.9006 56.2654C23.5513 55.7338 25.2713 54.6469 26.7233 53.8507C28.1752 53.0546 30.5333 51.7601 31.9634 50.9743C34.9002 49.3613 37.471 47.1579 38.2801 45.5604C38.6786 44.7734 38.7997 43.8487 38.73 42.1189C38.6367 39.7917 38.6279 39.7698 38.1835 40.7568ZM72.311 42.146C72.3084 43.7301 72.4857 44.8911 72.8361 45.5827C73.6725 47.2338 76.1154 49.2711 79.4644 51.1103C85.1509 54.2329 87.4022 55.5683 88.3984 56.4086C89.2915 57.1624 89.3386 57.2892 88.8848 57.7211C88.429 58.1548 88.278 58.1265 87.2581 57.4151C86.6397 56.9838 84.6698 55.8652 82.8804 54.9291C76.8455 51.7726 74.4517 49.9118 73.0999 47.3271L72.3276 45.8497L72.3172 48.2216C72.3113 49.6228 72.4997 51.0255 72.7778 51.6488C73.7493 53.8279 76.5299 55.8411 84.079 59.8312L85.1578 60.4012L84.1219 60.8676C83.1091 61.3232 83.0301 61.304 80.6008 60.0019C76.8348 57.9829 74.6335 56.1736 73.3956 54.0793L72.3149 52.2505L72.311 54.6249C72.3055 58.0878 73.6953 60.1705 77.5938 62.5394C78.4439 63.0557 79.1391 63.5096 79.1391 63.5477C79.1391 63.5858 78.4325 64.0418 77.569 64.5608C73.6754 66.9017 72.3012 68.9628 72.3201 72.4314C72.3331 74.7751 72.3396 74.794 72.8423 73.8914C74.4488 71.0059 76.5576 69.1822 80.9505 66.8807C83.0307 65.7907 83.1706 65.7602 84.1294 66.1854L85.1321 66.6304L84.3314 67.0938C83.8912 67.3483 81.9327 68.4334 79.9791 69.505C76.0943 71.6356 73.5196 73.7436 72.7821 75.3978C72.4942 76.043 72.3162 77.3976 72.3302 78.8347L72.353 81.2067L72.9734 79.8985C73.897 77.9499 76.6226 75.5992 80.2778 73.5991C82.0671 72.6201 84.6574 71.1647 86.0342 70.3652C88.2312 69.089 88.5881 68.9683 88.9512 69.3782C89.6392 70.1549 88.2149 71.1409 79.4644 75.9461C76.1154 77.7853 73.6725 79.8226 72.8361 81.4737C72.4857 82.1653 72.3084 83.3263 72.311 84.9103L72.3149 87.3027L73.3956 85.4739C74.7731 83.1434 76.8624 81.552 82.4035 78.6128C86.8999 76.228 90.1686 73.7592 90.8394 72.2412C91.0889 71.6771 91.168 70.5828 91.0544 69.2673C90.9555 68.1225 90.8827 66.9459 90.8931 66.6524C90.9172 65.9596 90.9172 61.0968 90.8931 60.404C90.8827 60.1104 90.9555 58.9339 91.0544 57.7891C91.1667 56.4912 91.0886 55.3784 90.8472 54.8325C90.1689 53.2978 87.2406 51.0779 82.6085 48.5868C76.8322 45.4806 74.7754 43.9166 73.3956 41.5825L72.3149 39.7536L72.311 42.146ZM23.374 64.0278C22.7526 64.5011 22.6442 64.5045 22.1218 64.0637C21.5928 63.6178 21.5895 63.5404 22.0785 63.0341C22.5753 62.5199 22.6511 62.5178 23.3307 62.9981L24.0539 63.5093L23.374 64.0278ZM89.0263 64.0223C88.5295 64.5365 88.4537 64.5386 87.7741 64.0582L87.0509 63.5471L87.7308 63.0286C88.3522 62.5552 88.4606 62.5519 88.983 62.9926C89.512 63.4386 89.5153 63.516 89.0263 64.0223ZM40.4244 74.501V77.3967H55.5524H70.6804V74.501V71.6054H55.5524H40.4244V74.501Z" fill="url(#paint0_linear_21_313)"/>
</g>
<defs>
<filter id="filter0_d_21_313" x="0" y="0.753418" width="111.105" height="106.549" filterUnits="userSpaceOnUse" color-interpolation-filters="sRGB">
<feFlood flood-opacity="0" result="BackgroundImageFix"/>
<feColorMatrix in="SourceAlpha" type="matrix" values="0 0 0 0 0 0 0 0 0 0 0 0 0 0 0 0 0 0 127 0" result="hardAlpha"/>
<feOffset/>
<feGaussianBlur stdDeviation="10"/>
<feComposite in2="hardAlpha" operator="out"/>
<feColorMatrix type="matrix" values="0 0 0 0 1 0 0 0 0 0.756863 0 0 0 0 0.027451 0 0 0 0.66 0"/>
<feBlend mode="normal" in2="BackgroundImageFix" result="effect1_dropShadow_21_313"/>
<feBlend mode="normal" in="SourceGraphic" in2="effect1_dropShadow_21_313" result="shape"/>
</filter>
<linearGradient id="paint0_linear_21_313" x1="20" y1="54.0281" x2="93.9939" y2="54.0281" gradientUnits="userSpaceOnUse">
<stop stop-color="#FFC107"/>
<stop offset="0.556747" stop-color="#FFD145"/>
<stop offset="1" stop-color="#FFC107"/>
</linearGradient>
</defs>
</svg>
