<svg width="159" height="74" viewBox="0 0 159 74" fill="none" xmlns="http://www.w3.org/2000/svg">
<path fill-rule="evenodd" clip-rule="evenodd" d="M46.7881 2.81265L46.6768 5.6253L37.6183 5.72257L28.5599 5.81983V10.7128V15.6057H32.1856H35.8112L35.7136 43.46L35.616 71.3143L22.4624 71.4958C10.3347 71.6631 9.29883 71.7266 9.18059 72.3113C9.09706 72.725 9.40257 73.072 10.0586 73.3093C11.3146 73.7637 152.47 73.8058 153.222 73.3521C153.505 73.1816 153.675 72.7348 153.599 72.3596C153.467 71.7088 152.752 71.6689 138.21 71.4958L122.958 71.3143L122.861 43.46L122.763 15.6057H126.389H130.014V10.7062V5.80677H120.861H111.707V2.90338V0H104.46H97.2133V2.90338V5.80677H79.2871H61.361V2.90338V0H54.1302H46.8995L46.7881 2.81265ZM59.0725 3.99215V5.80677H54.1142H49.1559V3.99215V2.17754H54.1142H59.0725V3.99215ZM109.418 3.99215V5.80677H104.46H99.5017V3.99215V2.17754H104.46H109.418V3.99215ZM127.726 10.7062V13.4281H79.2871H30.8484V10.7062V7.9843H79.2871H127.726V10.7062ZM120.386 43.46L120.288 71.3143H79.2871H38.2858L38.1882 43.46L38.0905 15.6057H79.2871H120.484L120.386 43.46ZM83.3411 23.6608C76.1794 32.6061 66.3193 45.6256 66.3193 46.1369C66.3193 47.0482 67.0947 47.18 72.4531 47.18C75.163 47.18 77.3801 47.303 77.3801 47.4533C77.3801 47.6035 75.9212 51.5252 74.1381 56.1681C72.355 60.8113 70.8962 64.8354 70.8962 65.1109C70.8962 65.7819 72.0186 66.1579 72.6155 65.6869C74.0508 64.5531 92.0643 41.9147 92.0643 41.2444C92.0643 40.4924 91.8759 40.4597 86.5026 40.2844L80.9409 40.103L83.9269 31.3928C85.5693 26.6022 86.8707 22.3579 86.8188 21.9605C86.6193 20.4329 85.4789 20.9907 83.3411 23.6608ZM52.97 25.0177V26.4934H51.4444C50.0103 26.4934 49.9187 26.5576 49.9187 27.5604C49.9187 28.5312 50.0473 28.6372 51.349 28.7399C52.7015 28.8462 52.7858 28.9264 52.8975 30.2133C53.0055 31.452 53.1168 31.5743 54.1371 31.5743C55.1909 31.5743 55.2584 31.4872 55.2584 30.1226V28.6709H56.8092C58.2765 28.6709 58.3539 28.6168 58.2395 27.6729C58.1354 26.8095 57.9287 26.6599 56.7105 26.5634C55.387 26.4589 55.2947 26.3711 55.1848 25.1117C55.0834 23.9525 54.9262 23.7558 54.0189 23.6568C53.0268 23.5479 52.97 23.6216 52.97 25.0177ZM100.265 27.5821V28.6709H104.46H108.656V27.5821V26.4934H104.46H100.265V27.5821ZM80.2082 35.1698C79.0411 38.6154 78.1791 41.6657 78.2932 41.9481C78.4572 42.3549 79.5358 42.462 83.4708 42.462C86.2043 42.462 88.4409 42.5589 88.4409 42.6775C88.4409 42.8986 77.3278 56.7208 76.3591 57.7047C75.7561 58.3173 75.6302 58.6955 78.6959 50.6785C79.6777 48.112 80.3913 45.7892 80.2814 45.5174C80.1297 45.1411 78.8435 44.9992 74.8849 44.9219L69.6879 44.821L74.0107 39.2777C76.3884 36.2291 79.1918 32.6108 80.2406 31.2375C81.2895 29.8642 82.1889 28.7776 82.2392 28.823C82.2892 28.8683 81.3753 31.7242 80.2082 35.1698ZM5.57019 71.5444C4.57967 72.0721 4.74749 73.1957 5.84671 73.3957C7.42383 73.6824 8.25415 72.2264 6.90511 71.5393C6.47565 71.3205 5.98745 71.3223 5.57019 71.5444ZM0.0992775 72.0228C-0.213095 72.798 0.198062 73.224 1.5265 73.5017C2.88012 73.7844 4.02205 73.011 3.64179 72.0685C3.33476 71.3067 0.403259 71.269 0.0992775 72.0228ZM154.942 72.0449C154.64 72.7932 155.48 73.6733 156.496 73.6733C157.696 73.6733 158.792 72.8099 158.503 72.0928C158.181 71.2926 155.261 71.2534 154.942 72.0449Z" fill="black"/>
</svg>
