<svg width="159" height="64" viewBox="0 0 159 64" fill="none" xmlns="http://www.w3.org/2000/svg">
<path fill-rule="evenodd" clip-rule="evenodd" d="M72.2566 1.03402C62.4321 3.11485 54.0369 9.07822 49.6204 17.114C48.2327 19.6396 46.5395 21.9096 45.8571 22.1593C45.1747 22.409 43.1885 21.6742 41.4432 20.5266C35.9638 16.9232 31.5579 15.5603 25.4473 15.5771C12.0388 15.615 1.31131 25.0212 0.0930817 37.808C-0.742908 46.5937 4.11855 55.8688 12.007 60.5408L15.3175 62.5005L78.8774 62.9856C150.818 63.5346 145.595 63.9836 152.354 56.67C161.914 46.3264 160.195 29.8949 148.688 21.612C143.233 17.6849 138.401 16.3985 130.671 16.8147C125.672 17.0837 123.715 17.6403 119.974 19.8548C113.533 23.6684 112.587 23.4624 109.261 17.5193C104.326 8.70073 95.5469 2.62386 85.0798 0.780959C78.9233 -0.302755 78.5349 -0.295189 72.2566 1.03402ZM91.4384 4.2137C97.5287 6.38365 104.931 12.8918 108.143 18.8997C110.977 24.2006 113.281 25.5466 116.488 23.7769C124.427 19.3958 127.576 18.3776 133.216 18.3701C147.37 18.3499 158.199 29.7798 156.745 43.203C156.127 48.8999 153.672 53.3491 148.77 57.652C144.1 61.7523 141.691 62.3088 131.063 61.7472C126.75 61.5194 99.6792 61.2672 70.9068 61.1864C42.1353 61.1057 17.4697 60.8359 16.0952 60.5853C12.324 59.8984 4.87685 52.3461 3.11394 47.4202C-1.74133 33.8489 7.14029 19.7817 22.2164 17.1678C26.9118 16.3531 34.419 18.022 38.4259 20.7704C45.0979 25.3474 46.8176 24.9875 50.8581 18.17C59.1208 4.22632 75.5838 -1.43607 91.4384 4.2137ZM78.436 9.11353C78.436 11.4256 78.8333 13.3172 79.3188 13.3172C79.8043 13.3172 80.2016 11.4256 80.2016 9.11353C80.2016 6.8015 79.8043 4.90983 79.3188 4.90983C78.8333 4.90983 78.436 6.8015 78.436 9.11353ZM73.4704 8.37788C73.7741 9.82312 74.0221 11.5256 74.0221 12.1612C74.0221 12.7968 74.6083 13.3172 75.3242 13.3172C76.3068 13.3172 76.5045 12.6463 76.1302 10.5848C75.3851 6.47697 75.0559 5.75057 73.9391 5.75057C73.2673 5.75057 73.1067 6.6468 73.4704 8.37788ZM83.3398 6.8015C82.0969 10.6739 82.0863 13.3172 83.3134 13.3172C84.0293 13.3172 84.6154 12.7968 84.6154 12.1612C84.6154 11.5256 84.8635 9.82312 85.1672 8.37788C85.5309 6.6468 85.3702 5.75057 84.6984 5.75057C84.137 5.75057 83.5252 6.22391 83.3398 6.8015ZM68.3962 7.25886C68.1578 7.62626 68.7237 9.54483 69.6533 11.5214C71.892 16.2842 73.5022 15.3064 71.5751 10.3545C70.1556 6.70817 69.2966 5.87164 68.3962 7.25886ZM87.0625 10.3545C85.1354 15.3064 86.7456 16.2842 88.9843 11.5214C90.5777 8.13407 90.6342 6.59131 89.1679 6.59131C88.8157 6.59131 87.8685 8.28456 87.0625 10.3545ZM63.4288 9.55156C63.4288 9.79285 64.4855 11.5105 65.777 13.3694C67.215 15.4393 68.4412 16.4465 68.9409 15.9706C69.934 15.0248 66.1433 9.13875 64.5323 9.12362C63.9258 9.11858 63.4288 9.31111 63.4288 9.55156ZM90.9406 12.1637C89.6782 14.0192 89.1962 15.4939 89.6967 15.9706C90.1964 16.4465 91.4225 15.4393 92.8606 13.3694C95.523 9.5381 95.6484 9.10933 94.1053 9.12362C93.4988 9.12951 92.074 10.4974 90.9406 12.1637ZM59.8977 12.4118C59.8977 13.4963 64.2939 18.3617 65.2729 18.3617C66.8699 18.3617 66.0259 16.1076 63.6009 13.8948C61.0232 11.5424 59.8977 11.0918 59.8977 12.4118ZM94.9325 13.994C92.5657 16.3473 91.8419 18.3617 93.3647 18.3617C94.3437 18.3617 98.7399 13.4963 98.7399 12.4118C98.7399 11.0153 97.3469 11.5937 94.9325 13.994ZM56.8521 15.7714C56.1229 16.8954 62.433 21.3303 63.4129 20.3828C63.8764 19.9347 62.7976 18.6685 60.7849 17.2973C58.9072 16.0185 57.1373 15.3325 56.8521 15.7714ZM78.436 22.0424C78.436 27.2769 78.0961 29.3543 77.1118 30.132C75.3286 31.5411 75.4893 33.5068 77.5824 35.9003L79.3188 37.8853L81.0552 35.9003C83.1483 33.5068 83.3089 31.5411 81.5257 30.132C80.5414 29.3543 80.2016 27.2769 80.2016 22.0424C80.2016 17.9068 79.837 14.9987 79.3188 14.9987C78.8006 14.9987 78.436 17.9068 78.436 22.0424ZM97.5058 17.4528C95.5689 18.9191 94.6464 20.1323 95.2158 20.4677C96.4129 21.1723 102.486 16.85 101.794 15.7848C101.098 14.7112 101.16 14.6876 97.5058 17.4528ZM21.0555 21.0672C21.0555 23.9745 21.9295 26.0326 22.9164 25.4516C23.793 24.9354 23.0356 20.9234 21.8244 19.6648C21.3698 19.1932 21.0555 19.7666 21.0555 21.0672ZM24.5866 22.145C24.5866 23.7634 24.9839 25.0876 25.4694 25.0876C25.9549 25.0876 26.3522 23.7634 26.3522 22.145C26.3522 20.5266 25.9549 19.2024 25.4694 19.2024C24.9839 19.2024 24.5866 20.5266 24.5866 22.145ZM28.7092 19.8195C27.8291 21.1891 27.7205 25.0144 28.5591 25.0918C29.652 25.1927 30.8181 20.1735 29.8356 19.595C29.4437 19.3638 28.9361 19.4647 28.7092 19.8195ZM53.7183 20.0263C53.7183 20.7469 59.9118 24.2469 61.1865 24.2469C61.4487 24.2469 61.6632 23.7491 61.6632 23.1413C61.6632 22.5334 60.2596 21.3984 58.5435 20.6191C54.9842 19.0023 53.7183 18.8468 53.7183 20.0263ZM99.8434 20.6695C98.2658 21.4178 96.9743 22.5284 96.9743 23.1379C96.9743 23.7483 97.1888 24.2469 97.451 24.2469C98.7258 24.2469 104.919 20.7469 104.919 20.0263C104.919 18.8661 103.184 19.0864 99.8434 20.6695ZM17.5244 21.2C17.5244 21.8911 17.9208 23.449 18.4054 24.663C19.6448 27.767 21.1923 26.5522 20.0332 23.3859C19.0039 20.5737 17.5244 19.284 17.5244 21.2ZM31.6471 22.1492C30.5507 24.8967 30.5074 27.0204 31.5623 26.4C31.9993 26.1419 32.7708 24.8043 33.2749 23.4263C34.434 20.2601 32.8865 19.0452 31.6471 22.1492ZM128.592 20.4778C127.807 21.2261 129.113 26.0191 130.078 25.9309C130.564 25.8871 130.828 24.8278 130.665 23.5776C130.349 21.1521 129.39 19.7186 128.592 20.4778ZM136.562 20.4635C136.266 20.9259 135.748 22.5343 135.409 24.0367C134.686 27.2483 136.367 27.9024 137.202 24.7336C137.825 22.3703 137.353 19.226 136.562 20.4635ZM14.0127 22.7756C14.0401 24.2191 17.279 28.1235 17.9331 27.5014C18.5572 26.907 15.6211 21.7381 14.6554 21.7297C14.2908 21.7271 14.0021 22.198 14.0127 22.7756ZM34.6944 23.7727C32.5219 26.9305 33.6395 28.3286 35.9091 25.2927C37.0347 23.7878 37.4963 22.4695 37.0002 22.177C36.5271 21.8987 35.4898 22.6167 34.6944 23.7727ZM125.356 24.2485C125.864 25.6366 126.638 26.9826 127.075 27.2407C128.159 27.878 128.083 25.3524 126.958 23.3506C125.509 20.7738 124.326 21.4363 125.356 24.2485ZM138.604 24.2284C137.429 27.4358 139.002 28.5851 140.259 25.4373C140.757 24.1872 141.376 22.8403 141.633 22.4443C141.89 22.0483 141.519 21.7246 140.81 21.7246C140.101 21.7246 139.108 22.8512 138.604 24.2284ZM121.72 23.1564C121.667 25.059 123.739 28.4505 124.955 28.4505C125.846 28.4505 125.942 28.0588 125.319 26.9793C123.752 24.2637 121.749 22.1358 121.72 23.1564ZM141.96 25.1364C139.665 28.2059 140.532 29.7318 142.955 26.8859C144.475 25.101 145.242 22.5654 144.263 22.5654C144.054 22.5654 143.016 23.7222 141.96 25.1364ZM51.9527 24.2679C51.9527 25.0868 53.4667 25.8148 57.9114 27.1339C59.3239 27.5526 59.8977 27.3811 59.8977 26.5387C59.8977 25.8871 58.3617 24.9152 56.4849 24.3797C52.312 23.1892 51.9527 23.18 51.9527 24.2679ZM101.609 24.4545C100.031 24.9363 98.7399 25.8695 98.7399 26.5269C98.7399 27.7292 99.6986 27.6182 104.699 25.8367C106.799 25.0884 107.455 23.3464 105.581 23.4919C104.975 23.5389 103.186 23.9719 101.609 24.4545ZM12.2277 26.7691C13.988 29.124 15.7968 30.1009 15.7297 28.6607C15.6776 27.5417 12.4184 24.2469 11.3644 24.2469C10.7817 24.2469 11.1534 25.3322 12.2277 26.7691ZM36.949 26.3453C35.8102 27.4997 35.1464 28.6994 35.4739 29.0113C36.1192 29.6251 40.4766 26.0797 40.4766 24.9413C40.4766 23.6575 39.0333 24.2317 36.949 26.3453ZM118.161 25.782C118.161 26.9204 122.518 30.4658 123.164 29.8521C123.491 29.5401 122.827 28.3404 121.689 27.1861C119.604 25.0725 118.161 24.4982 118.161 25.782ZM144.697 27.1365C143.531 28.3177 142.855 29.5486 143.194 29.8722C144.039 30.676 147.585 27.1827 147.158 25.9662C146.955 25.3818 145.962 25.8535 144.697 27.1365ZM8.69663 27.5905C8.69663 28.7507 13.0364 31.3234 13.7867 30.6087C14.1284 30.2834 13.4213 29.2947 12.2145 28.4119C9.76302 26.6177 8.69663 26.3689 8.69663 27.5905ZM24.5866 32.1843C24.5866 35.163 24.1894 37.8332 23.7038 38.1191C22.483 38.8379 22.6445 40.3487 24.1461 42.237C25.1948 43.557 25.6486 43.6486 26.7662 42.765C28.2855 41.5636 28.5838 38.072 27.2349 37.2783C26.7494 36.9925 26.3522 34.5114 26.3522 31.7639C26.3522 28.9945 25.9584 26.7691 25.4694 26.7691C24.9724 26.7691 24.5866 29.1349 24.5866 32.1843ZM38.9317 28.4035C36.6701 30.2001 36.4247 30.9728 38.1161 30.9728C38.7596 30.9728 40.2188 30.0269 41.3594 28.8709C43.8559 26.3403 41.9826 25.9788 38.9317 28.4035ZM116.1 28.1714C115.446 28.7953 119.37 31.8135 120.836 31.8135C121.649 31.8135 121.632 31.4974 120.77 30.5062C119.276 28.7927 116.765 27.5375 116.1 28.1714ZM146.631 29.2442C145.538 30.1119 144.644 31.0451 144.644 31.3175C144.644 32.3953 147.1 31.7278 148.48 30.2758C151.227 27.3845 149.901 26.6446 146.631 29.2442ZM51.0699 29.145C51.0699 30.0454 54.0537 30.9442 57.1019 30.961C58.359 30.9686 59.0202 30.5625 58.7995 29.9218C58.3775 28.7002 51.0699 27.9663 51.0699 29.145ZM100.211 29.0113C99.048 30.1194 99.6597 30.9728 101.609 30.961C104.532 30.9442 107.568 30.0438 107.568 29.1929C107.568 28.3345 101.091 28.1739 100.211 29.0113ZM6.51087 30.0992C6.22485 30.5406 7.1756 31.4848 8.62424 32.1977C11.7025 33.7144 12.2277 33.7842 12.2277 32.6761C12.2277 31.4495 7.12705 29.15 6.51087 30.0992ZM41.1387 30.6878C39.0174 31.7513 37.8115 33.495 39.1966 33.495C40.6849 33.495 44.8675 30.7769 44.4261 30.0959C44.1384 29.6536 43.8276 29.3316 43.7349 29.3804C43.6422 29.4292 42.4743 30.0177 41.1387 30.6878ZM81.4639 31.5428C81.7853 32.3407 81.4427 33.5135 80.6756 34.2449C79.4547 35.4068 79.1828 35.4068 77.962 34.2449C76.305 32.6669 77.141 30.132 79.3188 30.132C80.1857 30.132 81.1514 30.7668 81.4639 31.5428ZM113.747 31.6781C113.747 32.4113 117.613 34.3357 119.085 34.3357C120.732 34.3357 119.89 32.909 117.678 31.9489C115.019 30.7945 113.747 30.7071 113.747 31.6781ZM148.396 31.9985C146.62 32.8148 145.643 34.3357 146.895 34.3357C147.712 34.3357 152.589 31.7967 152.589 31.3713C152.589 30.7155 150.515 31.0257 148.396 31.9985ZM5.16552 33.516C5.16552 34.3357 8.76548 36.0172 10.5196 36.0172C12.4114 36.0172 11.1419 34.4324 8.56509 33.5774C5.16993 32.4499 5.16552 32.45 5.16552 33.516ZM42.4628 33.7573C38.9715 34.7569 38.5751 36.4393 42.0215 35.6288C44.4606 35.0546 46.4274 33.7766 45.7141 33.2293C45.504 33.0679 44.0413 33.305 42.4628 33.7573ZM52.6148 33.2335C49.6204 33.9793 51.1176 35.1765 55.0424 35.1765C57.9847 35.1765 59.0149 34.8494 59.0149 33.9154C59.0149 32.666 56.1291 32.3591 52.6148 33.2335ZM99.6227 33.9154C99.6227 34.8494 100.653 35.1765 103.595 35.1765C107.792 35.1765 108.927 34.0381 105.581 33.1839C102.078 32.2902 99.6227 32.5912 99.6227 33.9154ZM112.864 34.8351C112.864 35.485 113.361 36.0223 113.968 36.029C114.575 36.0349 115.965 36.2686 117.058 36.5469C120.325 37.3809 119.301 35.5338 115.954 34.5552C113.438 33.8204 112.864 33.8716 112.864 34.8351ZM150.162 34.6182C148.584 35.0596 147.293 35.7734 147.293 36.2055C147.293 36.652 148.533 36.7386 150.162 36.4065C153.46 35.733 153.771 35.5514 153.343 34.5493C153.169 34.1415 151.761 34.1718 150.162 34.6182ZM43.3456 36.6251C39.5055 37.0791 39.6733 38.5394 43.5663 38.5394C45.7238 38.5394 46.656 38.1594 46.656 37.2783C46.656 36.5847 46.5572 36.0777 46.4353 36.1517C46.3135 36.2257 44.924 36.4393 43.3456 36.6251ZM55.7045 37.0782C53.5752 37.5659 51.9527 38.4318 51.9527 39.0792C51.9527 40.4462 52.3129 40.4664 56.5873 39.3356C58.472 38.8379 59.8977 37.9341 59.8977 37.2388C59.8977 36.5671 59.7988 36.0626 59.677 36.1181C59.5552 36.1736 57.7684 36.6057 55.7045 37.0782ZM4.28274 37.6987C4.28274 38.1611 5.67312 38.5394 7.37246 38.5394C9.07181 38.5394 10.4622 38.1611 10.4622 37.6987C10.4622 37.2363 9.07181 36.8579 7.37246 36.8579C5.67312 36.8579 4.28274 37.2363 4.28274 37.6987ZM98.7399 37.6592C98.7399 38.0997 100.23 38.8547 102.05 39.3356C106.331 40.4681 106.685 40.4471 106.685 39.0649C106.685 38.4293 105.444 37.6726 103.926 37.3834C100.094 36.6536 98.7399 36.7251 98.7399 37.6592ZM27.2349 39.8501C27.2349 40.5168 26.4404 41.0616 25.4694 41.0616C23.4831 41.0616 23.2051 40.1915 24.7279 38.7412C25.9452 37.5818 27.2349 38.1527 27.2349 39.8501ZM111.982 38.5394C111.982 39.0018 113.372 39.3802 115.071 39.3802C116.771 39.3802 118.161 39.0018 118.161 38.5394C118.161 38.077 116.771 37.6987 115.071 37.6987C113.372 37.6987 111.982 38.077 111.982 38.5394ZM148.175 38.5394C148.175 39.0018 149.566 39.3802 151.265 39.3802C152.964 39.3802 154.355 39.0018 154.355 38.5394C154.355 38.077 152.964 37.6987 151.265 37.6987C149.566 37.6987 148.175 38.077 148.175 38.5394ZM57.0287 41.1642C53.9416 42.6742 52.6218 44.4246 54.571 44.4246C55.9729 44.4246 61.6632 41.6418 61.6632 40.9557C61.6632 39.5559 60.1793 39.6231 57.0287 41.1642ZM97.3751 40.2831C96.6857 41.3458 96.6645 41.3248 100.241 43.0567C103.467 44.6188 104.919 44.7878 104.919 43.6007C104.919 42.2732 98.046 39.2499 97.3751 40.2831ZM123.237 39.9922C121.417 40.1738 119.927 40.6396 119.927 41.028C119.927 42.0512 128.113 42.5994 129.407 41.6628C130.81 40.6463 129.976 39.3381 128.04 39.5214C127.219 39.5996 125.058 39.8115 123.237 39.9922ZM135.369 40.2302C134.537 41.5114 136.692 42.897 138.465 42.2202C139.193 41.9419 140.853 41.6577 142.153 41.5888C145.24 41.4257 146.495 40.2209 143.578 40.2209C142.344 40.2209 140.14 39.9939 138.682 39.7156C137.032 39.4012 135.78 39.5962 135.369 40.2302ZM4.28274 41.0616C4.28274 41.5241 5.67312 41.9024 7.37246 41.9024C9.07181 41.9024 10.4622 41.5241 10.4622 41.0616C10.4622 40.5992 9.07181 40.2209 7.37246 40.2209C5.67312 40.2209 4.28274 40.5992 4.28274 41.0616ZM40.4766 41.0616C40.4766 41.5241 41.867 41.9024 43.5663 41.9024C45.2657 41.9024 46.656 41.5241 46.656 41.0616C46.656 40.5992 45.2657 40.2209 43.5663 40.2209C41.867 40.2209 40.4766 40.5992 40.4766 41.0616ZM111.982 41.9024C111.982 42.3648 113.372 42.7431 115.071 42.7431C116.771 42.7431 118.161 42.3648 118.161 41.9024C118.161 41.44 116.771 41.0616 115.071 41.0616C113.372 41.0616 111.982 41.44 111.982 41.9024ZM148.175 41.9024C148.175 42.3648 149.566 42.7431 151.265 42.7431C152.964 42.7431 154.355 42.3648 154.355 41.9024C154.355 41.44 152.964 41.0616 151.265 41.0616C149.566 41.0616 148.175 41.44 148.175 41.9024ZM6.71038 43.3224C4.94659 43.7613 4.60142 45.2712 6.26899 45.2536C8.43091 45.2317 11.345 44.2161 11.345 43.4855C11.345 42.7188 9.40903 42.6507 6.71038 43.3224ZM40.8659 43.9437C41.8087 44.6709 43.576 45.2653 44.7943 45.2653C47.8999 45.2653 46.0716 43.7444 42.2148 43.1189C39.321 42.6498 39.2469 42.6952 40.8659 43.9437ZM58.9381 45.2183C57.2811 46.5407 56.2139 47.9044 56.5679 48.2474C57.2299 48.8906 63.412 45.299 63.4226 44.264C63.4394 42.6733 61.6482 43.0542 58.9381 45.2183ZM95.6237 43.6242C94.8265 44.8525 100.919 49.3547 101.994 48.3324C102.686 47.6732 101.602 46.3659 98.7752 44.4481C97.0767 43.2963 96.0165 43.0197 95.6237 43.6242ZM114.798 44.2985C113.011 44.7777 112.051 45.9926 113.321 46.17C114.753 46.3701 119.044 45.0114 119.044 44.3582C119.044 43.4973 117.847 43.4805 114.798 44.2985ZM147.293 44.3338C147.293 45.4621 152.92 46.93 153.343 45.9119C153.77 44.8879 153.469 44.7105 150.162 44.0353C148.355 43.6671 147.293 43.7772 147.293 44.3338ZM8.47593 46.3575C6.13304 47.2394 5.16199 48.6283 6.88958 48.6283C8.36205 48.6283 12.2277 46.7038 12.2277 45.9707C12.2277 45.1132 11.6169 45.1762 8.47593 46.3575ZM38.711 45.9707C38.711 46.7038 42.5767 48.6283 44.0492 48.6283C45.6956 48.6283 44.8543 47.2016 42.6421 46.2414C39.9831 45.0871 38.711 44.9997 38.711 45.9707ZM61.838 48.0364C58.7748 51.0463 58.3776 51.9913 60.174 51.9913C62.0623 51.9913 66.5512 47.062 65.5395 46.0985C64.9569 45.5436 63.7113 46.1952 61.838 48.0364ZM93.0045 46.101C92.2753 47.226 96.6918 51.9913 98.4636 51.9913C100.339 51.9913 99.8169 50.8193 96.6327 47.8792C94.6067 46.0094 93.437 45.436 93.0045 46.101ZM116.175 47.4277C112.625 49.2614 113.203 50.5292 116.837 48.8797C118.536 48.1079 119.927 47.1679 119.927 46.7913C119.927 45.8228 118.966 45.9859 116.175 47.4277ZM146.41 46.925C146.41 48.1516 151.511 50.451 152.127 49.5018C152.413 49.0604 151.462 48.1163 150.013 47.4033C146.935 45.8867 146.41 45.8169 146.41 46.925ZM9.8001 49.422C8.70722 50.2896 7.81385 51.2228 7.81385 51.4952C7.81385 52.5714 9.60147 51.8904 11.9576 49.9163C14.9078 47.4437 12.8757 46.9779 9.8001 49.422ZM37.8283 48.609C37.8283 49.7692 42.168 52.3419 42.9184 51.6272C43.26 51.3019 42.5529 50.3132 41.3461 49.4304C38.8947 47.6362 37.8283 47.3874 37.8283 48.609ZM65.2667 50.6192C63.3794 53.5273 62.923 55.3618 64.0909 55.3441C64.9092 55.3307 68.7255 49.8104 68.7255 48.6401C68.7255 46.9098 67.0517 47.8674 65.2667 50.6192ZM89.9121 48.6401C89.9121 49.8104 93.7284 55.3307 94.5467 55.3441C95.7146 55.3618 95.2582 53.5273 93.3708 50.6192C91.5859 47.8674 89.9121 46.9098 89.9121 48.6401ZM117.374 50.3585C116.213 51.28 115.505 52.2645 115.801 52.5462C116.493 53.2053 120.809 50.5359 120.809 49.4497C120.809 48.2113 119.717 48.5005 117.374 50.3585ZM144.03 50.2131C143.16 51.5381 143.342 52.1132 145.138 53.7198C147.969 56.2521 149.072 55.1113 146.406 52.4083C145.268 51.2539 144.755 50.3098 145.265 50.3098C145.776 50.3098 146.688 50.8773 147.293 51.5709C148.362 52.7975 150.824 53.3314 150.824 52.336C150.824 51.5936 146.985 48.6888 145.961 48.656C145.47 48.6409 144.601 49.3413 144.03 50.2131ZM12.2313 51.5675C11.0925 52.7219 10.4286 53.9216 10.7561 54.2335C11.4015 54.8473 15.7588 51.3019 15.7588 50.1635C15.7588 48.8797 14.3155 49.4539 12.2313 51.5675ZM34.8736 50.7192C33.2961 51.8382 33.2952 51.9593 34.8427 54.4555C35.7228 55.8746 36.7548 57.0357 37.1362 57.0357C38.2017 57.0357 37.9616 55.8427 36.5324 54.0435C34.4569 51.4305 34.9822 50.6806 37.3833 52.8286C40.2665 55.408 41.4794 54.2369 38.6643 51.5919C36.7654 49.8079 36.3072 49.7019 34.8736 50.7192ZM69.1783 52.5142C67.6688 55.9562 67.5214 57.0357 68.5621 57.0357C69.3205 57.0357 72.2566 51.6684 72.2566 50.2812C72.2566 48.3685 70.4098 49.7087 69.1783 52.5142ZM86.381 50.2812C86.381 51.6684 89.3171 57.0357 90.0754 57.0357C91.1162 57.0357 90.9688 55.9562 89.4592 52.5142C88.2278 49.7087 86.381 48.3685 86.381 50.2812ZM119.877 52.4612C117.218 55.1575 118.416 56.2084 121.254 53.6694C123.788 51.4027 124.104 51.9526 122.014 54.9893C120.08 57.8008 121.362 58.8307 123.498 56.1824C125.627 53.5441 125.638 52.6428 123.559 51.4061C122.168 50.578 121.564 50.7512 119.877 52.4612ZM14.7075 53.6593C13.8865 55.0331 13.5457 56.3522 13.9492 56.5893C14.7313 57.05 17.5244 53.4802 17.5244 52.0207C17.5244 50.388 16.2029 51.1573 14.7075 53.6593ZM139.888 53.2448C138.418 54.3058 138.353 54.7481 139.333 57.0029C140.37 59.3864 142.68 60.8123 141.77 58.507C141.542 57.9294 141.081 56.5102 140.747 55.3542L140.139 53.2524L142.024 55.5644C143.823 57.7714 145.532 58.5928 145.523 57.2459C145.52 56.8995 144.627 55.5863 143.536 54.3285C141.752 52.2696 141.389 52.1611 139.888 53.2448ZM17.5023 54.9885C16.4465 57.6343 16.4112 58.7172 17.3823 58.7172C18.1521 58.7172 20.1727 55.0356 20.1727 53.6332C20.1727 51.9795 18.3304 52.9144 17.5023 54.9885ZM30.7661 53.1271C30.7661 53.2894 31.2021 54.6135 31.7353 56.0697C32.6331 58.5238 34.2972 59.7328 34.2972 57.9311C34.2972 56.2605 32.5316 52.832 31.6709 52.832C31.173 52.832 30.7661 52.9648 30.7661 53.1271ZM125.365 55.8141C124.135 58.3859 124.063 59.5579 125.137 59.5579C125.769 59.5579 127.872 55.2584 127.872 53.9678C127.872 52.8303 126.206 54.057 125.365 55.8141Z" fill="black"/>
</svg>
