<svg width="159" height="126" viewBox="0 0 159 126" fill="none" xmlns="http://www.w3.org/2000/svg">
<path fill-rule="evenodd" clip-rule="evenodd" d="M39.988 2.09616C38.2262 3.23595 36.2983 4.52504 35.7044 4.96007C34.8696 5.57107 34.111 5.69327 32.3678 5.49686C30.1502 5.24669 30.0214 5.30179 24.9063 8.71494C22.0434 10.6253 19.5868 12.364 19.4473 12.5791C19.3078 12.7942 19.1729 13.6562 19.1482 14.4948C19.1067 15.8923 18.7638 16.2447 15.0325 18.7238C12.7939 20.211 10.5785 21.8321 10.1092 22.3258C9.08921 23.3993 8.9539 26.6459 9.88473 27.7141C10.4586 28.3726 10.6583 28.342 12.171 27.3631L13.8287 26.2904L14.6047 27.2653C15.0311 27.8016 15.8504 28.8854 16.4248 29.6742L17.4695 31.1081L16.2792 32.7767C14.8888 34.7257 14.7022 37.6616 15.759 40.9765C16.5372 43.4201 16.9399 42.9517 10.3294 47.2967C2.67699 52.3264 0.0361459 56.2026 0.000219246 62.4561C-0.0151779 65.133 0.770076 68.1804 5.63045 84.3072C8.73694 94.6146 11.6573 103.813 12.1201 104.748C13.1877 106.904 16.7435 110.322 19.1212 111.477C21.7718 112.765 25.7065 113.336 31.9381 113.336H37.4181L38.166 115.891C39.8649 121.694 40.5806 122.929 43.0917 124.387C44.5139 125.213 45.4293 125.33 50.432 125.332C55.8373 125.333 56.1476 125.285 56.1476 124.445C56.1476 123.852 56.4588 123.556 57.0807 123.556C57.7027 123.556 58.0139 123.852 58.0139 124.445C58.0139 125.235 58.3251 125.333 60.8134 125.333C63.3017 125.333 63.6129 125.235 63.6129 124.445C63.6129 123.852 63.9241 123.556 64.546 123.556C65.168 123.556 65.4792 123.852 65.4792 124.445C65.4792 125.235 65.7904 125.333 68.2787 125.333C70.767 125.333 71.0782 125.235 71.0782 124.445C71.0782 123.852 71.3894 123.556 72.0113 123.556C72.6333 123.556 72.9445 123.852 72.9445 124.445C72.9445 125.226 73.2557 125.333 75.5107 125.333C77.7657 125.333 78.0769 125.226 78.0769 124.445C78.0769 123.793 78.3881 123.556 79.2433 123.556C80.0986 123.556 80.4098 123.793 80.4098 124.445C80.4098 125.226 80.721 125.333 82.976 125.333C85.2309 125.333 85.5422 125.226 85.5422 124.445C85.5422 123.852 85.8534 123.556 86.4753 123.556C87.0973 123.556 87.4085 123.852 87.4085 124.445C87.4085 125.235 87.7197 125.333 90.208 125.333C92.6962 125.333 93.0075 125.235 93.0075 124.445C93.0075 123.852 93.3187 123.556 93.9406 123.556C94.5626 123.556 94.8738 123.852 94.8738 124.445C94.8738 125.235 95.185 125.333 97.6733 125.333C100.162 125.333 100.473 125.235 100.473 124.445C100.473 123.852 100.784 123.556 101.406 123.556C102.028 123.556 102.339 123.852 102.339 124.445C102.339 125.285 102.649 125.333 108.055 125.332C113.057 125.33 113.973 125.213 115.395 124.387C117.906 122.929 118.622 121.694 120.321 115.891L121.069 113.336H126.549C132.78 113.336 136.715 112.765 139.365 111.477C141.743 110.322 145.299 106.904 146.367 104.748C146.829 103.813 149.75 94.6146 152.856 84.3072C159.176 63.336 159.442 61.7451 157.45 56.8363C156.036 53.3547 153.624 50.932 147.395 46.7399L142.04 43.1361L142.714 41.0205C143.784 37.6629 143.604 34.7337 142.207 32.7767L141.017 31.1081L142.062 29.6742C142.636 28.8854 143.456 27.8016 143.882 27.2653L144.658 26.2904L146.316 27.3631C147.828 28.342 148.028 28.3726 148.602 27.7141C149.533 26.6459 149.397 23.3993 148.378 22.3258C147.908 21.8321 145.647 20.1808 143.353 18.6562C140.218 16.5735 139.244 15.6954 139.435 15.1226C139.972 13.5123 138.73 12.1507 133.606 8.73182C128.464 5.30134 128.337 5.24669 126.119 5.49686C124.376 5.69327 123.617 5.57107 122.782 4.96007C122.188 4.52504 120.26 3.23595 118.499 2.09616C114.959 -0.19453 112.78 -0.564683 110.725 0.775069C108.937 1.94063 108.854 2.32989 110.193 3.28661C110.877 3.77496 111.627 4.33086 111.859 4.52238C112.097 4.71834 111.522 5.91901 110.544 7.27165L108.807 9.67343L107.089 9.08909C106.145 8.76782 104.69 8.49631 103.855 8.48565C102.643 8.47009 102.339 8.64428 102.339 9.35482C102.339 9.94715 102.028 10.2435 101.406 10.2435C100.784 10.2435 100.473 9.94715 100.473 9.35482C100.473 8.56474 100.162 8.46609 97.6733 8.46609C95.185 8.46609 94.8738 8.56474 94.8738 9.35482C94.8738 9.94715 94.5626 10.2435 93.9406 10.2435C93.3187 10.2435 93.0075 9.94715 93.0075 9.35482C93.0075 8.56474 92.6962 8.46609 90.208 8.46609C87.7197 8.46609 87.4085 8.56474 87.4085 9.35482C87.4085 9.94715 87.0973 10.2435 86.4753 10.2435C85.8534 10.2435 85.5422 9.94715 85.5422 9.35482C85.5422 8.57363 85.2309 8.46609 82.976 8.46609C80.5544 8.46609 80.1518 8.68783 80.3547 9.91027C80.385 10.0938 79.8849 10.2435 79.2433 10.2435C78.6018 10.2435 78.1016 10.0938 78.1319 9.91027C78.3349 8.68783 77.9322 8.46609 75.5107 8.46609C73.2557 8.46609 72.9445 8.57363 72.9445 9.35482C72.9445 9.94715 72.6333 10.2435 72.0113 10.2435C71.3894 10.2435 71.0782 9.94715 71.0782 9.35482C71.0782 8.56474 70.767 8.46609 68.2787 8.46609C65.7904 8.46609 65.4792 8.56474 65.4792 9.35482C65.4792 9.94715 65.168 10.2435 64.546 10.2435C63.9241 10.2435 63.6129 9.94715 63.6129 9.35482C63.6129 8.56474 63.3017 8.46609 60.8134 8.46609C58.3251 8.46609 58.0139 8.56474 58.0139 9.35482C58.0139 9.94715 57.7027 10.2435 57.0807 10.2435C56.4588 10.2435 56.1476 9.94715 56.1476 9.35482C56.1476 8.64428 55.8434 8.47009 54.6312 8.48565C53.7974 8.49631 52.3417 8.76782 51.3973 9.08909L49.6798 9.67343L47.9428 7.27165C46.9643 5.91901 46.39 4.71834 46.6275 4.52238C46.8594 4.33086 47.6092 3.77496 48.2932 3.28661C49.6327 2.32989 49.5501 1.94063 47.7617 0.775069C45.7064 -0.564683 43.528 -0.19453 39.988 2.09616ZM46.6508 2.02284C46.7278 2.26724 38.7651 7.79999 28.9567 14.3183C12.1588 25.4803 11.1137 26.1028 10.9686 25.0306C10.8767 24.3512 11.166 23.5575 11.6871 23.0616C12.1668 22.6044 19.5849 17.5369 28.1714 11.8001C40.8727 3.31415 44.0375 1.38918 45.147 1.47405C45.8973 1.53137 46.5738 1.77844 46.6508 2.02284ZM115.084 1.87042C116.876 2.77514 146.453 22.5746 147.071 23.2834C147.397 23.6584 147.597 24.4614 147.514 25.0679C147.364 26.173 143.74 23.8837 112.67 3.05376C110.695 1.72956 112.78 0.707526 115.084 1.87042ZM46.5533 8.04173C47.4837 9.27483 48.1322 10.4568 47.995 10.6688C47.8574 10.8803 41.4998 15.2022 33.8665 20.2728C26.2332 25.3439 19.7478 29.6671 19.4552 29.8804C18.8799 30.2994 15.3484 26.1419 15.6325 25.3799C15.7888 24.9608 43.981 5.91456 44.5559 5.83991C44.7243 5.81769 45.6234 6.80862 46.5533 8.04173ZM128.32 15.3813C136.228 20.6514 142.768 25.151 142.854 25.3803C143.138 26.1419 139.607 30.2994 139.031 29.8804C138.739 29.6671 132.253 25.3439 124.62 20.2728C116.987 15.2022 110.629 10.8803 110.492 10.6688C110.277 10.3377 113.345 5.79992 113.783 5.79992C113.87 5.79992 120.412 10.1116 128.32 15.3813ZM32.1406 7.09924C31.8625 7.5276 21.2497 14.6872 20.8923 14.6872C20.7794 14.6872 20.6875 14.4006 20.6875 14.0504C20.6875 13.2639 30.397 6.69309 31.563 6.69042C32.0272 6.68953 32.2871 6.8735 32.1406 7.09924ZM132.783 10.0529C135.542 11.901 137.799 13.6998 137.799 14.0504C137.799 14.4006 137.707 14.6872 137.594 14.6872C137.237 14.6872 126.624 7.5276 126.346 7.09924C126.2 6.8735 126.459 6.68953 126.924 6.69042C127.388 6.69176 130.025 8.20481 132.783 10.0529ZM57.1017 11.7988C59.3861 11.7988 59.6623 11.6962 59.7963 10.799C59.8896 10.1711 60.2684 9.79918 60.8134 9.79918C61.3584 9.79918 61.7372 10.1711 61.8305 10.799C61.9607 11.6699 62.2952 11.8161 64.4294 11.933C66.7814 12.0619 66.8789 12.0223 66.8789 10.9332C66.8789 10.0285 67.108 9.79918 68.0127 9.79918C68.8339 9.79918 69.188 10.0751 69.2958 10.799C69.426 11.6699 69.7605 11.8161 71.8947 11.933C74.2467 12.0619 74.3442 12.0223 74.3442 10.9332C74.3442 10.02 74.571 9.79918 75.5107 9.79918C76.4438 9.79918 76.6771 10.0214 76.6771 10.9101C76.6771 11.9606 76.8171 12.021 79.2433 12.021C81.6695 12.021 81.8095 11.9606 81.8095 10.9101C81.8095 10.0214 82.0428 9.79918 82.976 9.79918C83.9157 9.79918 84.1424 10.02 84.1424 10.9332C84.1424 12.0223 84.2399 12.0619 86.592 11.933C88.7261 11.8161 89.0607 11.6699 89.1908 10.799C89.2986 10.0751 89.6527 9.79918 90.4739 9.79918C91.3786 9.79918 91.6077 10.0285 91.6077 10.9332C91.6077 12.0223 91.7052 12.0619 94.0573 11.933C96.1914 11.8161 96.5259 11.6699 96.6561 10.799C96.7494 10.1711 97.1283 9.79918 97.6733 9.79918C98.2182 9.79918 98.5971 10.1711 98.6904 10.799C98.8243 11.6962 99.1005 11.7988 101.385 11.7988C103.605 11.7988 103.962 11.6762 104.184 10.8368C104.422 9.93827 104.549 9.91072 106.108 10.4244C108.695 11.2776 140.138 32.4501 141.139 34.0134C141.61 34.7483 141.981 35.9499 141.963 36.6831C141.946 37.4163 140.838 41.6155 139.502 46.0147C137.36 53.0645 136.95 54.0301 136.045 54.1541C135.282 54.259 134.885 54.7709 134.495 56.1537C134.207 57.1762 133.867 58.176 133.739 58.3756C133.611 58.5755 133.947 58.8488 134.486 58.983C135.025 59.1172 135.463 59.4536 135.459 59.7309C135.446 60.6902 134.688 61.3741 133.942 61.1013C133.358 60.8875 133.033 61.3394 132.468 63.1516C131.807 65.2689 131.809 65.5213 132.489 65.9946C133.547 66.7313 133.131 68.2662 131.917 68.1066C131.162 68.0071 130.842 68.3488 130.413 69.7135C129.683 72.0308 129.725 72.8987 130.567 72.8987C130.952 72.8987 131.264 73.1488 131.26 73.4541C131.247 74.4664 130.439 75.2538 129.693 74.9814C129.128 74.7747 128.792 75.2462 128.237 77.0268C127.592 79.0962 127.591 79.393 128.225 79.8347C128.615 80.1062 128.934 80.7603 128.934 81.2878C128.934 82.073 128.735 82.1996 127.837 81.985C126.842 81.7472 126.674 81.9432 126.043 84.0872C125.38 86.3362 125.39 86.4677 126.242 86.7828C127.446 87.2284 127.109 88.6348 125.755 88.8188C124.673 88.9655 124.18 89.7591 123.604 92.2817C123.342 93.4322 123.445 93.7077 124.214 93.8992C124.901 94.0698 125.072 94.3814 124.874 95.1008C124.671 95.8393 124.362 96.0126 123.579 95.8255C122.667 95.6073 122.47 95.8549 121.842 98.0042C121.17 100.302 121.178 100.442 122.001 100.691C122.478 100.835 122.869 101.106 122.869 101.293C122.869 102.399 117.602 119.209 116.773 120.75C115.378 123.342 113.693 124 108.451 124C104.517 124 104.205 123.935 104.205 123.112C104.205 122.322 103.894 122.223 101.406 122.223C98.9176 122.223 98.6064 122.322 98.6064 123.112C98.6064 123.704 98.2952 124 97.6733 124C97.0513 124 96.7401 123.704 96.7401 123.112C96.7401 122.33 96.4289 122.223 94.1739 122.223C91.9189 122.223 91.6077 122.33 91.6077 123.112C91.6077 123.763 91.2965 124 90.4413 124C89.586 124 89.2748 123.763 89.2748 123.112C89.2748 122.33 88.9636 122.223 86.7086 122.223C84.4536 122.223 84.1424 122.33 84.1424 123.112C84.1424 123.763 83.8312 124 82.976 124C82.1207 124 81.8095 123.763 81.8095 123.112C81.8095 122.33 81.4983 122.223 79.2433 122.223C76.9883 122.223 76.6771 122.33 76.6771 123.112C76.6771 123.763 76.3659 124 75.5107 124C74.6554 124 74.3442 123.763 74.3442 123.112C74.3442 122.33 74.033 122.223 71.778 122.223C69.5231 122.223 69.2118 122.33 69.2118 123.112C69.2118 123.763 68.9006 124 68.0454 124C67.1902 124 66.8789 123.763 66.8789 123.112C66.8789 122.33 66.5677 122.223 64.3128 122.223C62.0578 122.223 61.7466 122.33 61.7466 123.112C61.7466 123.704 61.4353 124 60.8134 124C60.1914 124 59.8802 123.704 59.8802 123.112C59.8802 122.322 59.569 122.223 57.0807 122.223C54.5925 122.223 54.2813 122.322 54.2813 123.112C54.2813 123.935 53.9701 124 50.0359 124C44.9739 124 43.1771 123.341 41.817 120.985C41.2935 120.077 39.6628 115.26 38.194 110.279C36.0384 102.97 35.6451 101.15 36.1541 100.843C36.5008 100.634 36.9137 100.46 37.0719 100.456C37.2301 100.452 37.0392 99.3533 36.6483 98.0145C36.017 95.8549 35.8201 95.6073 34.9074 95.8255C34.1245 96.0126 33.8152 95.8393 33.6122 95.1008C33.4144 94.3814 33.5856 94.0698 34.2724 93.8992C35.0414 93.7077 35.1449 93.4322 34.8827 92.2817C34.257 89.5422 33.783 88.7842 32.8405 89.0192C31.3675 89.3858 30.8477 87.3013 32.2797 86.7708C33.0906 86.4704 33.0999 86.3144 32.4439 84.0872C31.8126 81.9432 31.6446 81.7472 30.6499 81.985C29.7517 82.1996 29.5525 82.073 29.5525 81.2878C29.5525 80.7603 29.8716 80.1062 30.2617 79.8347C30.8958 79.393 30.8944 79.0962 30.2496 77.0268C29.6943 75.2462 29.3584 74.7747 28.7934 74.9814C28.0576 75.2502 27.2401 74.4699 27.2266 73.4852C27.2229 73.1964 27.6064 72.8964 28.0795 72.8187C28.8914 72.6845 28.9012 72.5449 28.2479 70.3262C27.6703 68.3635 27.396 67.9969 26.5832 68.1044C25.3565 68.2662 24.9319 66.7367 25.9976 65.9946C26.6774 65.5213 26.6793 65.2689 26.0191 63.1516C25.4541 61.3394 25.1288 60.8875 24.5447 61.1013C23.7982 61.3741 23.0409 60.6902 23.0274 59.7309C23.0236 59.4536 23.4613 59.1172 24.0007 58.983C24.5396 58.8488 24.876 58.5755 24.7477 58.3756C24.6193 58.176 24.2792 57.1762 23.9913 56.1537C23.6017 54.7709 23.2051 54.259 22.4413 54.1541C21.5366 54.0301 21.1265 53.0645 18.9849 46.0147C17.6482 41.6155 16.5405 37.4163 16.5232 36.6831C16.506 35.9499 16.8769 34.7483 17.3477 34.0134C18.3485 32.4501 49.7918 11.2776 52.3785 10.4244C53.9374 9.91072 54.0648 9.93827 54.3023 10.8368C54.5244 11.6762 54.8813 11.7988 57.1017 11.7988ZM70.0414 19.9711C65.6448 21.6508 62.5444 24.4729 60.5591 28.6033C59.9138 29.9452 59.0917 31.1512 58.7324 31.2823C58.3727 31.4139 54.2845 34.0511 49.6477 37.1426C44.428 40.6228 41.2203 43.0442 41.2259 43.5005C41.231 43.9058 45.1867 57.4348 50.0167 73.5652L58.7987 102.893L60.6529 103.115C62.2047 103.301 62.9755 103.815 65.3784 106.268C70.0928 111.079 75.5261 113.321 82.4963 113.33C94.4758 113.347 104.558 104.461 105.475 93.0758L105.729 89.9244L110.949 82.8768C115.921 76.1656 116.31 75.7612 119.114 74.3975C125.995 71.0505 129.315 65.2352 128.414 58.1094C127.753 52.8766 123.937 47.6713 119.344 45.7361C117.731 45.0567 117.27 44.6283 117.27 43.8089C117.27 42.9557 115.963 41.8861 110.388 38.1731C98.229 30.0768 99.4318 30.6842 95.561 30.6842H92.1429L91.0002 28.3513C89.2916 24.8626 86.8603 22.4777 83.318 20.8158C80.6379 19.5583 79.6413 19.3374 76.2222 19.2414C73.1969 19.1566 71.7174 19.3312 70.0414 19.9711ZM82.4945 22.2013C87.8998 24.7355 90.8831 29.3436 90.8635 35.1278C90.8481 39.6297 89.5641 42.3643 85.9821 45.5224C82.7315 48.3885 80.1046 49.3474 75.5023 49.3474C62.3405 49.3474 55.7608 33.8401 65.1414 24.9279C70.027 20.2866 76.3067 19.3001 82.4945 22.2013ZM72.6739 30.6331C68.4075 33.1113 70.0704 39.6737 75.1285 40.3198C78.7427 40.7815 81.3429 38.4139 81.3429 34.6613C81.3429 33.1566 81.0509 32.539 79.7566 31.3063C78.4375 30.0501 77.8277 29.7959 76.1406 29.7973C74.9788 29.7982 73.4965 30.1559 72.6739 30.6331ZM78.5794 32.4274C80.735 34.4804 80.1737 37.3763 77.4059 38.4774C74.6923 39.5577 72.0113 37.8967 72.0113 35.1354C72.0113 31.5001 75.9157 29.8906 78.5794 32.4274ZM107.08 37.9051C111.575 40.8988 115.288 43.5156 115.33 43.7196C115.371 43.9236 113.467 44.1426 111.097 44.2066L106.789 44.3226L99.6651 39.3973C94.1002 35.5504 92.5409 34.2524 92.5409 33.4668C92.5409 32.5212 92.7289 32.4617 95.7243 32.4617H98.9078L107.08 37.9051ZM59.834 40.0127C60.1765 41.0499 60.3468 48.5289 60.3468 62.5366C60.3468 80.2226 60.2297 83.9824 59.5989 86.5352C58.6681 90.3012 58.9447 94.7288 60.3515 98.5899C61.315 101.235 61.3248 102.462 60.3753 101.53C60.0687 101.23 43.3647 46.132 42.9126 43.932C42.878 43.764 46.4194 41.2356 50.7819 38.3126L58.7138 32.9985L59.0175 35.7295C59.1841 37.2314 59.5518 39.1591 59.834 40.0127ZM99.2083 41.0467C102.234 43.141 104.658 45.0158 104.595 45.2126C104.532 45.4095 103.555 46.1534 102.426 46.8657C96.0323 50.8991 93.4348 58.9874 96.2796 66.0079C97.502 69.0256 101.391 73.0755 104.322 74.3819C105.285 74.8112 106.068 75.4026 106.063 75.6968C106.058 75.991 105.566 77.7311 104.97 79.5641L103.886 82.8968L102.688 80.675C100.092 75.863 95.0319 71.8948 89.3448 70.2107C85.1717 68.9745 79.395 68.97 75.2438 70.2C71.4692 71.3176 66.2803 74.7236 64.1093 77.508C63.2275 78.6389 62.4404 79.5641 62.3596 79.5641C62.2789 79.5641 62.2131 71.7402 62.2131 62.1775V44.7905L64.3477 46.6644C71.0478 52.5464 81.2226 52.4335 87.5965 46.4066C89.7619 44.359 91.5237 41.4218 92.1275 38.8516C92.5068 37.2368 92.8521 36.5925 93.1974 36.8533C93.4778 37.0653 96.183 38.952 99.2083 41.0467ZM18.384 49.463C18.9616 51.3595 19.3488 52.9792 19.2443 53.0627C19.1398 53.1463 17.3458 54.3452 15.2574 55.7267C11.3745 58.296 9.95611 60.0792 9.95611 62.3921C9.95611 63.4533 11.2448 67.9356 18.2612 91.2806C21.9071 103.411 21.7853 103.277 29.3271 103.487C32.2736 103.569 34.69 103.769 34.6961 103.931C34.7026 104.093 35.2079 105.897 35.8196 107.938L36.9315 111.65L29.6262 111.476C23.1981 111.322 22.0839 111.183 20.3506 110.316C17.6132 108.947 15.249 106.877 13.9608 104.721C13.3603 103.716 10.3765 94.5946 7.32973 84.4521C2.18568 67.3259 1.79189 65.7417 1.80215 62.234C1.82035 56.1137 3.58542 53.6857 12.2634 47.845C15.4216 45.7192 16.764 45.0398 17.0015 45.4468C17.1839 45.7592 17.8059 47.5664 18.384 49.463ZM146.664 48.1579C151.927 51.6919 153.96 53.5622 155.442 56.2351C156.489 58.1245 156.675 59.0217 156.685 62.234C156.695 65.7417 156.301 67.3259 151.157 84.4521C148.11 94.5946 145.126 103.716 144.526 104.721C143.238 106.877 140.873 108.947 138.136 110.316C136.403 111.183 135.289 111.322 128.86 111.476L121.555 111.65L122.667 107.938C123.279 105.897 123.784 104.093 123.791 103.931C123.797 103.769 126.213 103.569 129.16 103.487C137.113 103.265 136.182 104.702 142.967 82.1756C146.013 72.0632 148.511 63.2195 148.518 62.5232C148.543 60.0504 147.177 58.3169 143.117 55.6667C140.975 54.2683 139.217 52.9348 139.211 52.7033C139.204 52.4713 139.733 50.6152 140.385 48.5782C141.206 46.0143 141.745 44.97 142.135 45.1847C142.444 45.3553 144.483 46.6933 146.664 48.1579ZM117.491 46.715C120.644 47.8388 124.081 50.904 125.674 54.0132C127.223 57.038 127.308 62.7921 125.848 65.8115C123.894 69.8512 120.434 72.6778 115.857 73.9722C112.569 74.9018 110.997 74.8605 107.206 73.7456C104.594 72.9773 103.583 72.377 101.401 70.2987C97.8893 66.9544 96.5628 63.7603 96.8516 59.3456C97.1124 55.3663 98.4011 52.6113 101.289 49.8607C105.402 45.9441 111.826 44.6967 117.491 46.715ZM20.2209 55.7551C20.2209 56.1329 20.6259 56.2604 21.3873 56.1217C22.2734 55.9604 22.5538 56.0969 22.5538 56.6896C22.5538 57.1189 22.216 57.7055 21.8026 57.9934C21.1321 58.4604 21.1209 58.751 21.7004 60.7049C22.1577 62.2464 22.6214 62.9427 23.2681 63.0596C24.1304 63.2151 24.8634 63.8776 24.8797 64.5149C24.8834 64.6699 24.4658 64.9015 23.9517 65.0294C23.4319 65.1587 23.1109 65.5271 23.2289 65.8586C23.3456 66.187 23.6722 67.3152 23.9549 68.3666C24.386 69.9698 24.6156 70.2334 25.3799 70.0023C26.6424 69.6206 27.1902 71.0505 26.0783 71.8251C25.3304 72.3459 25.3099 72.6129 25.8576 74.649C26.3658 76.5362 26.6364 76.8979 27.5411 76.8979C28.1341 76.8979 28.6193 76.9815 28.6193 77.0837C28.6193 77.1859 28.7467 77.5858 28.9026 77.9724C29.0855 78.427 28.9305 78.6754 28.4635 78.6754C27.3134 78.6754 27.2238 79.2464 27.9871 81.725C28.5913 83.6882 28.8596 84.0295 29.7107 83.918C30.4539 83.8202 30.7581 84.0481 30.8683 84.7853C30.9681 85.4577 30.7773 85.7852 30.285 85.7852C29.4083 85.7852 29.3971 85.9651 30.0965 88.8517C30.5794 90.8433 30.7567 91.0695 31.6661 90.8522C33.0379 90.5243 33.6481 92.2808 32.3039 92.6874C31.2569 93.0038 31.2569 93.0012 32.058 95.5522C32.5237 97.0364 32.9665 97.6065 33.7979 97.7932C35.0623 98.0776 35.6395 99.5604 34.4857 99.5604C34.0139 99.5604 33.7517 99.9572 33.7517 100.671C33.7517 101.781 33.7461 101.782 29.1671 101.782C24.9105 101.782 24.5064 101.705 23.5131 100.698C22.712 99.8857 21.0584 94.9879 16.9254 81.1873C10.3751 59.3167 10.4386 60.8324 15.9218 57.1607C19.4114 54.8238 20.2209 54.5589 20.2209 55.7551ZM109.011 55.5507C107.403 56.4839 106.072 58.5053 106.072 60.0121C106.072 62.7347 108.939 65.3445 111.931 65.3445C117.344 65.3445 119.484 58.58 114.984 55.696C113.044 54.4523 110.988 54.4021 109.011 55.5507ZM146.535 61.0502C147.07 62.5743 146.763 63.8208 141.574 81.1442C137.431 94.9795 135.775 99.8857 134.974 100.698C133.98 101.705 133.576 101.782 129.32 101.782C124.741 101.782 124.735 101.781 124.735 100.671C124.735 99.9572 124.473 99.5604 124.001 99.5604C122.847 99.5604 123.424 98.0776 124.689 97.7932C125.52 97.6065 125.963 97.0364 126.429 95.5522C127.23 93.0012 127.23 93.0038 126.183 92.6874C124.939 92.3111 125.431 90.5105 126.691 90.8242C127.666 91.0673 128.163 90.2261 128.722 87.388C128.983 86.0638 128.902 85.7852 128.254 85.7852C127.708 85.7852 127.515 85.4821 127.618 84.7853C127.729 84.0481 128.033 83.8202 128.776 83.918C129.627 84.0295 129.895 83.6882 130.5 81.725C131.254 79.273 131.171 78.6754 130.073 78.6754C129.316 78.6754 129.285 78.59 129.684 77.6009C129.84 77.2143 130.43 76.8979 130.995 76.8979C131.84 76.8979 132.132 76.4966 132.629 74.649C133.177 72.6129 133.156 72.3459 132.408 71.8251C131.296 71.0505 131.844 69.6206 133.107 70.0023C133.871 70.2334 134.101 69.9698 134.532 68.3666C134.814 67.3152 135.141 66.187 135.258 65.8586C135.376 65.5271 135.055 65.1587 134.535 65.0294C134.021 64.9015 133.603 64.6699 133.607 64.5149C133.623 63.8776 134.356 63.2151 135.219 63.0596C135.865 62.9427 136.329 62.2464 136.786 60.7049C137.377 58.7119 137.363 58.4658 136.625 57.9525C135.566 57.2149 136.078 55.8293 137.298 56.1329C137.91 56.2857 138.261 56.0773 138.43 55.4605C138.654 54.6469 139.003 54.7847 142.32 56.9958C145.162 58.8906 146.09 59.7828 146.535 61.0502ZM115.177 57.9352C116.36 59.5433 116.056 61.5616 114.434 62.8609C113.645 63.4937 112.506 64.0114 111.904 64.0114C111.302 64.0114 110.163 63.4937 109.374 62.8609C107.031 60.984 107.552 57.8312 110.392 56.6941C112.132 55.9973 114.134 56.5168 115.177 57.9352ZM89.8529 71.9726C101.815 76.378 107.222 89.1801 101.754 100.147C97.0107 109.659 85.5258 114.215 75.095 110.724C65.6644 107.567 59.5182 97.9451 60.868 88.4513C61.3206 85.267 63.6399 80.3279 65.894 77.7493C67.8979 75.4564 72.0123 72.8991 75.6376 71.6935C79.6992 70.3422 85.7484 70.4613 89.8529 71.9726ZM112.092 78.602C111.043 79.9867 109.102 82.5915 107.778 84.3907L105.372 87.6626L105.229 86.0918C105.112 84.8071 105.765 82.1756 107.674 76.2314C107.757 75.9732 109.113 75.8497 110.908 75.9359L113.998 76.0847L112.092 78.602ZM78.6475 84.505C77.3457 85.1186 76.2511 86.0971 75.4981 87.3209C70.6788 95.1528 81.2795 103.028 88.0113 96.616C91.8648 92.9461 90.7133 86.5259 85.8216 84.4099C83.3068 83.3225 81.0938 83.3514 78.6475 84.505ZM85.9201 86.2411C88.5637 87.7759 89.4927 91.165 88.0589 94.0427C86.4207 97.3297 81.4083 98.4553 78.5626 96.1748C76.819 94.7777 75.744 92.9225 75.744 91.3112C75.744 89.7155 77.4031 87.0032 78.9316 86.1002C80.6692 85.0733 84.0258 85.1408 85.9201 86.2411Z" fill="black"/>
</svg>
