<svg width="78" height="75" viewBox="0 0 78 75" fill="none" xmlns="http://www.w3.org/2000/svg">
<path fill-rule="evenodd" clip-rule="evenodd" d="M76.7867 28.1495C72.1513 9.73368 52.3852 -2.67313 32.7265 0.493455C1.48909 5.52494 -10.9726 42.3802 11.321 63.7972C39.3538 90.7271 86.1273 65.2577 76.7867 28.1495ZM73.4236 46.1076C66.5545 71.6228 33.2025 80.3317 13.7967 61.6769C-6.69667 41.9775 4.62475 8.41809 33.3592 3.68623C58.4794 -0.449642 79.8619 22.1904 73.4236 46.1076ZM45.9717 45.6655H40.6721V30.9296C40.6721 16.7398 40.6091 16.1937 38.9688 16.1937C37.3286 16.1937 37.2656 16.7398 37.2656 30.9296V45.6655H32.0758H26.8861L31.1195 49.5542C33.4469 51.6925 36.2786 54.2647 37.4112 55.2701L39.4713 57.0965L45.3713 51.3814L51.2713 45.6655H45.9717Z" fill="url(#paint0_linear_40_148)"/>
<defs>
<linearGradient id="paint0_linear_40_148" x1="39" y1="0" x2="39" y2="78.0469" gradientUnits="userSpaceOnUse">
<stop stop-color="#FFC107"/>
<stop offset="0.556747" stop-color="#FFD145"/>
<stop offset="1" stop-color="#FFC107"/>
</linearGradient>
</defs>
</svg>
